<svg width="214" height="50" viewBox="0 0 214 50" fill="none" xmlns="http://www.w3.org/2000/svg">
<path d="M175.832 3.90723H179.422V8.1969H175.832V3.90723ZM175.832 13.9331H179.422V36.8019H175.832V13.9331Z" fill="#08325A"/>
<path d="M175.832 3.90723H179.422V8.1969H175.832V3.90723ZM175.832 13.9331H179.422V36.8019H175.832V13.9331Z" fill="black"/>
<path d="M61.9406 16.8242C59.5633 16.8242 57.7692 16.9125 56.5564 17.0885C55.3433 17.2655 54.3794 17.5876 53.6626 18.0527C52.8161 18.5999 52.2019 19.467 51.8185 20.6549C51.4369 21.8279 51.2459 23.435 51.2459 25.4746C51.2459 27.7882 51.5 29.5224 52.0104 30.6808C52.5204 31.8215 53.3984 32.6321 54.6427 33.1145C56.0149 33.644 58.6853 33.9096 62.6578 33.9096C65.2428 33.9096 67.1395 33.8126 68.3522 33.6206C69.5807 33.4278 70.5525 33.0664 71.2719 32.5355C72.068 31.9738 72.6345 31.1314 72.971 30.0052C73.321 28.8813 73.4963 27.2984 73.4963 25.2584C73.4963 22.849 73.2255 21.0812 72.6827 19.9555C72.0759 18.7036 71.0629 17.8678 69.6447 17.4504C68.24 17.0334 65.673 16.8242 61.9406 16.8242ZM61.3662 13.6426C64.9379 13.6426 67.5701 13.7556 69.2622 13.9797C70.9674 14.1898 72.2993 14.583 73.2575 15.1606C74.6932 16.0295 75.7285 17.2655 76.3673 18.8731C77.0052 20.463 77.3238 22.6319 77.3246 25.3784C77.3246 28.432 76.9417 30.7527 76.1763 32.3431C75.6172 33.5469 74.8676 34.4877 73.9265 35.162C73.0007 35.8367 71.7814 36.327 70.2664 36.6328C68.7991 36.9368 66.3591 37.0891 62.9452 37.0891C59.7232 37.0891 57.2899 36.9845 55.6478 36.7775C54.0048 36.5525 52.6733 36.1575 51.652 35.5971C50.137 34.7772 49.0509 33.5712 48.3972 31.9817C47.7431 30.375 47.418 28.1342 47.418 25.2584C47.418 22.0459 47.8872 19.6113 48.8292 17.9561C49.7852 16.2536 51.1088 15.1134 52.8004 14.5344C54.4916 13.9568 57.346 13.6598 61.3662 13.6426Z" fill="#08325A"/>
<path d="M61.9406 16.8242C59.5633 16.8242 57.7692 16.9125 56.5564 17.0885C55.3433 17.2655 54.3794 17.5876 53.6626 18.0527C52.8161 18.5999 52.2019 19.467 51.8185 20.6549C51.4369 21.8279 51.2459 23.435 51.2459 25.4746C51.2459 27.7882 51.5 29.5224 52.0104 30.6808C52.5204 31.8215 53.3984 32.6321 54.6427 33.1145C56.0149 33.644 58.6853 33.9096 62.6578 33.9096C65.2428 33.9096 67.1395 33.8126 68.3522 33.6206C69.5807 33.4278 70.5525 33.0664 71.2719 32.5355C72.068 31.9738 72.6345 31.1314 72.971 30.0052C73.321 28.8813 73.4963 27.2984 73.4963 25.2584C73.4963 22.849 73.2255 21.0812 72.6827 19.9555C72.0759 18.7036 71.0629 17.8678 69.6447 17.4504C68.24 17.0334 65.673 16.8242 61.9406 16.8242ZM61.3662 13.6426C64.9379 13.6426 67.5701 13.7556 69.2622 13.9797C70.9674 14.1898 72.2993 14.583 73.2575 15.1606C74.6932 16.0295 75.7285 17.2655 76.3673 18.8731C77.0052 20.463 77.3238 22.6319 77.3246 25.3784C77.3246 28.432 76.9417 30.7527 76.1763 32.3431C75.6172 33.5469 74.8676 34.4877 73.9265 35.162C73.0007 35.8367 71.7814 36.327 70.2664 36.6328C68.7991 36.9368 66.3591 37.0891 62.9452 37.0891C59.7232 37.0891 57.2899 36.9845 55.6478 36.7775C54.0048 36.5525 52.6733 36.1575 51.652 35.5971C50.137 34.7772 49.0509 33.5712 48.3972 31.9817C47.7431 30.375 47.418 28.1342 47.418 25.2584C47.418 22.0459 47.8872 19.6113 48.8292 17.9561C49.7852 16.2536 51.1088 15.1134 52.8004 14.5344C54.4916 13.9568 57.346 13.6598 61.3662 13.6426Z" fill="black"/>
<path d="M98.6236 16.8246C95.735 16.8246 93.5908 16.92 92.1866 17.1137C90.7842 17.2902 89.7379 17.6119 89.0531 18.077C88.2067 18.6564 87.5937 19.4979 87.2108 20.6073C86.8436 21.7003 86.6601 23.2095 86.6601 25.137C86.6601 27.4034 86.8594 29.1143 87.2594 30.2709C87.6717 31.427 88.3745 32.28 89.3642 32.8245C90.6711 33.5482 93.3196 33.9096 97.3075 33.9096C99.9709 33.9096 101.972 33.8218 103.313 33.6444C104.668 33.4511 105.697 33.1228 106.399 32.6564C107.26 32.0779 107.875 31.2342 108.242 30.1274C108.625 29.0013 108.815 27.4515 108.815 25.4755C108.815 23.2426 108.617 21.5644 108.217 20.4387C107.818 19.2989 107.125 18.4552 106.137 17.9084C104.86 17.1847 102.356 16.8246 98.6236 16.8246ZM83.1914 45.0184V13.9329H86.7792V16.8719H86.9944C87.7769 15.5705 88.8779 14.7114 90.2965 14.2935C91.7161 13.8597 94.2125 13.6426 97.7859 13.6426C100.865 13.6426 103.176 13.756 104.725 13.9797C106.287 14.2061 107.572 14.6156 108.576 15.2096C110.139 16.1252 111.208 17.3776 111.782 18.9688C112.357 20.5106 112.644 22.6482 112.644 25.3784C112.644 28.8332 112.118 31.3789 111.065 33.0169C110.012 34.6735 108.584 35.7652 106.782 36.2952C104.996 36.826 101.869 37.0908 97.4034 37.0908C94.1337 37.0908 91.7879 36.8887 90.3684 36.4885C88.9493 36.0701 87.8237 35.2666 86.9944 34.0786H86.7792V45.0184L83.1914 45.0184Z" fill="#08325A"/>
<path d="M98.6236 16.8246C95.735 16.8246 93.5908 16.92 92.1866 17.1137C90.7842 17.2902 89.7379 17.6119 89.0531 18.077C88.2067 18.6564 87.5937 19.4979 87.2108 20.6073C86.8436 21.7003 86.6601 23.2095 86.6601 25.137C86.6601 27.4034 86.8594 29.1143 87.2594 30.2709C87.6717 31.427 88.3745 32.28 89.3642 32.8245C90.6711 33.5482 93.3196 33.9096 97.3075 33.9096C99.9709 33.9096 101.972 33.8218 103.313 33.6444C104.668 33.4511 105.697 33.1228 106.399 32.6564C107.26 32.0779 107.875 31.2342 108.242 30.1274C108.625 29.0013 108.815 27.4515 108.815 25.4755C108.815 23.2426 108.617 21.5644 108.217 20.4387C107.818 19.2989 107.125 18.4552 106.137 17.9084C104.86 17.1847 102.356 16.8246 98.6236 16.8246ZM83.1914 45.0184V13.9329H86.7792V16.8719H86.9944C87.7769 15.5705 88.8779 14.7114 90.2965 14.2935C91.7161 13.8597 94.2125 13.6426 97.7859 13.6426C100.865 13.6426 103.176 13.756 104.725 13.9797C106.287 14.2061 107.572 14.6156 108.576 15.2096C110.139 16.1252 111.208 17.3776 111.782 18.9688C112.357 20.5106 112.644 22.6482 112.644 25.3784C112.644 28.8332 112.118 31.3789 111.065 33.0169C110.012 34.6735 108.584 35.7652 106.782 36.2952C104.996 36.826 101.869 37.0908 97.4034 37.0908C94.1337 37.0908 91.7879 36.8887 90.3684 36.4885C88.9493 36.0701 87.8237 35.2666 86.9944 34.0786H86.7792V45.0184L83.1914 45.0184Z" fill="black"/>
<path d="M121.962 8.26953H125.551V13.9334H141.437V17.017H125.551V26.9449C125.582 29.1147 125.638 30.4385 125.718 30.9217C125.797 31.4036 126.028 31.8859 126.413 32.3691C126.858 32.93 127.528 33.3306 128.422 33.572C129.314 33.7984 130.622 33.9109 132.346 33.9109C133.956 33.9109 135.129 33.7984 135.863 33.572C136.597 33.3487 137.171 32.9388 137.585 32.3435C137.856 31.9261 138.032 31.4287 138.111 30.8489C138.207 30.2708 138.255 29.2912 138.255 27.91V26.4639H141.82V27.91C141.82 29.661 141.732 30.9932 141.558 31.9102C141.397 32.8091 141.086 33.6047 140.624 34.2962C139.955 35.2917 138.956 36.0074 137.633 36.4399C136.31 36.8741 134.452 37.0895 132.059 37.0895C129.602 37.0895 127.68 36.8891 126.292 36.4876C124.92 36.0873 123.899 35.4289 123.229 34.5128C122.735 33.8377 122.4 33.0593 122.225 32.1763C122.049 31.2915 121.962 29.95 121.962 28.1514V17.017H116.387V13.9334H121.962V8.26953Z" fill="#08325A"/>
<path d="M121.962 8.26953H125.551V13.9334H141.437V17.017H125.551V26.9449C125.582 29.1147 125.638 30.4385 125.718 30.9217C125.797 31.4036 126.028 31.8859 126.413 32.3691C126.858 32.93 127.528 33.3306 128.422 33.572C129.314 33.7984 130.622 33.9109 132.346 33.9109C133.956 33.9109 135.129 33.7984 135.863 33.572C136.597 33.3487 137.171 32.9388 137.585 32.3435C137.856 31.9261 138.032 31.4287 138.111 30.8489C138.207 30.2708 138.255 29.2912 138.255 27.91V26.4639H141.82V27.91C141.82 29.661 141.732 30.9932 141.558 31.9102C141.397 32.8091 141.086 33.6047 140.624 34.2962C139.955 35.2917 138.956 36.0074 137.633 36.4399C136.31 36.8741 134.452 37.0895 132.059 37.0895C129.602 37.0895 127.68 36.8891 126.292 36.4876C124.92 36.0873 123.899 35.4289 123.229 34.5128C122.735 33.8377 122.4 33.0593 122.225 32.1763C122.049 31.2915 121.962 29.95 121.962 28.1514V17.017H116.387V13.9334H121.962V8.26953Z" fill="black"/>
<path d="M146.875 13.9316H150.465V17.0162H150.702C151.261 15.9889 152.115 15.1769 153.263 14.5825C153.949 14.2295 154.849 13.9881 155.967 13.8588C157.099 13.7154 158.782 13.6426 161.015 13.6426C163.248 13.6426 164.907 13.7719 165.993 14.0278C167.092 14.2688 168.033 14.7202 168.815 15.3772C170.346 16.7117 171.111 18.8709 171.111 21.8605V24.2214H167.427V22.5833C167.427 21.3138 167.34 20.3584 167.165 19.7155C167.004 19.0571 166.71 18.5192 166.279 18.0999C165.369 17.2492 163.48 16.8251 160.609 16.8238C156.284 16.8238 153.509 17.3952 152.282 18.535C151.07 19.6594 150.465 22.2312 150.465 26.246V36.8009H146.875V13.9316Z" fill="#08325A"/>
<path d="M146.875 13.9316H150.465V17.0162H150.702C151.261 15.9889 152.115 15.1769 153.263 14.5825C153.949 14.2295 154.849 13.9881 155.967 13.8588C157.099 13.7154 158.782 13.6426 161.015 13.6426C163.248 13.6426 164.907 13.7719 165.993 14.0278C167.092 14.2688 168.033 14.7202 168.815 15.3772C170.346 16.7117 171.111 18.8709 171.111 21.8605V24.2214H167.427V22.5833C167.427 21.3138 167.34 20.3584 167.165 19.7155C167.004 19.0571 166.71 18.5192 166.279 18.0999C165.369 17.2492 163.48 16.8251 160.609 16.8238C156.284 16.8238 153.509 17.3952 152.282 18.535C151.07 19.6594 150.465 22.2312 150.465 26.246V36.8009H146.875V13.9316Z" fill="black"/>
<path d="M9.35938 23.7494C9.95873 16.1166 16.0045 10.0287 23.5823 9.42285V23.7494H9.35938Z" fill="#E2001A"/>
<path d="M23.5793 40.5766C16.0014 39.9711 9.95658 33.8832 9.35547 26.25H23.5793V40.5766Z" fill="#E2001A"/>
<path d="M40.2863 26.2507C39.687 33.8835 33.6413 39.971 26.0625 40.5755V26.2507H40.2863Z" fill="#E2001A"/>
<path d="M26.0625 9.42358C33.6413 10.0277 39.6861 16.1169 40.2863 23.7501H26.0625V9.42358Z" fill="#E2001A"/>
<path d="M26.061 0V9.42483C25.6509 9.39174 25.2386 9.37453 24.8202 9.37453C24.4022 9.37453 23.9882 9.39174 23.5781 9.42483V0H26.061ZM26.061 40.5756V50H23.5781V40.5756C23.9882 40.6078 24.4022 40.625 24.8202 40.625C25.2386 40.625 25.6509 40.6078 26.061 40.5756Z" fill="#E2001A"/>
<path d="M0 23.75H9.35755C9.32469 24.163 9.30849 24.58 9.30849 25.0001C9.30849 25.422 9.3247 25.8386 9.35755 26.2512H0V23.75Z" fill="#E2001A"/>
<path d="M40.2891 23.75H47.4568C47.4323 24.2323 47.4192 24.7349 47.4192 25.2587C47.4192 25.5981 47.4231 25.9286 47.4336 26.2512H40.2891C40.321 25.8386 40.3373 25.422 40.3373 25.0001C40.3373 24.58 40.321 24.163 40.2891 23.75Z" fill="#E2001A"/>
<path d="M185.336 28.8239H189.163V29.4748C189.163 30.7126 189.292 31.5965 189.547 32.1264C189.817 32.656 190.344 33.0659 191.126 33.3563C192.162 33.723 195.145 33.9092 200.076 33.9092C203.152 33.9092 205.289 33.8452 206.486 33.7164C207.698 33.5729 208.568 33.2998 209.094 32.8969C209.813 32.3515 210.171 31.5078 210.171 30.3662C210.171 28.9859 209.741 28.0459 208.878 27.5473C208.019 27.0336 206.447 26.7848 204.167 26.8006C203.448 26.8156 199.994 26.7764 193.806 26.6806C192.194 26.6484 190.903 26.5195 189.929 26.2941C188.974 26.0703 188.175 25.7085 187.537 25.2107C186.324 24.2624 185.718 22.6636 185.718 20.4144C185.718 18.0373 186.477 16.3101 187.991 15.2334C188.789 14.6716 190.097 14.2701 191.916 14.0278C193.734 13.7714 196.349 13.6435 199.763 13.6426C203.575 13.6426 206.383 13.8513 208.186 14.2701C210.005 14.6866 211.335 15.4267 212.181 16.4866C212.596 17.0012 212.857 17.5466 212.971 18.1247C213.097 18.6873 213.161 19.6426 213.161 20.993H209.382C209.365 19.595 209.133 18.6802 208.688 18.2451C208.192 17.7482 207.235 17.3855 205.816 17.1609C204.397 16.9363 202.34 16.8251 199.643 16.8242C194.731 16.8242 191.748 17.1693 190.697 17.8599C189.929 18.374 189.547 19.2424 189.547 20.4621C189.547 21.7158 189.994 22.5436 190.887 22.9443C191.779 23.3467 193.581 23.5233 196.293 23.4752C198.974 23.4262 202.444 23.4919 206.702 23.6667C209.286 23.7638 211.144 24.3348 212.277 25.3788C213.425 26.4242 214 28.0773 214 30.3423C214 31.7081 213.801 32.817 213.401 33.6687C213.003 34.5186 212.355 35.2189 211.464 35.7648C210.682 36.2462 209.406 36.5926 207.635 36.8013C205.865 36.9955 203.305 37.0908 199.954 37.0908C196.206 37.0908 193.422 36.9774 191.606 36.7524C189.802 36.5282 188.479 36.1266 187.632 35.5477C186.771 34.9687 186.166 34.2706 185.815 33.4503C185.479 32.6321 185.312 31.4928 185.312 30.0295C185.312 29.8371 185.319 29.4359 185.336 28.8239Z" fill="#08325A"/>
<path d="M185.336 28.8239H189.163V29.4748C189.163 30.7126 189.292 31.5965 189.547 32.1264C189.817 32.656 190.344 33.0659 191.126 33.3563C192.162 33.723 195.145 33.9092 200.076 33.9092C203.152 33.9092 205.289 33.8452 206.486 33.7164C207.698 33.5729 208.568 33.2998 209.094 32.8969C209.813 32.3515 210.171 31.5078 210.171 30.3662C210.171 28.9859 209.741 28.0459 208.878 27.5473C208.019 27.0336 206.447 26.7848 204.167 26.8006C203.448 26.8156 199.994 26.7764 193.806 26.6806C192.194 26.6484 190.903 26.5195 189.929 26.2941C188.974 26.0703 188.175 25.7085 187.537 25.2107C186.324 24.2624 185.718 22.6636 185.718 20.4144C185.718 18.0373 186.477 16.3101 187.991 15.2334C188.789 14.6716 190.097 14.2701 191.916 14.0278C193.734 13.7714 196.349 13.6435 199.763 13.6426C203.575 13.6426 206.383 13.8513 208.186 14.2701C210.005 14.6866 211.335 15.4267 212.181 16.4866C212.596 17.0012 212.857 17.5466 212.971 18.1247C213.097 18.6873 213.161 19.6426 213.161 20.993H209.382C209.365 19.595 209.133 18.6802 208.688 18.2451C208.192 17.7482 207.235 17.3855 205.816 17.1609C204.397 16.9363 202.34 16.8251 199.643 16.8242C194.731 16.8242 191.748 17.1693 190.697 17.8599C189.929 18.374 189.547 19.2424 189.547 20.4621C189.547 21.7158 189.994 22.5436 190.887 22.9443C191.779 23.3467 193.581 23.5233 196.293 23.4752C198.974 23.4262 202.444 23.4919 206.702 23.6667C209.286 23.7638 211.144 24.3348 212.277 25.3788C213.425 26.4242 214 28.0773 214 30.3423C214 31.7081 213.801 32.817 213.401 33.6687C213.003 34.5186 212.355 35.2189 211.464 35.7648C210.682 36.2462 209.406 36.5926 207.635 36.8013C205.865 36.9955 203.305 37.0908 199.954 37.0908C196.206 37.0908 193.422 36.9774 191.606 36.7524C189.802 36.5282 188.479 36.1266 187.632 35.5477C186.771 34.9687 186.166 34.2706 185.815 33.4503C185.479 32.6321 185.312 31.4928 185.312 30.0295C185.312 29.8371 185.319 29.4359 185.336 28.8239Z" fill="black"/>
</svg>
