<?xml version="1.0" encoding="UTF-8" standalone="no"?>
<!DOCTYPE svg PUBLIC "-//W3C//DTD SVG 1.1//EN"
 "http://www.w3.org/Graphics/SVG/1.1/DTD/svg11.dtd">
<!-- Generated by graphviz version 14.0.2 (20251019.1705)
 -->
<!-- Title: STM32N6XX_NUCLEO Pages: 1 -->
<svg width="408pt" height="104pt"
 viewBox="0.00 0.00 408.00 104.00" xmlns="http://www.w3.org/2000/svg" xmlns:xlink="http://www.w3.org/1999/xlink">
<g id="graph0" class="graph" transform="scale(1 1) rotate(0) translate(4 100)">
<title>STM32N6XX_NUCLEO</title>
<!-- Node2 -->
<g id="Node000002" class="node">
<title>Node2</title>
<g id="a_Node000002"><a xlink:href="group___b_s_p.html" target="_top" xlink:title=" ">
<polygon fill="white" stroke="#666666" points="36.25,-58 0,-58 0,-38 36.25,-38 36.25,-58"/>
<text xml:space="preserve" text-anchor="middle" x="18.12" y="-44.5" font-family="Helvetica,sans-Serif" font-size="10.00">BSP</text>
</a>
</g>
</g>
<!-- Node1 -->
<g id="Node000001" class="node">
<title>Node1</title>
<g id="a_Node000001"><a xlink:title=" ">
<polygon fill="#999999" stroke="#666666" points="193.25,-58 72.25,-58 72.25,-38 193.25,-38 193.25,-58"/>
<text xml:space="preserve" text-anchor="middle" x="132.75" y="-44.5" font-family="Helvetica,sans-Serif" font-size="10.00">STM32N6XX_NUCLEO</text>
</a>
</g>
</g>
<!-- Node2&#45;&gt;Node1 -->
<g id="edge1" class="edge">
<title>Node2&#45;&gt;Node1</title>
<path fill="none" stroke="black" d="M48.14,-48C55.46,-48 63.58,-48 71.81,-48"/>
<polygon fill="black" stroke="black" points="48.24,-44.5 38.24,-48 48.24,-51.5 48.24,-44.5"/>
</g>
<!-- Node3 -->
<g id="Node000003" class="node">
<title>Node3</title>
<g id="a_Node000003"><a xlink:href="group___s_t_m32_n6_x_x___n_u_c_l_e_o___c_o_m_m_o_n.html" target="_top" xlink:title="This file provides set of firmware functions to manage Leds and push&#45;button available on STM32N6xx&#45;Nu...">
<polygon fill="white" stroke="#666666" points="399.75,-96 229.25,-96 229.25,-76 399.75,-76 399.75,-96"/>
<text xml:space="preserve" text-anchor="middle" x="314.5" y="-82.5" font-family="Helvetica,sans-Serif" font-size="10.00">STM32N6XX_NUCLEO COMMON</text>
</a>
</g>
</g>
<!-- Node1&#45;&gt;Node3 -->
<g id="edge2" class="edge">
<title>Node1&#45;&gt;Node3</title>
<path fill="none" stroke="black" d="M194.55,-60.85C217.18,-65.64 242.58,-71.01 264.07,-75.55"/>
<polygon fill="black" stroke="black" points="195.33,-57.44 184.82,-58.8 193.88,-64.29 195.33,-57.44"/>
</g>
<!-- Node5 -->
<g id="Node000005" class="node">
<title>Node5</title>
<g id="a_Node000005"><a xlink:href="group___s_t_m32_n6_x_x___n_u_c_l_e_o___c_o_n_f_i_g.html" target="_top" xlink:title=" ">
<polygon fill="white" stroke="#666666" points="336.75,-58 292.25,-58 292.25,-38 336.75,-38 336.75,-58"/>
<text xml:space="preserve" text-anchor="middle" x="314.5" y="-44.5" font-family="Helvetica,sans-Serif" font-size="10.00">Config</text>
</a>
</g>
</g>
<!-- Node1&#45;&gt;Node5 -->
<g id="edge4" class="edge">
<title>Node1&#45;&gt;Node5</title>
<path fill="none" stroke="black" d="M204.93,-48C236.14,-48 270.5,-48 292.04,-48"/>
<polygon fill="black" stroke="black" points="205.12,-44.5 195.12,-48 205.12,-51.5 205.12,-44.5"/>
</g>
<!-- Node4 -->
<g id="Node000004" class="node">
<title>Node4</title>
<g id="a_Node000004"><a xlink:href="group___s_t_m32_n6_x_x___n_u_c_l_e_o___x_s_p_i.html" target="_top" xlink:title=" ">
<polygon fill="white" stroke="#666666" points="334.12,-20 294.88,-20 294.88,0 334.12,0 334.12,-20"/>
<text xml:space="preserve" text-anchor="middle" x="314.5" y="-6.5" font-family="Helvetica,sans-Serif" font-size="10.00">XSPI</text>
</a>
</g>
</g>
<!-- Node1&#45;&gt;Node4 -->
<g id="edge3" class="edge">
<title>Node1&#45;&gt;Node4</title>
<path fill="none" stroke="black" d="M194.41,-35.18C229.32,-27.8 270.83,-19.02 294.47,-14.02"/>
<polygon fill="black" stroke="black" points="193.88,-31.71 184.82,-37.2 195.33,-38.56 193.88,-31.71"/>
</g>
</g>
</svg>
