<?xml version="1.0" encoding="UTF-8" standalone="no"?>
<!DOCTYPE svg PUBLIC "-//W3C//DTD SVG 1.1//EN"
 "http://www.w3.org/Graphics/SVG/1.1/DTD/svg11.dtd">
<!-- Generated by graphviz version 14.0.2 (20251019.1705)
 -->
<!-- Title: STM32N6XX_NUCLEO COMMON Exported Constants Pages: 1 -->
<svg width="614pt" height="78pt"
 viewBox="0.00 0.00 614.00 78.00" xmlns="http://www.w3.org/2000/svg" xmlns:xlink="http://www.w3.org/1999/xlink">
<g id="graph0" class="graph" transform="scale(1 1) rotate(0) translate(4 74)">
<title>STM32N6XX_NUCLEO COMMON Exported Constants</title>
<!-- Node2 -->
<g id="Node000002" class="node">
<title>Node2</title>
<g id="a_Node000002"><a xlink:href="group___s_t_m32_n6_x_x___n_u_c_l_e_o___c_o_m_m_o_n.html" target="_top" xlink:title="This file provides set of firmware functions to manage Leds and push&#45;button available on STM32N6xx&#45;Nu...">
<polygon fill="white" stroke="#666666" points="170.5,-42 0,-42 0,-22 170.5,-22 170.5,-42"/>
<text xml:space="preserve" text-anchor="middle" x="85.25" y="-28.5" font-family="Helvetica,sans-Serif" font-size="10.00">STM32N6XX_NUCLEO COMMON</text>
</a>
</g>
</g>
<!-- Node1 -->
<g id="Node000001" class="node">
<title>Node1</title>
<g id="a_Node000001"><a xlink:title=" ">
<polygon fill="#999999" stroke="#666666" points="377,-48 206.5,-48 206.5,-16 377,-16 377,-48"/>
<text xml:space="preserve" text-anchor="start" x="214.5" y="-34.5" font-family="Helvetica,sans-Serif" font-size="10.00">STM32N6XX_NUCLEO COMMON</text>
<text xml:space="preserve" text-anchor="middle" x="291.75" y="-22.5" font-family="Helvetica,sans-Serif" font-size="10.00"> Exported Constants</text>
</a>
</g>
</g>
<!-- Node2&#45;&gt;Node1 -->
<g id="edge1" class="edge">
<title>Node2&#45;&gt;Node1</title>
<path fill="none" stroke="black" d="M182.17,-32C190.18,-32 198.24,-32 206.16,-32"/>
<polygon fill="black" stroke="black" points="182.42,-28.5 172.42,-32 182.42,-35.5 182.42,-28.5"/>
</g>
<!-- Node4 -->
<g id="Node000004" class="node">
<title>Node4</title>
<g id="a_Node000004"><a xlink:href="group___s_t_m32_n6_x_x___n_u_c_l_e_o___c_o_m_m_o_n___b_u_t_t_o_n.html" target="_top" xlink:title=" ">
<polygon fill="white" stroke="#666666" points="594.75,-70 424.25,-70 424.25,-38 594.75,-38 594.75,-70"/>
<text xml:space="preserve" text-anchor="start" x="432.25" y="-56.5" font-family="Helvetica,sans-Serif" font-size="10.00">STM32N6XX_NUCLEO COMMON</text>
<text xml:space="preserve" text-anchor="middle" x="509.5" y="-44.5" font-family="Helvetica,sans-Serif" font-size="10.00"> BUTTON</text>
</a>
</g>
</g>
<!-- Node1&#45;&gt;Node4 -->
<g id="edge3" class="edge">
<title>Node1&#45;&gt;Node4</title>
<path fill="none" stroke="black" d="M388.65,-41.78C400.46,-42.98 412.47,-44.21 424.09,-45.39"/>
<polygon fill="black" stroke="black" points="389.21,-38.32 378.91,-40.79 388.5,-45.28 389.21,-38.32"/>
</g>
<!-- Node3 -->
<g id="Node000003" class="node">
<title>Node3</title>
<g id="a_Node000003"><a xlink:href="group___s_t_m32_n6_x_x___n_u_c_l_e_o___c_o_m_m_o_n___l_e_d.html" target="_top" xlink:title=" ">
<polygon fill="white" stroke="#666666" points="606,-20 413,-20 413,0 606,0 606,-20"/>
<text xml:space="preserve" text-anchor="middle" x="509.5" y="-6.5" font-family="Helvetica,sans-Serif" font-size="10.00">STM32N6XX_NUCLEO COMMON LED</text>
</a>
</g>
</g>
<!-- Node1&#45;&gt;Node3 -->
<g id="edge2" class="edge">
<title>Node1&#45;&gt;Node3</title>
<path fill="none" stroke="black" d="M388.61,-22.22C396.6,-21.41 404.68,-20.59 412.66,-19.77"/>
<polygon fill="black" stroke="black" points="388.5,-18.72 378.91,-23.21 389.21,-25.68 388.5,-18.72"/>
</g>
</g>
</svg>
