<?xml version="1.0" encoding="UTF-8" standalone="no"?>
<!DOCTYPE svg PUBLIC "-//W3C//DTD SVG 1.1//EN"
 "http://www.w3.org/Graphics/SVG/1.1/DTD/svg11.dtd">
<!-- Generated by graphviz version 14.0.2 (20251019.1705)
 -->
<!-- Title: STM32N6xx_HAL_Driver Pages: 1 -->
<svg width="216pt" height="66pt"
 viewBox="0.00 0.00 216.00 66.00" xmlns="http://www.w3.org/2000/svg" xmlns:xlink="http://www.w3.org/1999/xlink">
<g id="graph0" class="graph" transform="scale(1 1) rotate(0) translate(4 62)">
<title>STM32N6xx_HAL_Driver</title>
<!-- Node1 -->
<g id="Node000001" class="node">
<title>Node1</title>
<g id="a_Node000001"><a xlink:title=" ">
<polygon fill="#999999" stroke="#666666" points="127,-39 0,-39 0,-19 127,-19 127,-39"/>
<text xml:space="preserve" text-anchor="middle" x="63.5" y="-25.5" font-family="Helvetica,sans-Serif" font-size="10.00">STM32N6xx_HAL_Driver</text>
</a>
</g>
</g>
<!-- Node2 -->
<g id="Node000002" class="node">
<title>Node2</title>
<g id="a_Node000002"><a xlink:href="group___t_i_m.html" target="_top" xlink:title="TIM HAL module driver.">
<polygon fill="white" stroke="#666666" points="202.25,-58 169,-58 169,-38 202.25,-38 202.25,-58"/>
<text xml:space="preserve" text-anchor="middle" x="185.62" y="-44.5" font-family="Helvetica,sans-Serif" font-size="10.00">TIM</text>
</a>
</g>
</g>
<!-- Node1&#45;&gt;Node2 -->
<g id="edge1" class="edge">
<title>Node1&#45;&gt;Node2</title>
<path fill="none" stroke="black" d="M138.49,-40.7C149.92,-42.51 160.64,-44.21 168.86,-45.51"/>
<polygon fill="black" stroke="black" points="139.3,-37.29 128.87,-39.18 138.2,-44.2 139.3,-37.29"/>
</g>
<!-- Node3 -->
<g id="Node000003" class="node">
<title>Node3</title>
<g id="a_Node000003"><a xlink:href="group___t_i_m_ex.html" target="_top" xlink:title="TIM Extended HAL module driver.">
<polygon fill="white" stroke="#666666" points="208.25,-20 163,-20 163,0 208.25,0 208.25,-20"/>
<text xml:space="preserve" text-anchor="middle" x="185.62" y="-6.5" font-family="Helvetica,sans-Serif" font-size="10.00">TIMEx</text>
</a>
</g>
</g>
<!-- Node1&#45;&gt;Node3 -->
<g id="edge2" class="edge">
<title>Node1&#45;&gt;Node3</title>
<path fill="none" stroke="black" d="M138.6,-17.28C147.33,-15.9 155.64,-14.59 162.73,-13.46"/>
<polygon fill="black" stroke="black" points="138.2,-13.8 128.87,-18.82 139.3,-20.71 138.2,-13.8"/>
</g>
</g>
</svg>
