<?xml version="1.0" encoding="UTF-8" standalone="no"?>
<!DOCTYPE svg PUBLIC "-//W3C//DTD SVG 1.1//EN"
 "http://www.w3.org/Graphics/SVG/1.1/DTD/svg11.dtd">
<!-- Generated by graphviz version 14.0.2 (20251019.1705)
 -->
<!-- Title: STM32N6XX_NUCLEO COMMON Exported Functions Pages: 1 -->
<svg width="594pt" height="90pt"
 viewBox="0.00 0.00 594.00 90.00" xmlns="http://www.w3.org/2000/svg" xmlns:xlink="http://www.w3.org/1999/xlink">
<g id="graph0" class="graph" transform="scale(1 1) rotate(0) translate(4 86)">
<title>STM32N6XX_NUCLEO COMMON Exported Functions</title>
<!-- Node2 -->
<g id="Node000002" class="node">
<title>Node2</title>
<g id="a_Node000002"><a xlink:href="group___s_t_m32_n6_x_x___n_u_c_l_e_o___c_o_m_m_o_n.html" target="_top" xlink:title="This file provides set of firmware functions to manage Leds and push&#45;button available on STM32N6xx&#45;Nu...">
<polygon fill="white" stroke="#666666" points="170.5,-51 0,-51 0,-31 170.5,-31 170.5,-51"/>
<text xml:space="preserve" text-anchor="middle" x="85.25" y="-37.5" font-family="Helvetica,sans-Serif" font-size="10.00">STM32N6XX_NUCLEO COMMON</text>
</a>
</g>
</g>
<!-- Node1 -->
<g id="Node000001" class="node">
<title>Node1</title>
<g id="a_Node000001"><a xlink:title=" ">
<polygon fill="#999999" stroke="#666666" points="377,-57 206.5,-57 206.5,-25 377,-25 377,-57"/>
<text xml:space="preserve" text-anchor="start" x="214.5" y="-43.5" font-family="Helvetica,sans-Serif" font-size="10.00">STM32N6XX_NUCLEO COMMON</text>
<text xml:space="preserve" text-anchor="middle" x="291.75" y="-31.5" font-family="Helvetica,sans-Serif" font-size="10.00"> Exported Functions</text>
</a>
</g>
</g>
<!-- Node2&#45;&gt;Node1 -->
<g id="edge1" class="edge">
<title>Node2&#45;&gt;Node1</title>
<path fill="none" stroke="black" d="M182.17,-41C190.18,-41 198.24,-41 206.16,-41"/>
<polygon fill="black" stroke="black" points="182.42,-37.5 172.42,-41 182.42,-44.5 182.42,-37.5"/>
</g>
<!-- Node4 -->
<g id="Node000004" class="node">
<title>Node4</title>
<g id="a_Node000004"><a xlink:href="group___s_t_m32_n6_x_x___n_u_c_l_e_o___c_o_m_m_o_n___b_u_t_t_o_n___functions.html" target="_top" xlink:title=" ">
<polygon fill="white" stroke="#666666" points="585.75,-82 413,-82 413,-50 585.75,-50 585.75,-82"/>
<text xml:space="preserve" text-anchor="start" x="421" y="-68.5" font-family="Helvetica,sans-Serif" font-size="10.00">STM32N6XX_NUCLEO_COMMON</text>
<text xml:space="preserve" text-anchor="middle" x="499.38" y="-56.5" font-family="Helvetica,sans-Serif" font-size="10.00"> BUTTON Functions</text>
</a>
</g>
</g>
<!-- Node1&#45;&gt;Node4 -->
<g id="edge3" class="edge">
<title>Node1&#45;&gt;Node4</title>
<path fill="none" stroke="black" d="M388.53,-52.65C396.53,-53.62 404.59,-54.6 412.51,-55.56"/>
<polygon fill="black" stroke="black" points="389.13,-49.19 378.78,-51.46 388.28,-56.14 389.13,-49.19"/>
</g>
<!-- Node3 -->
<g id="Node000003" class="node">
<title>Node3</title>
<g id="a_Node000003"><a xlink:href="group___s_t_m32_n6_x_x___n_u_c_l_e_o___c_o_m_m_o_n___l_e_d___functions.html" target="_top" xlink:title=" ">
<polygon fill="white" stroke="#666666" points="584.62,-32 414.12,-32 414.12,0 584.62,0 584.62,-32"/>
<text xml:space="preserve" text-anchor="start" x="422.12" y="-18.5" font-family="Helvetica,sans-Serif" font-size="10.00">STM32N6XX_NUCLEO COMMON</text>
<text xml:space="preserve" text-anchor="middle" x="499.38" y="-6.5" font-family="Helvetica,sans-Serif" font-size="10.00"> LED Functions</text>
</a>
</g>
</g>
<!-- Node1&#45;&gt;Node3 -->
<g id="edge2" class="edge">
<title>Node1&#45;&gt;Node3</title>
<path fill="none" stroke="black" d="M388.68,-29.34C397.08,-28.32 405.54,-27.29 413.85,-26.28"/>
<polygon fill="black" stroke="black" points="388.28,-25.86 378.78,-30.54 389.13,-32.81 388.28,-25.86"/>
</g>
</g>
</svg>
