<?xml version="1.0" encoding="UTF-8" standalone="no"?>
<!DOCTYPE svg PUBLIC "-//W3C//DTD SVG 1.1//EN"
 "http://www.w3.org/Graphics/SVG/1.1/DTD/svg11.dtd">
<!-- Generated by graphviz version 14.0.2 (20251019.1705)
 -->
<!-- Title: BSP_XSPI_NOR_ConfigFlash Pages: 1 -->
<svg width="457pt" height="66pt"
 viewBox="0.00 0.00 457.00 66.00" xmlns="http://www.w3.org/2000/svg" xmlns:xlink="http://www.w3.org/1999/xlink">
<g id="graph0" class="graph" transform="scale(1 1) rotate(0) translate(4 62)">
<title>BSP_XSPI_NOR_ConfigFlash</title>
<!-- Node1 -->
<g id="Node000001" class="node">
<title>Node1</title>
<g id="a_Node000001"><a xlink:title="Set Flash to desired Interface mode. And this instance becomes current instance. If current instance ...">
<polygon fill="#999999" stroke="#666666" points="449.25,-39 299,-39 299,-19 449.25,-19 449.25,-39"/>
<text xml:space="preserve" text-anchor="middle" x="374.12" y="-25.5" font-family="Helvetica,sans-Serif" font-size="10.00">BSP_XSPI_NOR_ConfigFlash</text>
</a>
</g>
</g>
<!-- Node2 -->
<g id="Node000002" class="node">
<title>Node2</title>
<g id="a_Node000002"><a xlink:href="group___s_t_m32_n6_x_x___n_u_c_l_e_o___x_s_p_i___n_o_r___exported___functions.html#ga1d85a26b27f6fc0610894c158845cff0" target="_top" xlink:title="Initializes the XSPI interface.">
<polygon fill="white" stroke="#666666" points="256.25,-58 145,-58 145,-38 256.25,-38 256.25,-58"/>
<text xml:space="preserve" text-anchor="middle" x="200.62" y="-44.5" font-family="Helvetica,sans-Serif" font-size="10.00">BSP_XSPI_NOR_Init</text>
</a>
</g>
</g>
<!-- Node1&#45;&gt;Node2 -->
<g id="edge1_Node000001_Node000002" class="edge">
<title>Node1&#45;&gt;Node2</title>
<g id="a_edge1_Node000001_Node000002"><a xlink:title=" ">
<path fill="none" stroke="#63b8ff" d="M287.51,-38.48C276.99,-39.65 266.47,-40.82 256.57,-41.91"/>
<polygon fill="#63b8ff" stroke="#63b8ff" points="287.84,-41.97 297.4,-37.39 287.07,-35.01 287.84,-41.97"/>
</a>
</g>
</g>
<!-- Node4 -->
<g id="Node000004" class="node">
<title>Node4</title>
<g id="a_Node000004"><a xlink:href="xspi__nor_8c.html#a4e20ac71236d17401ff623d0ad01c73f" target="_top" xlink:title="Configure flash interface mode.">
<polygon fill="white" stroke="#666666" points="263,-20 138.25,-20 138.25,0 263,0 263,-20"/>
<text xml:space="preserve" text-anchor="middle" x="200.62" y="-6.5" font-family="Helvetica,sans-Serif" font-size="10.00">XSPI_NOR_ConfigFlash</text>
</a>
</g>
</g>
<!-- Node1&#45;&gt;Node4 -->
<g id="edge3_Node000001_Node000004" class="edge">
<title>Node1&#45;&gt;Node4</title>
<g id="a_edge3_Node000001_Node000004"><a xlink:title=" ">
<path fill="none" stroke="#63b8ff" d="M287.72,-19.54C279.5,-18.63 271.28,-17.72 263.35,-16.84"/>
<polygon fill="#63b8ff" stroke="#63b8ff" points="287.07,-22.99 297.4,-20.61 287.84,-16.03 287.07,-22.99"/>
</a>
</g>
</g>
<!-- Node3 -->
<g id="Node000003" class="node">
<title>Node3</title>
<g id="a_Node000003"><a xlink:href="xspi__nor_8c.html#aecd84e9f4d3be12e230d05cb6aba364c" target="_top" xlink:title="Initialize XSPI2 NOR Flash in Octal DTR Mode.">
<polygon fill="white" stroke="#666666" points="102.25,-58 0,-58 0,-38 102.25,-38 102.25,-58"/>
<text xml:space="preserve" text-anchor="middle" x="51.12" y="-44.5" font-family="Helvetica,sans-Serif" font-size="10.00">XSPI_NOR_Init_All</text>
</a>
</g>
</g>
<!-- Node2&#45;&gt;Node3 -->
<g id="edge2_Node000002_Node000003" class="edge">
<title>Node2&#45;&gt;Node3</title>
<g id="a_edge2_Node000002_Node000003"><a xlink:title=" ">
<path fill="none" stroke="#63b8ff" d="M133.25,-48C122.99,-48 112.54,-48 102.71,-48"/>
<polygon fill="#63b8ff" stroke="#63b8ff" points="133.19,-51.5 143.19,-48 133.19,-44.5 133.19,-51.5"/>
</a>
</g>
</g>
</g>
</svg>
