<?xml version="1.0" encoding="UTF-8" standalone="no"?>
<!DOCTYPE svg PUBLIC "-//W3C//DTD SVG 1.1//EN"
 "http://www.w3.org/Graphics/SVG/1.1/DTD/svg11.dtd">
<!-- Generated by graphviz version 14.0.2 (20251019.1705)
 -->
<!-- Title: MX_XSPI_NOR_Init Pages: 1 -->
<svg width="400pt" height="28pt"
 viewBox="0.00 0.00 400.00 28.00" xmlns="http://www.w3.org/2000/svg" xmlns:xlink="http://www.w3.org/1999/xlink">
<g id="graph0" class="graph" transform="scale(1 1) rotate(0) translate(4 24)">
<title>MX_XSPI_NOR_Init</title>
<!-- Node1 -->
<g id="Node000001" class="node">
<title>Node1</title>
<g id="a_Node000001"><a xlink:title="Initializes the XSPI interface.">
<polygon fill="#999999" stroke="#666666" points="391.5,-20 285.5,-20 285.5,0 391.5,0 391.5,-20"/>
<text xml:space="preserve" text-anchor="middle" x="338.5" y="-6.5" font-family="Helvetica,sans-Serif" font-size="10.00">MX_XSPI_NOR_Init</text>
</a>
</g>
</g>
<!-- Node2 -->
<g id="Node000002" class="node">
<title>Node2</title>
<g id="a_Node000002"><a xlink:href="group___s_t_m32_n6_x_x___n_u_c_l_e_o___x_s_p_i___n_o_r___exported___functions.html#ga1d85a26b27f6fc0610894c158845cff0" target="_top" xlink:title="Initializes the XSPI interface.">
<polygon fill="white" stroke="#666666" points="249.5,-20 138.25,-20 138.25,0 249.5,0 249.5,-20"/>
<text xml:space="preserve" text-anchor="middle" x="193.88" y="-6.5" font-family="Helvetica,sans-Serif" font-size="10.00">BSP_XSPI_NOR_Init</text>
</a>
</g>
</g>
<!-- Node1&#45;&gt;Node2 -->
<g id="edge1_Node000001_Node000002" class="edge">
<title>Node1&#45;&gt;Node2</title>
<g id="a_edge1_Node000001_Node000002"><a xlink:title=" ">
<path fill="none" stroke="#63b8ff" d="M273.87,-10C265.76,-10 257.51,-10 249.56,-10"/>
<polygon fill="#63b8ff" stroke="#63b8ff" points="273.69,-13.5 283.69,-10 273.69,-6.5 273.69,-13.5"/>
</a>
</g>
</g>
<!-- Node3 -->
<g id="Node000003" class="node">
<title>Node3</title>
<g id="a_Node000003"><a xlink:href="xspi__nor_8c.html#aecd84e9f4d3be12e230d05cb6aba364c" target="_top" xlink:title="Initialize XSPI2 NOR Flash in Octal DTR Mode.">
<polygon fill="white" stroke="#666666" points="102.25,-20 0,-20 0,0 102.25,0 102.25,-20"/>
<text xml:space="preserve" text-anchor="middle" x="51.12" y="-6.5" font-family="Helvetica,sans-Serif" font-size="10.00">XSPI_NOR_Init_All</text>
</a>
</g>
</g>
<!-- Node2&#45;&gt;Node3 -->
<g id="edge2_Node000002_Node000003" class="edge">
<title>Node2&#45;&gt;Node3</title>
<g id="a_edge2_Node000002_Node000003"><a xlink:title=" ">
<path fill="none" stroke="#63b8ff" d="M126.64,-10C118.5,-10 110.28,-10 102.43,-10"/>
<polygon fill="#63b8ff" stroke="#63b8ff" points="126.54,-13.5 136.54,-10 126.54,-6.5 126.54,-13.5"/>
</a>
</g>
</g>
</g>
</svg>
