<?xml version="1.0" encoding="UTF-8" standalone="no"?>
<!DOCTYPE svg PUBLIC "-//W3C//DTD SVG 1.1//EN"
 "http://www.w3.org/Graphics/SVG/1.1/DTD/svg11.dtd">
<!-- Generated by graphviz version 14.0.2 (20251019.1705)
 -->
<!-- Title: XSPI Pages: 1 -->
<svg width="397pt" height="332pt"
 viewBox="0.00 0.00 397.00 332.00" xmlns="http://www.w3.org/2000/svg" xmlns:xlink="http://www.w3.org/1999/xlink">
<g id="graph0" class="graph" transform="scale(1 1) rotate(0) translate(4 328)">
<title>XSPI</title>
<!-- Node2 -->
<g id="Node000002" class="node">
<title>Node2</title>
<g id="a_Node000002"><a xlink:href="group___s_t_m32_n6_x_x___n_u_c_l_e_o.html" target="_top" xlink:title=" ">
<polygon fill="white" stroke="#666666" points="121,-172 0,-172 0,-152 121,-152 121,-172"/>
<text xml:space="preserve" text-anchor="middle" x="60.5" y="-158.5" font-family="Helvetica,sans-Serif" font-size="10.00">STM32N6XX_NUCLEO</text>
</a>
</g>
</g>
<!-- Node1 -->
<g id="Node000001" class="node">
<title>Node1</title>
<g id="a_Node000001"><a xlink:title=" ">
<polygon fill="#999999" stroke="#666666" points="196.25,-172 157,-172 157,-152 196.25,-152 196.25,-172"/>
<text xml:space="preserve" text-anchor="middle" x="176.62" y="-158.5" font-family="Helvetica,sans-Serif" font-size="10.00">XSPI</text>
</a>
</g>
</g>
<!-- Node2&#45;&gt;Node1 -->
<g id="edge1" class="edge">
<title>Node2&#45;&gt;Node1</title>
<path fill="none" stroke="black" d="M132.55,-162C141.34,-162 149.66,-162 156.6,-162"/>
<polygon fill="black" stroke="black" points="132.75,-158.5 122.75,-162 132.75,-165.5 132.75,-158.5"/>
</g>
<!-- Node7 -->
<g id="Node000007" class="node">
<title>Node7</title>
<g id="a_Node000007"><a xlink:href="group___s_t_m32_n6_x_x___n_u_c_l_e_o___x_s_p_i___exported___constants.html" target="_top" xlink:title=" ">
<polygon fill="white" stroke="#666666" points="375.38,-324 246.12,-324 246.12,-304 375.38,-304 375.38,-324"/>
<text xml:space="preserve" text-anchor="middle" x="310.75" y="-310.5" font-family="Helvetica,sans-Serif" font-size="10.00">XSPI Exported Constants</text>
</a>
</g>
</g>
<!-- Node1&#45;&gt;Node7 -->
<g id="edge6" class="edge">
<title>Node1&#45;&gt;Node7</title>
<path fill="none" stroke="black" d="M180.4,-183.63C185.38,-213.26 198.65,-266.07 232.25,-295 236.34,-298.52 240.99,-301.42 245.92,-303.79"/>
<polygon fill="black" stroke="black" points="183.9,-183.36 178.96,-173.99 176.98,-184.39 183.9,-183.36"/>
</g>
<!-- Node5 -->
<g id="Node000005" class="node">
<title>Node5</title>
<g id="a_Node000005"><a xlink:href="group___s_t_m32_n6_x_x___n_u_c_l_e_o___x_s_p_i___exported___types.html" target="_top" xlink:title=" ">
<polygon fill="white" stroke="#666666" points="365.62,-286 255.88,-286 255.88,-266 365.62,-266 365.62,-286"/>
<text xml:space="preserve" text-anchor="middle" x="310.75" y="-272.5" font-family="Helvetica,sans-Serif" font-size="10.00">XSPI Exported Types</text>
</a>
</g>
</g>
<!-- Node1&#45;&gt;Node5 -->
<g id="edge4" class="edge">
<title>Node1&#45;&gt;Node5</title>
<path fill="none" stroke="black" d="M184.22,-183.19C192.12,-205.01 207.49,-238.38 232.25,-257 239.12,-262.16 247.2,-265.94 255.51,-268.7"/>
<polygon fill="black" stroke="black" points="187.59,-182.21 181.07,-173.85 180.95,-184.45 187.59,-182.21"/>
</g>
<!-- Node8 -->
<g id="Node000008" class="node">
<title>Node8</title>
<g id="a_Node000008"><a xlink:href="group___s_t_m32_n6_x_x___n_u_c_l_e_o___x_s_p_i___n_o_r___exported___constants.html" target="_top" xlink:title=" ">
<polygon fill="white" stroke="#666666" points="389.25,-248 232.25,-248 232.25,-228 389.25,-228 389.25,-248"/>
<text xml:space="preserve" text-anchor="middle" x="310.75" y="-234.5" font-family="Helvetica,sans-Serif" font-size="10.00">XSPI_NOR Exported Constants</text>
</a>
</g>
</g>
<!-- Node1&#45;&gt;Node8 -->
<g id="edge7" class="edge">
<title>Node1&#45;&gt;Node8</title>
<path fill="none" stroke="black" d="M191.16,-180.96C201.14,-193.57 215.79,-209.5 232.25,-219 238.25,-222.46 244.86,-225.3 251.62,-227.62"/>
<polygon fill="black" stroke="black" points="194.22,-179.21 185.4,-173.34 188.64,-183.43 194.22,-179.21"/>
</g>
<!-- Node10 -->
<g id="Node000010" class="node">
<title>Node10</title>
<g id="a_Node000010"><a xlink:href="group___s_t_m32_n6_x_x___n_u_c_l_e_o___x_s_p_i___n_o_r___exported___functions.html" target="_top" xlink:title=" ">
<polygon fill="white" stroke="#666666" points="388.12,-210 233.38,-210 233.38,-190 388.12,-190 388.12,-210"/>
<text xml:space="preserve" text-anchor="middle" x="310.75" y="-196.5" font-family="Helvetica,sans-Serif" font-size="10.00">XSPI_NOR Exported Functions</text>
</a>
</g>
</g>
<!-- Node1&#45;&gt;Node10 -->
<g id="edge9" class="edge">
<title>Node1&#45;&gt;Node10</title>
<path fill="none" stroke="black" d="M207.43,-172.94C215.44,-175.72 224.14,-178.6 232.25,-181 242.48,-184.03 253.57,-186.95 264.07,-189.56"/>
<polygon fill="black" stroke="black" points="208.72,-169.68 198.12,-169.63 206.38,-176.28 208.72,-169.68"/>
</g>
<!-- Node6 -->
<g id="Node000006" class="node">
<title>Node6</title>
<g id="a_Node000006"><a xlink:href="group___s_t_m32_n6_x_x___n_u_c_l_e_o___x_s_p_i___n_o_r___exported___types.html" target="_top" xlink:title=" ">
<polygon fill="white" stroke="#666666" points="379.5,-172 242,-172 242,-152 379.5,-152 379.5,-172"/>
<text xml:space="preserve" text-anchor="middle" x="310.75" y="-158.5" font-family="Helvetica,sans-Serif" font-size="10.00">XSPI_NOR Exported Types</text>
</a>
</g>
</g>
<!-- Node1&#45;&gt;Node6 -->
<g id="edge5" class="edge">
<title>Node1&#45;&gt;Node6</title>
<path fill="none" stroke="black" d="M208.01,-162C218.13,-162 229.84,-162 241.65,-162"/>
<polygon fill="black" stroke="black" points="208.07,-158.5 198.07,-162 208.07,-165.5 208.07,-158.5"/>
</g>
<!-- Node9 -->
<g id="Node000009" class="node">
<title>Node9</title>
<g id="a_Node000009"><a xlink:href="group___s_t_m32_n6_x_x___n_u_c_l_e_o___x_s_p_i___n_o_r___exported___variables.html" target="_top" xlink:title=" ">
<polygon fill="white" stroke="#666666" points="386.62,-134 234.88,-134 234.88,-114 386.62,-114 386.62,-134"/>
<text xml:space="preserve" text-anchor="middle" x="310.75" y="-120.5" font-family="Helvetica,sans-Serif" font-size="10.00">XSPI_NOR Exported Variables</text>
</a>
</g>
</g>
<!-- Node1&#45;&gt;Node9 -->
<g id="edge8" class="edge">
<title>Node1&#45;&gt;Node9</title>
<path fill="none" stroke="black" d="M207.43,-151.06C215.44,-148.28 224.14,-145.4 232.25,-143 242.48,-139.97 253.57,-137.05 264.07,-134.44"/>
<polygon fill="black" stroke="black" points="206.38,-147.72 198.12,-154.37 208.72,-154.32 206.38,-147.72"/>
</g>
<!-- Node4 -->
<g id="Node000004" class="node">
<title>Node4</title>
<g id="a_Node000004"><a xlink:href="group___s_t_m32_n6_x_x___n_u_c_l_e_o___x_s_p_i___n_o_r___private___functions.html" target="_top" xlink:title=" ">
<polygon fill="white" stroke="#666666" points="384,-96 237.5,-96 237.5,-76 384,-76 384,-96"/>
<text xml:space="preserve" text-anchor="middle" x="310.75" y="-82.5" font-family="Helvetica,sans-Serif" font-size="10.00">XSPI_NOR Private Functions</text>
</a>
</g>
</g>
<!-- Node1&#45;&gt;Node4 -->
<g id="edge3" class="edge">
<title>Node1&#45;&gt;Node4</title>
<path fill="none" stroke="black" d="M191.16,-143.04C201.14,-130.43 215.79,-114.5 232.25,-105 238.25,-101.54 244.86,-98.7 251.62,-96.38"/>
<polygon fill="black" stroke="black" points="188.64,-140.57 185.4,-150.66 194.22,-144.79 188.64,-140.57"/>
</g>
<!-- Node3 -->
<g id="Node000003" class="node">
<title>Node3</title>
<g id="a_Node000003"><a xlink:href="group___s_t_m32_n6_x_x___n_u_c_l_e_o___x_s_p_i___n_o_r___private___variables.html" target="_top" xlink:title=" ">
<polygon fill="white" stroke="#666666" points="382.5,-58 239,-58 239,-38 382.5,-38 382.5,-58"/>
<text xml:space="preserve" text-anchor="middle" x="310.75" y="-44.5" font-family="Helvetica,sans-Serif" font-size="10.00">XSPI_NOR Private Variables</text>
</a>
</g>
</g>
<!-- Node1&#45;&gt;Node3 -->
<g id="edge2" class="edge">
<title>Node1&#45;&gt;Node3</title>
<path fill="none" stroke="black" d="M184.22,-140.81C192.12,-118.99 207.49,-85.62 232.25,-67 236.79,-63.59 241.86,-60.78 247.18,-58.47"/>
<polygon fill="black" stroke="black" points="180.95,-139.55 181.07,-150.15 187.59,-141.79 180.95,-139.55"/>
</g>
<!-- Node11 -->
<g id="Node000011" class="node">
<title>Node11</title>
<g id="a_Node000011"><a xlink:href="group___x_s_p_i___n_o_r___private___functions.html" target="_top" xlink:title=" ">
<polygon fill="white" stroke="#666666" points="386.25,-20 235.25,-20 235.25,0 386.25,0 386.25,-20"/>
<text xml:space="preserve" text-anchor="middle" x="310.75" y="-6.5" font-family="Helvetica,sans-Serif" font-size="10.00">XSPI_NOR_Private_Functions</text>
</a>
</g>
</g>
<!-- Node1&#45;&gt;Node11 -->
<g id="edge10" class="edge">
<title>Node1&#45;&gt;Node11</title>
<path fill="none" stroke="black" d="M180.4,-140.37C185.38,-110.74 198.65,-57.93 232.25,-29 236.24,-25.57 240.75,-22.73 245.55,-20.4"/>
<polygon fill="black" stroke="black" points="176.98,-139.61 178.96,-150.01 183.9,-140.64 176.98,-139.61"/>
</g>
</g>
</svg>
