<?xml version="1.0" encoding="UTF-8" standalone="no"?>
<!DOCTYPE svg PUBLIC "-//W3C//DTD SVG 1.1//EN"
 "http://www.w3.org/Graphics/SVG/1.1/DTD/svg11.dtd">
<!-- Generated by graphviz version 14.0.2 (20251019.1705)
 -->
<!-- Title: BSP_XSPI_NOR_ConfigFlash Pages: 1 -->
<svg width="339pt" height="104pt"
 viewBox="0.00 0.00 339.00 104.00" xmlns="http://www.w3.org/2000/svg" xmlns:xlink="http://www.w3.org/1999/xlink">
<g id="graph0" class="graph" transform="scale(1 1) rotate(0) translate(4 100)">
<title>BSP_XSPI_NOR_ConfigFlash</title>
<!-- Node1 -->
<g id="Node000001" class="node">
<title>Node1</title>
<g id="a_Node000001"><a xlink:title="Set Flash to desired Interface mode. And this instance becomes current instance. If current instance ...">
<polygon fill="#999999" stroke="#666666" points="150.25,-58 0,-58 0,-38 150.25,-38 150.25,-58"/>
<text xml:space="preserve" text-anchor="middle" x="75.12" y="-44.5" font-family="Helvetica,sans-Serif" font-size="10.00">BSP_XSPI_NOR_ConfigFlash</text>
</a>
</g>
</g>
<!-- Node2 -->
<g id="Node000002" class="node">
<title>Node2</title>
<g id="a_Node000002"><a xlink:href="group___s_t_m32_n6_x_x___n_u_c_l_e_o___x_s_p_i___n_o_r___private___functions.html#ga6c2174b3588e28db4a2f34bb26582603" target="_top" xlink:title="This function enables the octal DTR mode of the memory.">
<polygon fill="white" stroke="#666666" points="330.5,-96 186.25,-96 186.25,-76 330.5,-76 330.5,-96"/>
<text xml:space="preserve" text-anchor="middle" x="258.38" y="-82.5" font-family="Helvetica,sans-Serif" font-size="10.00">XSPI_NOR_EnterDOPIMode</text>
</a>
</g>
</g>
<!-- Node1&#45;&gt;Node2 -->
<g id="edge1_Node000001_Node000002" class="edge">
<title>Node1&#45;&gt;Node2</title>
<g id="a_edge1_Node000001_Node000002"><a xlink:title=" ">
<path fill="none" stroke="#63b8ff" d="M126.13,-58.48C147.92,-63.05 173.67,-68.45 196.55,-73.25"/>
<polygon fill="#63b8ff" stroke="#63b8ff" points="195.54,-76.61 206.05,-75.24 196.98,-69.76 195.54,-76.61"/>
</a>
</g>
</g>
<!-- Node3 -->
<g id="Node000003" class="node">
<title>Node3</title>
<g id="a_Node000003"><a xlink:href="group___s_t_m32_n6_x_x___n_u_c_l_e_o___x_s_p_i___n_o_r___private___functions.html#ga4d2f380862fd1667eca4d8cabd7681ec" target="_top" xlink:title="This function enables the octal STR mode of the memory.">
<polygon fill="white" stroke="#666666" points="330.12,-58 186.62,-58 186.62,-38 330.12,-38 330.12,-58"/>
<text xml:space="preserve" text-anchor="middle" x="258.38" y="-44.5" font-family="Helvetica,sans-Serif" font-size="10.00">XSPI_NOR_EnterSOPIMode</text>
</a>
</g>
</g>
<!-- Node1&#45;&gt;Node3 -->
<g id="edge2_Node000001_Node000003" class="edge">
<title>Node1&#45;&gt;Node3</title>
<g id="a_edge2_Node000001_Node000003"><a xlink:title=" ">
<path fill="none" stroke="#63b8ff" d="M150.63,-48C158.66,-48 166.87,-48 174.98,-48"/>
<polygon fill="#63b8ff" stroke="#63b8ff" points="174.86,-51.5 184.86,-48 174.85,-44.5 174.86,-51.5"/>
</a>
</g>
</g>
<!-- Node4 -->
<g id="Node000004" class="node">
<title>Node4</title>
<g id="a_Node000004"><a xlink:href="group___s_t_m32_n6_x_x___n_u_c_l_e_o___x_s_p_i___n_o_r___private___functions.html#ga71270f202f993c42c59c9d419ac20bf9" target="_top" xlink:title="This function disables the octal DTR or STR mode of the memory.">
<polygon fill="white" stroke="#666666" points="323.75,-20 193,-20 193,0 323.75,0 323.75,-20"/>
<text xml:space="preserve" text-anchor="middle" x="258.38" y="-6.5" font-family="Helvetica,sans-Serif" font-size="10.00">XSPI_NOR_ExitOPIMode</text>
</a>
</g>
</g>
<!-- Node1&#45;&gt;Node4 -->
<g id="edge3_Node000001_Node000004" class="edge">
<title>Node1&#45;&gt;Node4</title>
<g id="a_edge3_Node000001_Node000004"><a xlink:title=" ">
<path fill="none" stroke="#63b8ff" d="M126.13,-37.52C147.92,-32.95 173.67,-27.55 196.55,-22.75"/>
<polygon fill="#63b8ff" stroke="#63b8ff" points="196.98,-26.24 206.05,-20.76 195.54,-19.39 196.98,-26.24"/>
</a>
</g>
</g>
</g>
</svg>
