<?xml version="1.0" encoding="UTF-8" standalone="no"?>
<!DOCTYPE svg PUBLIC "-//W3C//DTD SVG 1.1//EN"
 "http://www.w3.org/Graphics/SVG/1.1/DTD/svg11.dtd">
<!-- Generated by graphviz version 14.0.2 (20251019.1705)
 -->
<!-- Title: STM32N6xx_System Pages: 1 -->
<svg width="384pt" height="340pt"
 viewBox="0.00 0.00 384.00 340.00" xmlns="http://www.w3.org/2000/svg" xmlns:xlink="http://www.w3.org/1999/xlink">
<g id="graph0" class="graph" transform="scale(1 1) rotate(0) translate(4 336)">
<title>STM32N6xx_System</title>
<!-- Node2 -->
<g id="Node000002" class="node">
<title>Node2</title>
<g id="a_Node000002"><a xlink:href="group___c_m_s_i_s.html" target="_top" xlink:title=" ">
<polygon fill="white" stroke="#666666" points="48.25,-176 0,-176 0,-156 48.25,-156 48.25,-176"/>
<text xml:space="preserve" text-anchor="middle" x="24.12" y="-162.5" font-family="Helvetica,sans-Serif" font-size="10.00">CMSIS</text>
</a>
</g>
</g>
<!-- Node1 -->
<g id="Node000001" class="node">
<title>Node1</title>
<g id="a_Node000001"><a xlink:title=" ">
<polygon fill="#999999" stroke="#666666" points="194,-176 84.25,-176 84.25,-156 194,-156 194,-176"/>
<text xml:space="preserve" text-anchor="middle" x="139.12" y="-162.5" font-family="Helvetica,sans-Serif" font-size="10.00">STM32N6xx_System</text>
</a>
</g>
</g>
<!-- Node2&#45;&gt;Node1 -->
<g id="edge1" class="edge">
<title>Node2&#45;&gt;Node1</title>
<path fill="none" stroke="black" d="M59.92,-166C67.55,-166 75.8,-166 83.98,-166"/>
<polygon fill="black" stroke="black" points="60.05,-162.5 50.05,-166 60.05,-169.5 60.05,-162.5"/>
</g>
<!-- Node5 -->
<g id="Node000005" class="node">
<title>Node5</title>
<g id="a_Node000005"><a xlink:href="group___s_t_m32_n6xx___system___private___defines.html" target="_top" xlink:title=" ">
<polygon fill="white" stroke="#666666" points="375.75,-332 230,-332 230,-300 375.75,-300 375.75,-332"/>
<text xml:space="preserve" text-anchor="start" x="238" y="-318.5" font-family="Helvetica,sans-Serif" font-size="10.00">STM32N6xx_System_Private</text>
<text xml:space="preserve" text-anchor="middle" x="302.88" y="-306.5" font-family="Helvetica,sans-Serif" font-size="10.00">_Defines</text>
</a>
</g>
</g>
<!-- Node1&#45;&gt;Node5 -->
<g id="edge4" class="edge">
<title>Node1&#45;&gt;Node5</title>
<path fill="none" stroke="black" d="M149.77,-186.44C163.74,-213.97 192.16,-262.76 230,-291 234.34,-294.24 239.14,-297.08 244.13,-299.57"/>
<polygon fill="black" stroke="black" points="153.04,-185.17 145.49,-177.74 146.76,-188.26 153.04,-185.17"/>
</g>
<!-- Node8 -->
<g id="Node000008" class="node">
<title>Node8</title>
<g id="a_Node000008"><a xlink:href="group___s_t_m32_n6xx___system___private___function_prototypes.html" target="_top" xlink:title=" ">
<polygon fill="white" stroke="#666666" points="375.75,-282 230,-282 230,-250 375.75,-250 375.75,-282"/>
<text xml:space="preserve" text-anchor="start" x="238" y="-268.5" font-family="Helvetica,sans-Serif" font-size="10.00">STM32N6xx_System_Private</text>
<text xml:space="preserve" text-anchor="middle" x="302.88" y="-256.5" font-family="Helvetica,sans-Serif" font-size="10.00">_FunctionPrototypes</text>
</a>
</g>
</g>
<!-- Node1&#45;&gt;Node8 -->
<g id="edge7" class="edge">
<title>Node1&#45;&gt;Node8</title>
<path fill="none" stroke="black" d="M157.98,-184.3C175.13,-201 202.44,-225.4 230,-241 235.63,-244.19 241.74,-247.07 247.94,-249.65"/>
<polygon fill="black" stroke="black" points="160.62,-181.99 151.06,-177.42 155.68,-186.95 160.62,-181.99"/>
</g>
<!-- Node9 -->
<g id="Node000009" class="node">
<title>Node9</title>
<g id="a_Node000009"><a xlink:href="group___s_t_m32_n6xx___system___private___functions.html" target="_top" xlink:title=" ">
<polygon fill="white" stroke="#666666" points="375.75,-232 230,-232 230,-200 375.75,-200 375.75,-232"/>
<text xml:space="preserve" text-anchor="start" x="238" y="-218.5" font-family="Helvetica,sans-Serif" font-size="10.00">STM32N6xx_System_Private</text>
<text xml:space="preserve" text-anchor="middle" x="302.88" y="-206.5" font-family="Helvetica,sans-Serif" font-size="10.00">_Functions</text>
</a>
</g>
</g>
<!-- Node1&#45;&gt;Node9 -->
<g id="edge8" class="edge">
<title>Node1&#45;&gt;Node9</title>
<path fill="none" stroke="black" d="M184.89,-179.84C204.62,-185.94 227.97,-193.15 248.59,-199.53"/>
<polygon fill="black" stroke="black" points="186.07,-176.54 175.48,-176.93 184,-183.23 186.07,-176.54"/>
</g>
<!-- Node3 -->
<g id="Node000003" class="node">
<title>Node3</title>
<g id="a_Node000003"><a xlink:href="group___s_t_m32_n6xx___system___private___includes.html" target="_top" xlink:title=" ">
<polygon fill="white" stroke="#666666" points="375.75,-182 230,-182 230,-150 375.75,-150 375.75,-182"/>
<text xml:space="preserve" text-anchor="start" x="238" y="-168.5" font-family="Helvetica,sans-Serif" font-size="10.00">STM32N6xx_System_Private</text>
<text xml:space="preserve" text-anchor="middle" x="302.88" y="-156.5" font-family="Helvetica,sans-Serif" font-size="10.00">_Includes</text>
</a>
</g>
</g>
<!-- Node1&#45;&gt;Node3 -->
<g id="edge2" class="edge">
<title>Node1&#45;&gt;Node3</title>
<path fill="none" stroke="black" d="M205.76,-166C213.62,-166 221.67,-166 229.61,-166"/>
<polygon fill="black" stroke="black" points="205.95,-162.5 195.95,-166 205.95,-169.5 205.95,-162.5"/>
</g>
<!-- Node6 -->
<g id="Node000006" class="node">
<title>Node6</title>
<g id="a_Node000006"><a xlink:href="group___s_t_m32_n6xx___system___private___macros.html" target="_top" xlink:title=" ">
<polygon fill="white" stroke="#666666" points="375.75,-132 230,-132 230,-100 375.75,-100 375.75,-132"/>
<text xml:space="preserve" text-anchor="start" x="238" y="-118.5" font-family="Helvetica,sans-Serif" font-size="10.00">STM32N6xx_System_Private</text>
<text xml:space="preserve" text-anchor="middle" x="302.88" y="-106.5" font-family="Helvetica,sans-Serif" font-size="10.00">_Macros</text>
</a>
</g>
</g>
<!-- Node1&#45;&gt;Node6 -->
<g id="edge5" class="edge">
<title>Node1&#45;&gt;Node6</title>
<path fill="none" stroke="black" d="M184.89,-152.16C204.62,-146.06 227.97,-138.85 248.59,-132.47"/>
<polygon fill="black" stroke="black" points="184,-148.77 175.48,-155.07 186.07,-155.46 184,-148.77"/>
</g>
<!-- Node4 -->
<g id="Node000004" class="node">
<title>Node4</title>
<g id="a_Node000004"><a xlink:href="group___s_t_m32_n6xx___system___private___types_definitions.html" target="_top" xlink:title=" ">
<polygon fill="white" stroke="#666666" points="375.75,-82 230,-82 230,-50 375.75,-50 375.75,-82"/>
<text xml:space="preserve" text-anchor="start" x="238" y="-68.5" font-family="Helvetica,sans-Serif" font-size="10.00">STM32N6xx_System_Private</text>
<text xml:space="preserve" text-anchor="middle" x="302.88" y="-56.5" font-family="Helvetica,sans-Serif" font-size="10.00">_TypesDefinitions</text>
</a>
</g>
</g>
<!-- Node1&#45;&gt;Node4 -->
<g id="edge3" class="edge">
<title>Node1&#45;&gt;Node4</title>
<path fill="none" stroke="black" d="M157.98,-147.7C175.13,-131 202.44,-106.6 230,-91 235.63,-87.81 241.74,-84.93 247.94,-82.35"/>
<polygon fill="black" stroke="black" points="155.68,-145.05 151.06,-154.58 160.62,-150.01 155.68,-145.05"/>
</g>
<!-- Node7 -->
<g id="Node000007" class="node">
<title>Node7</title>
<g id="a_Node000007"><a xlink:href="group___s_t_m32_n6xx___system___private___variables.html" target="_top" xlink:title=" ">
<polygon fill="white" stroke="#666666" points="375.75,-32 230,-32 230,0 375.75,0 375.75,-32"/>
<text xml:space="preserve" text-anchor="start" x="238" y="-18.5" font-family="Helvetica,sans-Serif" font-size="10.00">STM32N6xx_System_Private</text>
<text xml:space="preserve" text-anchor="middle" x="302.88" y="-6.5" font-family="Helvetica,sans-Serif" font-size="10.00">_Variables</text>
</a>
</g>
</g>
<!-- Node1&#45;&gt;Node7 -->
<g id="edge6" class="edge">
<title>Node1&#45;&gt;Node7</title>
<path fill="none" stroke="black" d="M149.77,-145.56C163.74,-118.03 192.16,-69.24 230,-41 234.34,-37.76 239.14,-34.92 244.13,-32.43"/>
<polygon fill="black" stroke="black" points="146.76,-143.74 145.49,-154.26 153.04,-146.83 146.76,-143.74"/>
</g>
</g>
</svg>
