<?xml version="1.0" encoding="UTF-8" standalone="no"?>
<!DOCTYPE svg PUBLIC "-//W3C//DTD SVG 1.1//EN"
 "http://www.w3.org/Graphics/SVG/1.1/DTD/svg11.dtd">
<!-- Generated by graphviz version 14.0.2 (20251019.1705)
 -->
<!-- Title: BSP_XSPI_NOR_DisableMemoryMappedMode Pages: 1 -->
<svg width="409pt" height="66pt"
 viewBox="0.00 0.00 409.00 66.00" xmlns="http://www.w3.org/2000/svg" xmlns:xlink="http://www.w3.org/1999/xlink">
<g id="graph0" class="graph" transform="scale(1 1) rotate(0) translate(4 62)">
<title>BSP_XSPI_NOR_DisableMemoryMappedMode</title>
<!-- Node1 -->
<g id="Node000001" class="node">
<title>Node1</title>
<g id="a_Node000001"><a xlink:title="Exit form memory&#45;mapped mode Only 1 Instance can running MMP mode. And it will lock system at this mo...">
<polygon fill="#999999" stroke="#666666" points="401,-45 235,-45 235,-13 401,-13 401,-45"/>
<text xml:space="preserve" text-anchor="start" x="243" y="-31.5" font-family="Helvetica,sans-Serif" font-size="10.00">BSP_XSPI_NOR_DisableMemory</text>
<text xml:space="preserve" text-anchor="middle" x="318" y="-19.5" font-family="Helvetica,sans-Serif" font-size="10.00">MappedMode</text>
</a>
</g>
</g>
<!-- Node2 -->
<g id="Node000002" class="node">
<title>Node2</title>
<g id="a_Node000002"><a xlink:href="group___s_t_m32_n6_x_x___n_u_c_l_e_o___x_s_p_i___n_o_r___exported___functions.html#gabce328b8be2a1a489c20ef1a9ad8a19b" target="_top" xlink:title="De&#45;Initializes the XSPI interface.">
<polygon fill="white" stroke="#666666" points="161.5,-58 37.5,-58 37.5,-38 161.5,-38 161.5,-58"/>
<text xml:space="preserve" text-anchor="middle" x="99.5" y="-44.5" font-family="Helvetica,sans-Serif" font-size="10.00">BSP_XSPI_NOR_DeInit</text>
</a>
</g>
</g>
<!-- Node1&#45;&gt;Node2 -->
<g id="edge1_Node000001_Node000002" class="edge">
<title>Node1&#45;&gt;Node2</title>
<g id="a_edge1_Node000001_Node000002"><a xlink:title=" ">
<path fill="none" stroke="#63b8ff" d="M223.1,-37.24C202.37,-39.06 180.91,-40.94 161.86,-42.62"/>
<polygon fill="#63b8ff" stroke="#63b8ff" points="223.37,-40.73 233.03,-36.37 222.76,-33.76 223.37,-40.73"/>
</a>
</g>
</g>
<!-- Node3 -->
<g id="Node000003" class="node">
<title>Node3</title>
<g id="a_Node000003"><a xlink:href="xspi__nor_8c.html#a284c52cc338232f44f8a4297dacd5bb0" target="_top" xlink:title="Disable memory&#45;mapped mode.">
<polygon fill="white" stroke="#666666" points="199,-20 0,-20 0,0 199,0 199,-20"/>
<text xml:space="preserve" text-anchor="middle" x="99.5" y="-6.5" font-family="Helvetica,sans-Serif" font-size="10.00">XSPI_NOR_DisableMemoryMappedMode</text>
</a>
</g>
</g>
<!-- Node1&#45;&gt;Node3 -->
<g id="edge2_Node000001_Node000003" class="edge">
<title>Node1&#45;&gt;Node3</title>
<g id="a_edge2_Node000001_Node000003"><a xlink:title=" ">
<path fill="none" stroke="#63b8ff" d="M223.13,-20.76C215.28,-20.07 207.33,-19.38 199.44,-18.68"/>
<polygon fill="#63b8ff" stroke="#63b8ff" points="222.76,-24.24 233.03,-21.63 223.37,-17.27 222.76,-24.24"/>
</a>
</g>
</g>
</g>
</svg>
