<?xml version="1.0" encoding="UTF-8" standalone="no"?>
<!DOCTYPE svg PUBLIC "-//W3C//DTD SVG 1.1//EN"
 "http://www.w3.org/Graphics/SVG/1.1/DTD/svg11.dtd">
<!-- Generated by graphviz version 14.0.2 (20251019.1705)
 -->
<!-- Title: BSP_XSPI_NOR_DeInit Pages: 1 -->
<svg width="334pt" height="78pt"
 viewBox="0.00 0.00 334.00 78.00" xmlns="http://www.w3.org/2000/svg" xmlns:xlink="http://www.w3.org/1999/xlink">
<g id="graph0" class="graph" transform="scale(1 1) rotate(0) translate(4 74)">
<title>BSP_XSPI_NOR_DeInit</title>
<!-- Node1 -->
<g id="Node000001" class="node">
<title>Node1</title>
<g id="a_Node000001"><a xlink:title="De&#45;Initializes the XSPI interface.">
<polygon fill="#999999" stroke="#666666" points="124,-42 0,-42 0,-22 124,-22 124,-42"/>
<text xml:space="preserve" text-anchor="middle" x="62" y="-28.5" font-family="Helvetica,sans-Serif" font-size="10.00">BSP_XSPI_NOR_DeInit</text>
</a>
</g>
</g>
<!-- Node2 -->
<g id="Node000002" class="node">
<title>Node2</title>
<g id="a_Node000002"><a xlink:href="group___s_t_m32_n6_x_x___n_u_c_l_e_o___x_s_p_i___n_o_r___exported___functions.html#ga57b0a26b74feca7c41ec735bc2ce35b8" target="_top" xlink:title="Exit form memory&#45;mapped mode Only 1 Instance can running MMP mode. And it will lock system at this mo...">
<polygon fill="white" stroke="#666666" points="326,-70 160,-70 160,-38 326,-38 326,-70"/>
<text xml:space="preserve" text-anchor="start" x="168" y="-56.5" font-family="Helvetica,sans-Serif" font-size="10.00">BSP_XSPI_NOR_DisableMemory</text>
<text xml:space="preserve" text-anchor="middle" x="243" y="-44.5" font-family="Helvetica,sans-Serif" font-size="10.00">MappedMode</text>
</a>
</g>
</g>
<!-- Node1&#45;&gt;Node2 -->
<g id="edge1_Node000001_Node000002" class="edge">
<title>Node1&#45;&gt;Node2</title>
<g id="a_edge1_Node000001_Node000002"><a xlink:title=" ">
<path fill="none" stroke="#63b8ff" d="M124.35,-39.54C132.06,-40.49 140.07,-41.47 148.13,-42.46"/>
<polygon fill="#63b8ff" stroke="#63b8ff" points="147.68,-45.93 158.03,-43.68 148.53,-38.99 147.68,-45.93"/>
</a>
</g>
</g>
<!-- Node3 -->
<g id="Node000003" class="node">
<title>Node3</title>
<g id="a_Node000003"><a xlink:href="group___s_t_m32_n6_x_x___n_u_c_l_e_o___x_s_p_i___n_o_r___private___functions.html#ga93249c92759b4de5694a431000a52f69" target="_top" xlink:title="De&#45;Initializes the XSPI MSP.">
<polygon fill="white" stroke="#666666" points="301.62,-20 184.38,-20 184.38,0 301.62,0 301.62,-20"/>
<text xml:space="preserve" text-anchor="middle" x="243" y="-6.5" font-family="Helvetica,sans-Serif" font-size="10.00">XSPI_NOR_MspDeInit</text>
</a>
</g>
</g>
<!-- Node1&#45;&gt;Node3 -->
<g id="edge2_Node000001_Node000003" class="edge">
<title>Node1&#45;&gt;Node3</title>
<g id="a_edge2_Node000001_Node000003"><a xlink:title=" ">
<path fill="none" stroke="#63b8ff" d="M124.35,-24.46C139.91,-22.55 156.72,-20.48 172.64,-18.52"/>
<polygon fill="#63b8ff" stroke="#63b8ff" points="173.05,-22 182.55,-17.31 172.19,-15.05 173.05,-22"/>
</a>
</g>
</g>
</g>
</svg>
