<?xml version="1.0" encoding="UTF-8" standalone="no"?>
<!DOCTYPE svg PUBLIC "-//W3C//DTD SVG 1.1//EN"
 "http://www.w3.org/Graphics/SVG/1.1/DTD/svg11.dtd">
<!-- Generated by graphviz version 14.0.2 (20251019.1705)
 -->
<!-- Title: BSP_LED_Off Pages: 1 -->
<svg width="216pt" height="66pt"
 viewBox="0.00 0.00 216.00 66.00" xmlns="http://www.w3.org/2000/svg" xmlns:xlink="http://www.w3.org/1999/xlink">
<g id="graph0" class="graph" transform="scale(1 1) rotate(0) translate(4 62)">
<title>BSP_LED_Off</title>
<!-- Node1 -->
<g id="Node000001" class="node">
<title>Node1</title>
<g id="a_Node000001"><a xlink:title="Turn selected LED Off.">
<polygon fill="#999999" stroke="#666666" points="207.5,-39 128.5,-39 128.5,-19 207.5,-19 207.5,-39"/>
<text xml:space="preserve" text-anchor="middle" x="168" y="-25.5" font-family="Helvetica,sans-Serif" font-size="10.00">BSP_LED_Off</text>
</a>
</g>
</g>
<!-- Node2 -->
<g id="Node000002" class="node">
<title>Node2</title>
<g id="a_Node000002"><a xlink:href="group___s_t_m32_n6_x_x___n_u_c_l_e_o___c_o_m_m_o_n___l_e_d___functions.html#ga6e75d0d61e97bab0a93f0d9735c38a82" target="_top" xlink:title="DeInitialize LEDs.">
<polygon fill="white" stroke="#666666" points="92.5,-58 0,-58 0,-38 92.5,-38 92.5,-58"/>
<text xml:space="preserve" text-anchor="middle" x="46.25" y="-44.5" font-family="Helvetica,sans-Serif" font-size="10.00">BSP_LED_DeInit</text>
</a>
</g>
</g>
<!-- Node1&#45;&gt;Node2 -->
<g id="edge1_Node000001_Node000002" class="edge">
<title>Node1&#45;&gt;Node2</title>
<g id="a_edge1_Node000001_Node000002"><a xlink:title=" ">
<path fill="none" stroke="#63b8ff" d="M116.94,-36.94C108.87,-38.22 100.55,-39.54 92.6,-40.8"/>
<polygon fill="#63b8ff" stroke="#63b8ff" points="117.3,-40.43 126.63,-35.41 116.2,-33.52 117.3,-40.43"/>
</a>
</g>
</g>
<!-- Node3 -->
<g id="Node000003" class="node">
<title>Node3</title>
<g id="a_Node000003"><a xlink:href="group___s_t_m32_n6_x_x___n_u_c_l_e_o___c_o_m_m_o_n___l_e_d___functions.html#gabdaab4f270e422a9b4c51ab0b46805d6" target="_top" xlink:title="Configure LED GPIO.">
<polygon fill="white" stroke="#666666" points="86.12,-20 6.38,-20 6.38,0 86.12,0 86.12,-20"/>
<text xml:space="preserve" text-anchor="middle" x="46.25" y="-6.5" font-family="Helvetica,sans-Serif" font-size="10.00">BSP_LED_Init</text>
</a>
</g>
</g>
<!-- Node1&#45;&gt;Node3 -->
<g id="edge2_Node000001_Node000003" class="edge">
<title>Node1&#45;&gt;Node3</title>
<g id="a_edge2_Node000001_Node000003"><a xlink:title=" ">
<path fill="none" stroke="#63b8ff" d="M116.85,-21.04C106.66,-19.43 96.08,-17.75 86.34,-16.2"/>
<polygon fill="#63b8ff" stroke="#63b8ff" points="116.2,-24.48 126.63,-22.59 117.3,-17.57 116.2,-24.48"/>
</a>
</g>
</g>
</g>
</svg>
