<?xml version="1.0" encoding="UTF-8" standalone="no"?>
<!DOCTYPE svg PUBLIC "-//W3C//DTD SVG 1.1//EN"
 "http://www.w3.org/Graphics/SVG/1.1/DTD/svg11.dtd">
<!-- Generated by graphviz version 14.0.2 (20251019.1705)
 -->
<!-- Title: BSP_XSPI_NOR_GetStatus Pages: 1 -->
<svg width="348pt" height="104pt"
 viewBox="0.00 0.00 348.00 104.00" xmlns="http://www.w3.org/2000/svg" xmlns:xlink="http://www.w3.org/1999/xlink">
<g id="graph0" class="graph" transform="scale(1 1) rotate(0) translate(4 100)">
<title>BSP_XSPI_NOR_GetStatus</title>
<!-- Node1 -->
<g id="Node000001" class="node">
<title>Node1</title>
<g id="a_Node000001"><a xlink:title="Reads current status of the XSPI memory.">
<polygon fill="#999999" stroke="#666666" points="339.5,-58 197.5,-58 197.5,-38 339.5,-38 339.5,-58"/>
<text xml:space="preserve" text-anchor="middle" x="268.5" y="-44.5" font-family="Helvetica,sans-Serif" font-size="10.00">BSP_XSPI_NOR_GetStatus</text>
</a>
</g>
</g>
<!-- Node2 -->
<g id="Node000002" class="node">
<title>Node2</title>
<g id="a_Node000002"><a xlink:href="group___s_t_m32_n6_x_x___n_u_c_l_e_o___x_s_p_i___n_o_r___exported___functions.html#gabfb147a26495cef93282654d3e0aa34e" target="_top" xlink:title="This function resumes a paused erase command.">
<polygon fill="white" stroke="#666666" points="160.75,-96 0.75,-96 0.75,-76 160.75,-76 160.75,-96"/>
<text xml:space="preserve" text-anchor="middle" x="80.75" y="-82.5" font-family="Helvetica,sans-Serif" font-size="10.00">BSP_XSPI_NOR_ResumeErase</text>
</a>
</g>
</g>
<!-- Node1&#45;&gt;Node2 -->
<g id="edge1_Node000001_Node000002" class="edge">
<title>Node1&#45;&gt;Node2</title>
<g id="a_edge1_Node000001_Node000002"><a xlink:title=" ">
<path fill="none" stroke="#63b8ff" d="M204.99,-60.79C181.52,-65.59 155.14,-70.99 132.83,-75.55"/>
<polygon fill="#63b8ff" stroke="#63b8ff" points="205.67,-64.22 214.77,-58.79 204.27,-57.36 205.67,-64.22"/>
</a>
</g>
</g>
<!-- Node3 -->
<g id="Node000003" class="node">
<title>Node3</title>
<g id="a_Node000003"><a xlink:href="group___s_t_m32_n6_x_x___n_u_c_l_e_o___x_s_p_i___n_o_r___exported___functions.html#ga326085d390cfe04ac6d8e117c3ec7be5" target="_top" xlink:title="This function suspends an ongoing erase command.">
<polygon fill="white" stroke="#666666" points="161.5,-58 0,-58 0,-38 161.5,-38 161.5,-58"/>
<text xml:space="preserve" text-anchor="middle" x="80.75" y="-44.5" font-family="Helvetica,sans-Serif" font-size="10.00">BSP_XSPI_NOR_SuspendErase</text>
</a>
</g>
</g>
<!-- Node1&#45;&gt;Node3 -->
<g id="edge2_Node000001_Node000003" class="edge">
<title>Node1&#45;&gt;Node3</title>
<g id="a_edge2_Node000001_Node000003"><a xlink:title=" ">
<path fill="none" stroke="#63b8ff" d="M185.57,-48C177.68,-48 169.69,-48 161.83,-48"/>
<polygon fill="#63b8ff" stroke="#63b8ff" points="185.5,-51.5 195.5,-48 185.5,-44.5 185.5,-51.5"/>
</a>
</g>
</g>
<!-- Node4 -->
<g id="Node000004" class="node">
<title>Node4</title>
<g id="a_Node000004"><a xlink:href="xspi__nor_8c.html#ac724abc9d75f74c703b557c59f515b17" target="_top" xlink:title="Get flash status.">
<polygon fill="white" stroke="#666666" points="139,-20 22.5,-20 22.5,0 139,0 139,-20"/>
<text xml:space="preserve" text-anchor="middle" x="80.75" y="-6.5" font-family="Helvetica,sans-Serif" font-size="10.00">XSPI_NOR_GetStatus</text>
</a>
</g>
</g>
<!-- Node1&#45;&gt;Node4 -->
<g id="edge3_Node000001_Node000004" class="edge">
<title>Node1&#45;&gt;Node4</title>
<g id="a_edge3_Node000001_Node000004"><a xlink:title=" ">
<path fill="none" stroke="#63b8ff" d="M204.99,-35.21C181.52,-30.41 155.14,-25.01 132.83,-20.45"/>
<polygon fill="#63b8ff" stroke="#63b8ff" points="204.27,-38.64 214.77,-37.21 205.67,-31.78 204.27,-38.64"/>
</a>
</g>
</g>
</g>
</svg>
