<?xml version="1.0" encoding="UTF-8" standalone="no"?>
<!DOCTYPE svg PUBLIC "-//W3C//DTD SVG 1.1//EN"
 "http://www.w3.org/Graphics/SVG/1.1/DTD/svg11.dtd">
<!-- Generated by graphviz version 14.0.2 (20251019.1705)
 -->
<!-- Title: BSP_XSPI_NOR_Init Pages: 1 -->
<svg width="486pt" height="180pt"
 viewBox="0.00 0.00 486.00 180.00" xmlns="http://www.w3.org/2000/svg" xmlns:xlink="http://www.w3.org/1999/xlink">
<g id="graph0" class="graph" transform="scale(1 1) rotate(0) translate(4 176)">
<title>BSP_XSPI_NOR_Init</title>
<!-- Node1 -->
<g id="Node000001" class="node">
<title>Node1</title>
<g id="a_Node000001"><a xlink:title="Initializes the XSPI interface.">
<polygon fill="#999999" stroke="#666666" points="111.25,-77 0,-77 0,-57 111.25,-57 111.25,-77"/>
<text xml:space="preserve" text-anchor="middle" x="55.62" y="-63.5" font-family="Helvetica,sans-Serif" font-size="10.00">BSP_XSPI_NOR_Init</text>
</a>
</g>
</g>
<!-- Node2 -->
<g id="Node000002" class="node">
<title>Node2</title>
<g id="a_Node000002"><a xlink:href="group___s_t_m32_n6_x_x___n_u_c_l_e_o___x_s_p_i___n_o_r___exported___functions.html#gaa6d40510e8570fda0b07fbe258890414" target="_top" xlink:title="Set Flash to desired Interface mode. And this instance becomes current instance. If current instance ...">
<polygon fill="white" stroke="#666666" points="297.5,-134 147.25,-134 147.25,-114 297.5,-114 297.5,-134"/>
<text xml:space="preserve" text-anchor="middle" x="222.38" y="-120.5" font-family="Helvetica,sans-Serif" font-size="10.00">BSP_XSPI_NOR_ConfigFlash</text>
</a>
</g>
</g>
<!-- Node1&#45;&gt;Node2 -->
<g id="edge1_Node000001_Node000002" class="edge">
<title>Node1&#45;&gt;Node2</title>
<g id="a_edge1_Node000001_Node000002"><a xlink:title=" ">
<path fill="none" stroke="#63b8ff" d="M78.99,-77.46C97.12,-85.67 123.48,-97.02 147.25,-105 153.07,-106.96 159.21,-108.83 165.36,-110.58"/>
<polygon fill="#63b8ff" stroke="#63b8ff" points="164.35,-113.93 174.92,-113.19 166.2,-107.18 164.35,-113.93"/>
</a>
</g>
</g>
<!-- Node6 -->
<g id="Node000006" class="node">
<title>Node6</title>
<g id="a_Node000006"><a xlink:href="group___s_t_m32_n6_x_x___n_u_c_l_e_o___x_s_p_i___n_o_r___exported___functions.html#gabd50a1c84f55a305c169a7dba2e6e87b" target="_top" xlink:title="Initializes the XSPI interface.">
<polygon fill="white" stroke="#666666" points="275.38,-96 169.38,-96 169.38,-76 275.38,-76 275.38,-96"/>
<text xml:space="preserve" text-anchor="middle" x="222.38" y="-82.5" font-family="Helvetica,sans-Serif" font-size="10.00">MX_XSPI_NOR_Init</text>
</a>
</g>
</g>
<!-- Node1&#45;&gt;Node6 -->
<g id="edge5_Node000001_Node000006" class="edge">
<title>Node1&#45;&gt;Node6</title>
<g id="a_edge5_Node000001_Node000006"><a xlink:title=" ">
<path fill="none" stroke="#63b8ff" d="M111.48,-73.33C126.25,-75.03 142.36,-76.89 157.57,-78.64"/>
<polygon fill="#63b8ff" stroke="#63b8ff" points="157.15,-82.12 167.49,-79.79 157.95,-75.16 157.15,-82.12"/>
</a>
</g>
</g>
<!-- Node7 -->
<g id="Node000007" class="node">
<title>Node7</title>
<g id="a_Node000007"><a xlink:href="group___s_t_m32_n6_x_x___n_u_c_l_e_o___x_s_p_i___n_o_r___private___functions.html#gad2124a6b677d50eca815068c1a12005a" target="_top" xlink:title="Initializes the XSPI MSP.">
<polygon fill="white" stroke="#666666" points="274.62,-58 170.12,-58 170.12,-38 274.62,-38 274.62,-58"/>
<text xml:space="preserve" text-anchor="middle" x="222.38" y="-44.5" font-family="Helvetica,sans-Serif" font-size="10.00">XSPI_NOR_MspInit</text>
</a>
</g>
</g>
<!-- Node1&#45;&gt;Node7 -->
<g id="edge6_Node000001_Node000007" class="edge">
<title>Node1&#45;&gt;Node7</title>
<g id="a_edge6_Node000001_Node000007"><a xlink:title=" ">
<path fill="none" stroke="#63b8ff" d="M111.48,-60.67C126.62,-58.93 143.17,-57.02 158.71,-55.23"/>
<polygon fill="#63b8ff" stroke="#63b8ff" points="158.78,-58.74 168.32,-54.12 157.98,-51.79 158.78,-58.74"/>
</a>
</g>
</g>
<!-- Node8 -->
<g id="Node000008" class="node">
<title>Node8</title>
<g id="a_Node000008"><a xlink:href="group___s_t_m32_n6_x_x___n_u_c_l_e_o___x_s_p_i___n_o_r___private___functions.html#ga2079d91f22628240bc0bab452ec92078" target="_top" xlink:title="This function reset the XSPI memory.">
<polygon fill="white" stroke="#666666" points="289.25,-20 155.5,-20 155.5,0 289.25,0 289.25,-20"/>
<text xml:space="preserve" text-anchor="middle" x="222.38" y="-6.5" font-family="Helvetica,sans-Serif" font-size="10.00">XSPI_NOR_ResetMemory</text>
</a>
</g>
</g>
<!-- Node1&#45;&gt;Node8 -->
<g id="edge7_Node000001_Node000008" class="edge">
<title>Node1&#45;&gt;Node8</title>
<g id="a_edge7_Node000001_Node000008"><a xlink:title=" ">
<path fill="none" stroke="#63b8ff" d="M78.99,-56.54C97.12,-48.33 123.48,-36.98 147.25,-29 153.07,-27.04 159.21,-25.17 165.36,-23.42"/>
<polygon fill="#63b8ff" stroke="#63b8ff" points="166.2,-26.82 174.92,-20.81 164.35,-20.07 166.2,-26.82"/>
</a>
</g>
</g>
<!-- Node3 -->
<g id="Node000003" class="node">
<title>Node3</title>
<g id="a_Node000003"><a xlink:href="group___s_t_m32_n6_x_x___n_u_c_l_e_o___x_s_p_i___n_o_r___private___functions.html#ga6c2174b3588e28db4a2f34bb26582603" target="_top" xlink:title="This function enables the octal DTR mode of the memory.">
<polygon fill="white" stroke="#666666" points="477.75,-172 333.5,-172 333.5,-152 477.75,-152 477.75,-172"/>
<text xml:space="preserve" text-anchor="middle" x="405.62" y="-158.5" font-family="Helvetica,sans-Serif" font-size="10.00">XSPI_NOR_EnterDOPIMode</text>
</a>
</g>
</g>
<!-- Node2&#45;&gt;Node3 -->
<g id="edge2_Node000002_Node000003" class="edge">
<title>Node2&#45;&gt;Node3</title>
<g id="a_edge2_Node000002_Node000003"><a xlink:title=" ">
<path fill="none" stroke="#63b8ff" d="M273.38,-134.48C295.17,-139.05 320.92,-144.45 343.8,-149.25"/>
<polygon fill="#63b8ff" stroke="#63b8ff" points="342.79,-152.61 353.3,-151.24 344.23,-145.76 342.79,-152.61"/>
</a>
</g>
</g>
<!-- Node4 -->
<g id="Node000004" class="node">
<title>Node4</title>
<g id="a_Node000004"><a xlink:href="group___s_t_m32_n6_x_x___n_u_c_l_e_o___x_s_p_i___n_o_r___private___functions.html#ga4d2f380862fd1667eca4d8cabd7681ec" target="_top" xlink:title="This function enables the octal STR mode of the memory.">
<polygon fill="white" stroke="#666666" points="477.38,-134 333.88,-134 333.88,-114 477.38,-114 477.38,-134"/>
<text xml:space="preserve" text-anchor="middle" x="405.62" y="-120.5" font-family="Helvetica,sans-Serif" font-size="10.00">XSPI_NOR_EnterSOPIMode</text>
</a>
</g>
</g>
<!-- Node2&#45;&gt;Node4 -->
<g id="edge3_Node000002_Node000004" class="edge">
<title>Node2&#45;&gt;Node4</title>
<g id="a_edge3_Node000002_Node000004"><a xlink:title=" ">
<path fill="none" stroke="#63b8ff" d="M297.88,-124C305.91,-124 314.12,-124 322.23,-124"/>
<polygon fill="#63b8ff" stroke="#63b8ff" points="322.11,-127.5 332.11,-124 322.1,-120.5 322.11,-127.5"/>
</a>
</g>
</g>
<!-- Node5 -->
<g id="Node000005" class="node">
<title>Node5</title>
<g id="a_Node000005"><a xlink:href="group___s_t_m32_n6_x_x___n_u_c_l_e_o___x_s_p_i___n_o_r___private___functions.html#ga71270f202f993c42c59c9d419ac20bf9" target="_top" xlink:title="This function disables the octal DTR or STR mode of the memory.">
<polygon fill="white" stroke="#666666" points="471,-96 340.25,-96 340.25,-76 471,-76 471,-96"/>
<text xml:space="preserve" text-anchor="middle" x="405.62" y="-82.5" font-family="Helvetica,sans-Serif" font-size="10.00">XSPI_NOR_ExitOPIMode</text>
</a>
</g>
</g>
<!-- Node2&#45;&gt;Node5 -->
<g id="edge4_Node000002_Node000005" class="edge">
<title>Node2&#45;&gt;Node5</title>
<g id="a_edge4_Node000002_Node000005"><a xlink:title=" ">
<path fill="none" stroke="#63b8ff" d="M273.38,-113.52C295.17,-108.95 320.92,-103.55 343.8,-98.75"/>
<polygon fill="#63b8ff" stroke="#63b8ff" points="344.23,-102.24 353.3,-96.76 342.79,-95.39 344.23,-102.24"/>
</a>
</g>
</g>
</g>
</svg>
