<?xml version="1.0" encoding="UTF-8" standalone="no"?>
<!DOCTYPE svg PUBLIC "-//W3C//DTD SVG 1.1//EN"
 "http://www.w3.org/Graphics/SVG/1.1/DTD/svg11.dtd">
<!-- Generated by graphviz version 14.0.2 (20251019.1705)
 -->
<!-- Title: STM32N6XX_NUCLEO COMMON Pages: 1 -->
<svg width="542pt" height="440pt"
 viewBox="0.00 0.00 542.00 440.00" xmlns="http://www.w3.org/2000/svg" xmlns:xlink="http://www.w3.org/1999/xlink">
<g id="graph0" class="graph" transform="scale(1 1) rotate(0) translate(4 436)">
<title>STM32N6XX_NUCLEO COMMON</title>
<!-- Node2 -->
<g id="Node000002" class="node">
<title>Node2</title>
<g id="a_Node000002"><a xlink:href="group___s_t_m32_n6_x_x___n_u_c_l_e_o.html" target="_top" xlink:title=" ">
<polygon fill="white" stroke="#666666" points="121,-226 0,-226 0,-206 121,-206 121,-226"/>
<text xml:space="preserve" text-anchor="middle" x="60.5" y="-212.5" font-family="Helvetica,sans-Serif" font-size="10.00">STM32N6XX_NUCLEO</text>
</a>
</g>
</g>
<!-- Node1 -->
<g id="Node000001" class="node">
<title>Node1</title>
<g id="a_Node000001"><a xlink:title="This file provides set of firmware functions to manage Leds and push&#45;button available on STM32N6xx&#45;Nu...">
<polygon fill="#999999" stroke="#666666" points="327.5,-226 157,-226 157,-206 327.5,-206 327.5,-226"/>
<text xml:space="preserve" text-anchor="middle" x="242.25" y="-212.5" font-family="Helvetica,sans-Serif" font-size="10.00">STM32N6XX_NUCLEO COMMON</text>
</a>
</g>
</g>
<!-- Node2&#45;&gt;Node1 -->
<g id="edge1" class="edge">
<title>Node2&#45;&gt;Node1</title>
<path fill="none" stroke="black" d="M132.72,-216C140.59,-216 148.66,-216 156.68,-216"/>
<polygon fill="black" stroke="black" points="132.87,-212.5 122.87,-216 132.87,-219.5 132.87,-212.5"/>
</g>
<!-- Node11 -->
<g id="Node000011" class="node">
<title>Node11</title>
<g id="a_Node000011"><a xlink:href="group___s_t_m32_n6_x_x___n_u_c_l_e_o___c_o_m_m_o_n___exported___constants.html" target="_top" xlink:title=" ">
<polygon fill="white" stroke="#666666" points="534,-432 363.5,-432 363.5,-400 534,-400 534,-432"/>
<text xml:space="preserve" text-anchor="start" x="371.5" y="-418.5" font-family="Helvetica,sans-Serif" font-size="10.00">STM32N6XX_NUCLEO COMMON</text>
<text xml:space="preserve" text-anchor="middle" x="448.75" y="-406.5" font-family="Helvetica,sans-Serif" font-size="10.00"> Exported Constants</text>
</a>
</g>
</g>
<!-- Node1&#45;&gt;Node11 -->
<g id="edge10" class="edge">
<title>Node1&#45;&gt;Node11</title>
<path fill="none" stroke="black" d="M251.71,-236.46C267.89,-273.05 306.73,-349.73 363.5,-391 368.07,-394.32 373.07,-397.2 378.3,-399.7"/>
<polygon fill="black" stroke="black" points="255.01,-235.28 247.86,-227.47 248.58,-238.04 255.01,-235.28"/>
</g>
<!-- Node8 -->
<g id="Node000008" class="node">
<title>Node8</title>
<g id="a_Node000008"><a xlink:href="group___s_t_m32_n6_x_x___n_u_c_l_e_o___c_o_m_m_o_n___exported___functions.html" target="_top" xlink:title=" ">
<polygon fill="white" stroke="#666666" points="534,-382 363.5,-382 363.5,-350 534,-350 534,-382"/>
<text xml:space="preserve" text-anchor="start" x="371.5" y="-368.5" font-family="Helvetica,sans-Serif" font-size="10.00">STM32N6XX_NUCLEO COMMON</text>
<text xml:space="preserve" text-anchor="middle" x="448.75" y="-356.5" font-family="Helvetica,sans-Serif" font-size="10.00"> Exported Functions</text>
</a>
</g>
</g>
<!-- Node1&#45;&gt;Node8 -->
<g id="edge7" class="edge">
<title>Node1&#45;&gt;Node8</title>
<path fill="none" stroke="black" d="M256.84,-235.51C277,-263.02 317.45,-312.98 363.5,-341 368.84,-344.25 374.64,-347.1 380.6,-349.6"/>
<polygon fill="black" stroke="black" points="259.91,-233.79 251.24,-227.7 254.22,-237.87 259.91,-233.79"/>
</g>
<!-- Node10 -->
<g id="Node000010" class="node">
<title>Node10</title>
<g id="a_Node000010"><a xlink:href="group___s_t_m32_n6_x_x___n_u_c_l_e_o___c_o_m_m_o_n___exported___types.html" target="_top" xlink:title=" ">
<polygon fill="white" stroke="#666666" points="534,-332 363.5,-332 363.5,-300 534,-300 534,-332"/>
<text xml:space="preserve" text-anchor="start" x="371.5" y="-318.5" font-family="Helvetica,sans-Serif" font-size="10.00">STM32N6XX_NUCLEO COMMON</text>
<text xml:space="preserve" text-anchor="middle" x="448.75" y="-306.5" font-family="Helvetica,sans-Serif" font-size="10.00"> Exported Types</text>
</a>
</g>
</g>
<!-- Node1&#45;&gt;Node10 -->
<g id="edge9" class="edge">
<title>Node1&#45;&gt;Node10</title>
<path fill="none" stroke="black" d="M266.1,-232.87C289.55,-249.54 327.58,-274.83 363.5,-291 370.46,-294.13 377.91,-296.99 385.4,-299.57"/>
<polygon fill="black" stroke="black" points="268.38,-230.2 258.22,-227.19 264.29,-235.88 268.38,-230.2"/>
</g>
<!-- Node6 -->
<g id="Node000006" class="node">
<title>Node6</title>
<g id="a_Node000006"><a xlink:href="group___s_t_m32_n6_x_x___n_u_c_l_e_o___c_o_m_m_o_n___exported___variables.html" target="_top" xlink:title=" ">
<polygon fill="white" stroke="#666666" points="534,-282 363.5,-282 363.5,-250 534,-250 534,-282"/>
<text xml:space="preserve" text-anchor="start" x="371.5" y="-268.5" font-family="Helvetica,sans-Serif" font-size="10.00">STM32N6XX_NUCLEO COMMON</text>
<text xml:space="preserve" text-anchor="middle" x="448.75" y="-256.5" font-family="Helvetica,sans-Serif" font-size="10.00"> Exported Variables</text>
</a>
</g>
</g>
<!-- Node1&#45;&gt;Node6 -->
<g id="edge5" class="edge">
<title>Node1&#45;&gt;Node6</title>
<path fill="none" stroke="black" d="M297.07,-229.16C322.59,-235.4 353.34,-242.92 380.38,-249.53"/>
<polygon fill="black" stroke="black" points="298.14,-225.82 287.59,-226.84 296.47,-232.62 298.14,-225.82"/>
</g>
<!-- Node3 -->
<g id="Node000003" class="node">
<title>Node3</title>
<g id="a_Node000003"><a xlink:href="group___s_t_m32_n6_x_x___n_u_c_l_e_o___c_o_m_m_o_n___private___defines.html" target="_top" xlink:title=" ">
<polygon fill="white" stroke="#666666" points="534,-232 363.5,-232 363.5,-200 534,-200 534,-232"/>
<text xml:space="preserve" text-anchor="start" x="371.5" y="-218.5" font-family="Helvetica,sans-Serif" font-size="10.00">STM32N6XX_NUCLEO COMMON</text>
<text xml:space="preserve" text-anchor="middle" x="448.75" y="-206.5" font-family="Helvetica,sans-Serif" font-size="10.00"> Private Defines</text>
</a>
</g>
</g>
<!-- Node1&#45;&gt;Node3 -->
<g id="edge2" class="edge">
<title>Node1&#45;&gt;Node3</title>
<path fill="none" stroke="black" d="M339.17,-216C347.18,-216 355.24,-216 363.16,-216"/>
<polygon fill="black" stroke="black" points="339.42,-212.5 329.42,-216 339.42,-219.5 339.42,-212.5"/>
</g>
<!-- Node5 -->
<g id="Node000005" class="node">
<title>Node5</title>
<g id="a_Node000005"><a xlink:href="group___s_t_m32_n6_x_x___n_u_c_l_e_o___c_o_m_m_o_n___private___function_prototypes.html" target="_top" xlink:title=" ">
<polygon fill="white" stroke="#666666" points="534,-182 363.5,-182 363.5,-150 534,-150 534,-182"/>
<text xml:space="preserve" text-anchor="start" x="371.5" y="-168.5" font-family="Helvetica,sans-Serif" font-size="10.00">STM32N6XX_NUCLEO COMMON</text>
<text xml:space="preserve" text-anchor="middle" x="448.75" y="-156.5" font-family="Helvetica,sans-Serif" font-size="10.00"> Private Function Prototypes</text>
</a>
</g>
</g>
<!-- Node1&#45;&gt;Node5 -->
<g id="edge4" class="edge">
<title>Node1&#45;&gt;Node5</title>
<path fill="none" stroke="black" d="M297.07,-202.84C322.59,-196.6 353.34,-189.08 380.38,-182.47"/>
<polygon fill="black" stroke="black" points="296.47,-199.38 287.59,-205.16 298.14,-206.18 296.47,-199.38"/>
</g>
<!-- Node9 -->
<g id="Node000009" class="node">
<title>Node9</title>
<g id="a_Node000009"><a xlink:href="group___s_t_m32_n6_x_x___n_u_c_l_e_o___c_o_m_m_o_n___private___functions.html" target="_top" xlink:title=" ">
<polygon fill="white" stroke="#666666" points="534,-132 363.5,-132 363.5,-100 534,-100 534,-132"/>
<text xml:space="preserve" text-anchor="start" x="371.5" y="-118.5" font-family="Helvetica,sans-Serif" font-size="10.00">STM32N6XX_NUCLEO COMMON</text>
<text xml:space="preserve" text-anchor="middle" x="448.75" y="-106.5" font-family="Helvetica,sans-Serif" font-size="10.00"> Private Functions</text>
</a>
</g>
</g>
<!-- Node1&#45;&gt;Node9 -->
<g id="edge8" class="edge">
<title>Node1&#45;&gt;Node9</title>
<path fill="none" stroke="black" d="M266.1,-199.13C289.55,-182.46 327.58,-157.17 363.5,-141 370.46,-137.87 377.91,-135.01 385.4,-132.43"/>
<polygon fill="black" stroke="black" points="264.29,-196.12 258.22,-204.81 268.38,-201.8 264.29,-196.12"/>
</g>
<!-- Node4 -->
<g id="Node000004" class="node">
<title>Node4</title>
<g id="a_Node000004"><a xlink:href="group___s_t_m32_n6_x_x___n_u_c_l_e_o___c_o_m_m_o_n___private___types_definitions.html" target="_top" xlink:title=" ">
<polygon fill="white" stroke="#666666" points="534,-82 363.5,-82 363.5,-50 534,-50 534,-82"/>
<text xml:space="preserve" text-anchor="start" x="371.5" y="-68.5" font-family="Helvetica,sans-Serif" font-size="10.00">STM32N6XX_NUCLEO COMMON</text>
<text xml:space="preserve" text-anchor="middle" x="448.75" y="-56.5" font-family="Helvetica,sans-Serif" font-size="10.00"> Private Types Definitions</text>
</a>
</g>
</g>
<!-- Node1&#45;&gt;Node4 -->
<g id="edge3" class="edge">
<title>Node1&#45;&gt;Node4</title>
<path fill="none" stroke="black" d="M256.84,-196.49C277,-168.98 317.45,-119.02 363.5,-91 368.84,-87.75 374.64,-84.9 380.6,-82.4"/>
<polygon fill="black" stroke="black" points="254.22,-194.13 251.24,-204.3 259.91,-198.21 254.22,-194.13"/>
</g>
<!-- Node7 -->
<g id="Node000007" class="node">
<title>Node7</title>
<g id="a_Node000007"><a xlink:href="group___s_t_m32_n6_x_x___n_u_c_l_e_o___c_o_m_m_o_n___private___variables.html" target="_top" xlink:title=" ">
<polygon fill="white" stroke="#666666" points="534,-32 363.5,-32 363.5,0 534,0 534,-32"/>
<text xml:space="preserve" text-anchor="start" x="371.5" y="-18.5" font-family="Helvetica,sans-Serif" font-size="10.00">STM32N6XX_NUCLEO COMMON</text>
<text xml:space="preserve" text-anchor="middle" x="448.75" y="-6.5" font-family="Helvetica,sans-Serif" font-size="10.00"> Private Variables</text>
</a>
</g>
</g>
<!-- Node1&#45;&gt;Node7 -->
<g id="edge6" class="edge">
<title>Node1&#45;&gt;Node7</title>
<path fill="none" stroke="black" d="M251.71,-195.54C267.89,-158.95 306.73,-82.27 363.5,-41 368.07,-37.68 373.07,-34.8 378.3,-32.3"/>
<polygon fill="black" stroke="black" points="248.58,-193.96 247.86,-204.53 255.01,-196.72 248.58,-193.96"/>
</g>
</g>
</svg>
