<?xml version="1.0" encoding="UTF-8" standalone="no"?>
<!DOCTYPE svg PUBLIC "-//W3C//DTD SVG 1.1//EN"
 "http://www.w3.org/Graphics/SVG/1.1/DTD/svg11.dtd">
<!-- Generated by graphviz version 14.0.2 (20251019.1705)
 -->
<!-- Title: main.h Pages: 1 -->
<svg width="287pt" height="84pt"
 viewBox="0.00 0.00 287.00 84.00" xmlns="http://www.w3.org/2000/svg" xmlns:xlink="http://www.w3.org/1999/xlink">
<g id="graph0" class="graph" transform="scale(1 1) rotate(0) translate(4 80)">
<title>main.h</title>
<!-- Node1 -->
<g id="Node000001" class="node">
<title>Node1</title>
<g id="a_Node000001"><a xlink:title=": Header for main.c file. This file contains the common defines of the application.">
<polygon fill="#999999" stroke="#666666" points="143.25,-76 98,-76 98,-56 143.25,-56 143.25,-76"/>
<text xml:space="preserve" text-anchor="middle" x="120.62" y="-62.5" font-family="Helvetica,sans-Serif" font-size="10.00">main.h</text>
</a>
</g>
</g>
<!-- Node2 -->
<g id="Node000002" class="node">
<title>Node2</title>
<g id="a_Node000002"><a xlink:href="main_8c.html" target="_top" xlink:title="Entry&#45;Point und Initialisierung für STM32N6 NUCLEO&#45;Projekt.">
<polygon fill="white" stroke="#666666" points="45.25,-20 0,-20 0,0 45.25,0 45.25,-20"/>
<text xml:space="preserve" text-anchor="middle" x="22.62" y="-6.5" font-family="Helvetica,sans-Serif" font-size="10.00">main.c</text>
</a>
</g>
</g>
<!-- Node1&#45;&gt;Node2 -->
<g id="edge1_Node000001_Node000002" class="edge">
<title>Node1&#45;&gt;Node2</title>
<g id="a_edge1_Node000001_Node000002"><a xlink:title=" ">
<path fill="none" stroke="#63b8ff" d="M93.55,-50.08C76.37,-40.62 54.67,-28.66 39.83,-20.48"/>
<polygon fill="#63b8ff" stroke="#63b8ff" points="91.78,-53.1 102.23,-54.86 95.16,-46.97 91.78,-53.1"/>
</a>
</g>
</g>
<!-- Node3 -->
<g id="Node000003" class="node">
<title>Node3</title>
<g id="a_Node000003"><a xlink:href="stm32n6xx__hal__msp_8c.html" target="_top" xlink:title="This file provides code for the MSP Initialization and de&#45;Initialization codes.">
<polygon fill="white" stroke="#666666" points="177.75,-20 63.5,-20 63.5,0 177.75,0 177.75,-20"/>
<text xml:space="preserve" text-anchor="middle" x="120.62" y="-6.5" font-family="Helvetica,sans-Serif" font-size="10.00">stm32n6xx_hal_msp.c</text>
</a>
</g>
</g>
<!-- Node1&#45;&gt;Node3 -->
<g id="edge2_Node000001_Node000003" class="edge">
<title>Node1&#45;&gt;Node3</title>
<g id="a_edge2_Node000001_Node000003"><a xlink:title=" ">
<path fill="none" stroke="#63b8ff" d="M120.62,-44.13C120.62,-35.9 120.62,-26.85 120.62,-20.3"/>
<polygon fill="#63b8ff" stroke="#63b8ff" points="117.13,-44.08 120.63,-54.08 124.13,-44.08 117.13,-44.08"/>
</a>
</g>
</g>
<!-- Node4 -->
<g id="Node000004" class="node">
<title>Node4</title>
<g id="a_Node000004"><a xlink:href="stm32n6xx__it_8c.html" target="_top" xlink:title="Interrupt Service Routines.">
<polygon fill="white" stroke="#666666" points="279,-20 196.25,-20 196.25,0 279,0 279,-20"/>
<text xml:space="preserve" text-anchor="middle" x="237.62" y="-6.5" font-family="Helvetica,sans-Serif" font-size="10.00">stm32n6xx_it.c</text>
</a>
</g>
</g>
<!-- Node1&#45;&gt;Node4 -->
<g id="edge3_Node000001_Node000004" class="edge">
<title>Node1&#45;&gt;Node4</title>
<g id="a_edge3_Node000001_Node000004"><a xlink:title=" ">
<path fill="none" stroke="#63b8ff" d="M151.22,-50.88C171.98,-41.3 198.86,-28.89 217.09,-20.48"/>
<polygon fill="#63b8ff" stroke="#63b8ff" points="149.99,-47.59 142.38,-54.96 152.93,-53.95 149.99,-47.59"/>
</a>
</g>
</g>
</g>
</svg>
