<?xml version="1.0" encoding="UTF-8" standalone="no"?>
<!DOCTYPE svg PUBLIC "-//W3C//DTD SVG 1.1//EN"
 "http://www.w3.org/Graphics/SVG/1.1/DTD/svg11.dtd">
<!-- Generated by graphviz version 14.0.2 (20251019.1705)
 -->
<!-- Title: __attribute__ Pages: 1 -->
<svg width="189pt" height="46pt"
 viewBox="0.00 0.00 189.00 46.00" xmlns="http://www.w3.org/2000/svg" xmlns:xlink="http://www.w3.org/1999/xlink">
<g id="graph0" class="graph" transform="scale(1 1) rotate(0) translate(4 42)">
<title>__attribute__</title>
<!-- Node1 -->
<g id="Node000001" class="node">
<title>Node1</title>
<g id="a_Node000001"><a xlink:title=" ">
<polygon fill="#999999" stroke="#666666" points="72.25,-20 0,-20 0,0 72.25,0 72.25,-20"/>
<text xml:space="preserve" text-anchor="middle" x="36.12" y="-6.5" font-family="Helvetica,sans-Serif" font-size="10.00">__attribute__</text>
</a>
</g>
</g>
<!-- Node2 -->
<g id="Node000002" class="node">
<title>Node2</title>
<g id="a_Node000002"><a xlink:href="main_8c.html#ac4a1ac0b056dfa29b97d7af1b7ee4c6d" target="_top" xlink:title=" ">
<polygon fill="white" stroke="#666666" points="180.5,-20 108.25,-20 108.25,0 180.5,0 180.5,-20"/>
<text xml:space="preserve" text-anchor="middle" x="144.38" y="-6.5" font-family="Helvetica,sans-Serif" font-size="10.00">__attribute__</text>
</a>
</g>
</g>
<!-- Node1&#45;&gt;Node2 -->
<g id="edge1_Node000001_Node000002" class="edge">
<title>Node1&#45;&gt;Node2</title>
<g id="a_edge1_Node000001_Node000002"><a xlink:title=" ">
<path fill="none" stroke="#63b8ff" d="M72.5,-10C80.13,-10 88.31,-10 96.3,-10"/>
<polygon fill="#63b8ff" stroke="#63b8ff" points="96.27,-13.5 106.27,-10 96.27,-6.5 96.27,-13.5"/>
</a>
</g>
</g>
<!-- Node2&#45;&gt;Node2 -->
<g id="edge2_Node000002_Node000002" class="edge">
<title>Node2&#45;&gt;Node2</title>
<g id="a_edge2_Node000002_Node000002"><a xlink:title=" ">
<path fill="none" stroke="#63b8ff" d="M127.18,-20.34C119.82,-28.98 125.56,-38 144.38,-38 154.67,-38 161.04,-35.3 163.51,-31.44"/>
<polygon fill="#63b8ff" stroke="#63b8ff" points="167,-31.08 161.83,-21.83 160.1,-32.28 167,-31.08"/>
</a>
</g>
</g>
</g>
</svg>
