<?xml version="1.0" encoding="UTF-8" standalone="no"?>
<!DOCTYPE svg PUBLIC "-//W3C//DTD SVG 1.1//EN"
 "http://www.w3.org/Graphics/SVG/1.1/DTD/svg11.dtd">
<!-- Generated by graphviz version 14.0.2 (20251019.1705)
 -->
<!-- Title: main.c Pages: 1 -->
<svg width="774pt" height="264pt"
 viewBox="0.00 0.00 774.00 264.00" xmlns="http://www.w3.org/2000/svg" xmlns:xlink="http://www.w3.org/1999/xlink">
<g id="graph0" class="graph" transform="scale(1 1) rotate(0) translate(4 260)">
<title>main.c</title>
<!-- Node1 -->
<g id="Node000001" class="node">
<title>Node1</title>
<g id="a_Node000001"><a xlink:title="Helium&#45;enabled thermal pipeline demo for the STM32N6570 FSBL example.">
<polygon fill="#999999" stroke="#666666" points="256.59,-256 211.34,-256 211.34,-236 256.59,-236 256.59,-256"/>
<text xml:space="preserve" text-anchor="middle" x="233.97" y="-242.5" font-family="Helvetica,sans-Serif" font-size="10.00">main.c</text>
</a>
</g>
</g>
<!-- Node2 -->
<g id="Node000002" class="node">
<title>Node2</title>
<g id="a_Node000002"><a xlink:href="main_8h.html" target="_top" xlink:title=": Header for main.c file. This file contains the common defines of the application.">
<polygon fill="white" stroke="#666666" points="100.59,-144 55.34,-144 55.34,-124 100.59,-124 100.59,-144"/>
<text xml:space="preserve" text-anchor="middle" x="77.97" y="-130.5" font-family="Helvetica,sans-Serif" font-size="10.00">main.h</text>
</a>
</g>
</g>
<!-- Node1&#45;&gt;Node2 -->
<g id="edge1_Node000001_Node000002" class="edge">
<title>Node1&#45;&gt;Node2</title>
<g id="a_edge1_Node000001_Node000002"><a xlink:title=" ">
<path fill="none" stroke="#63b8ff" d="M211.17,-244.06C158.51,-241.35 30.96,-231.6 4.97,-200 -11.69,-179.75 18.34,-160.27 44.78,-148"/>
<polygon fill="#63b8ff" stroke="#63b8ff" points="45.87,-151.35 53.61,-144.12 43.05,-144.94 45.87,-151.35"/>
</a>
</g>
</g>
<!-- Node4 -->
<g id="Node000004" class="node">
<title>Node4</title>
<g id="a_Node000004"><a xlink:title=" ">
<polygon fill="#e0e0e0" stroke="#999999" points="59.97,-200 13.97,-200 13.97,-180 59.97,-180 59.97,-200"/>
<text xml:space="preserve" text-anchor="middle" x="36.97" y="-186.5" font-family="Helvetica,sans-Serif" font-size="10.00">math.h</text>
</a>
</g>
</g>
<!-- Node1&#45;&gt;Node4 -->
<g id="edge3_Node000001_Node000004" class="edge">
<title>Node1&#45;&gt;Node4</title>
<g id="a_edge3_Node000001_Node000004"><a xlink:title=" ">
<path fill="none" stroke="#63b8ff" d="M210.99,-238.8C181.03,-230.69 126.72,-215.96 71.14,-200.59"/>
<polygon fill="#63b8ff" stroke="#63b8ff" points="72.41,-197.31 61.84,-198.01 70.54,-204.05 72.41,-197.31"/>
</a>
</g>
</g>
<!-- Node5 -->
<g id="Node000005" class="node">
<title>Node5</title>
<g id="a_Node000005"><a xlink:title=" ">
<polygon fill="#e0e0e0" stroke="#999999" points="142.34,-200 77.59,-200 77.59,-180 142.34,-180 142.34,-200"/>
<text xml:space="preserve" text-anchor="middle" x="109.97" y="-186.5" font-family="Helvetica,sans-Serif" font-size="10.00">arm_mve.h</text>
</a>
</g>
</g>
<!-- Node1&#45;&gt;Node5 -->
<g id="edge4_Node000001_Node000005" class="edge">
<title>Node1&#45;&gt;Node5</title>
<g id="a_edge4_Node000001_Node000005"><a xlink:title=" ">
<path fill="none" stroke="#63b8ff" d="M212.37,-235.59C193.02,-227.17 164.36,-214.69 142.29,-205.07"/>
<polygon fill="#63b8ff" stroke="#63b8ff" points="143.69,-201.87 133.12,-201.08 140.89,-208.29 143.69,-201.87"/>
</a>
</g>
</g>
<!-- Node6 -->
<g id="Node000006" class="node">
<title>Node6</title>
<g id="a_Node000006"><a xlink:title=" ">
<polygon fill="#e0e0e0" stroke="#999999" points="205.59,-200 160.34,-200 160.34,-180 205.59,-180 205.59,-200"/>
<text xml:space="preserve" text-anchor="middle" x="182.97" y="-186.5" font-family="Helvetica,sans-Serif" font-size="10.00">stdio.h</text>
</a>
</g>
</g>
<!-- Node1&#45;&gt;Node6 -->
<g id="edge5_Node000001_Node000006" class="edge">
<title>Node1&#45;&gt;Node6</title>
<g id="a_edge5_Node000001_Node000006"><a xlink:title=" ">
<path fill="none" stroke="#63b8ff" d="M225.08,-235.59C218.06,-228.16 208.07,-217.58 199.57,-208.58"/>
<polygon fill="#63b8ff" stroke="#63b8ff" points="202.2,-206.27 192.79,-201.4 197.11,-211.07 202.2,-206.27"/>
</a>
</g>
</g>
<!-- Node7 -->
<g id="Node000007" class="node">
<title>Node7</title>
<g id="a_Node000007"><a xlink:title=" ">
<polygon fill="#e0e0e0" stroke="#999999" points="258.09,-144 209.84,-144 209.84,-124 258.09,-124 258.09,-144"/>
<text xml:space="preserve" text-anchor="middle" x="233.97" y="-130.5" font-family="Helvetica,sans-Serif" font-size="10.00">stdint.h</text>
</a>
</g>
</g>
<!-- Node1&#45;&gt;Node7 -->
<g id="edge6_Node000001_Node000007" class="edge">
<title>Node1&#45;&gt;Node7</title>
<g id="a_edge6_Node000001_Node000007"><a xlink:title=" ">
<path fill="none" stroke="#63b8ff" d="M233.97,-235.62C233.97,-218.01 233.97,-179.59 233.97,-155.65"/>
<polygon fill="#63b8ff" stroke="#63b8ff" points="237.47,-155.87 233.97,-145.87 230.47,-155.87 237.47,-155.87"/>
</a>
</g>
</g>
<!-- Node8 -->
<g id="Node000008" class="node">
<title>Node8</title>
<g id="a_Node000008"><a xlink:title=" ">
<polygon fill="#e0e0e0" stroke="#999999" points="310.09,-200 261.84,-200 261.84,-180 310.09,-180 310.09,-200"/>
<text xml:space="preserve" text-anchor="middle" x="285.97" y="-186.5" font-family="Helvetica,sans-Serif" font-size="10.00">string.h</text>
</a>
</g>
</g>
<!-- Node1&#45;&gt;Node8 -->
<g id="edge7_Node000001_Node000008" class="edge">
<title>Node1&#45;&gt;Node8</title>
<g id="a_edge7_Node000001_Node000008"><a xlink:title=" ">
<path fill="none" stroke="#63b8ff" d="M243.02,-235.59C250.18,-228.16 260.37,-217.58 269.03,-208.58"/>
<polygon fill="#63b8ff" stroke="#63b8ff" points="271.55,-211.02 275.96,-201.39 266.5,-206.16 271.55,-211.02"/>
</a>
</g>
</g>
<!-- Node9 -->
<g id="Node000009" class="node">
<title>Node9</title>
<g id="a_Node000009"><a xlink:href="xspi__nor_8h.html" target="_top" xlink:title=" ">
<polygon fill="white" stroke="#666666" points="389.47,-200 328.47,-200 328.47,-180 389.47,-180 389.47,-200"/>
<text xml:space="preserve" text-anchor="middle" x="358.97" y="-186.5" font-family="Helvetica,sans-Serif" font-size="10.00">xspi_nor.h</text>
</a>
</g>
</g>
<!-- Node1&#45;&gt;Node9 -->
<g id="edge8_Node000001_Node000009" class="edge">
<title>Node1&#45;&gt;Node9</title>
<g id="a_edge8_Node000001_Node000009"><a xlink:title=" ">
<path fill="none" stroke="#63b8ff" d="M255.74,-235.59C275.34,-227.13 304.39,-214.58 326.69,-204.94"/>
<polygon fill="#63b8ff" stroke="#63b8ff" points="327.84,-208.26 335.63,-201.08 325.07,-201.83 327.84,-208.26"/>
</a>
</g>
</g>
<!-- Node10 -->
<g id="Node000010" class="node">
<title>Node10</title>
<g id="a_Node000010"><a xlink:href="stm32n6xx__nucleo__xspi_8h.html" target="_top" xlink:title="This file contains the common defines and functions prototypes for the stm32n6xx_nucleo_xspi....">
<polygon fill="white" stroke="#666666" points="482.59,-144 353.34,-144 353.34,-124 482.59,-124 482.59,-144"/>
<text xml:space="preserve" text-anchor="middle" x="417.97" y="-130.5" font-family="Helvetica,sans-Serif" font-size="10.00">stm32n6xx_nucleo_xspi.h</text>
</a>
</g>
</g>
<!-- Node1&#45;&gt;Node10 -->
<g id="edge16_Node000001_Node000010" class="edge">
<title>Node1&#45;&gt;Node10</title>
<g id="a_edge16_Node000001_Node000010"><a xlink:title=" ">
<path fill="none" stroke="#63b8ff" d="M256.82,-245.4C292.17,-244.74 360.09,-238.18 398.97,-200 410.77,-188.4 415.34,-169.91 417.06,-155.61"/>
<polygon fill="#63b8ff" stroke="#63b8ff" points="420.53,-156.15 417.83,-145.9 413.55,-155.6 420.53,-156.15"/>
</a>
</g>
</g>
<!-- Node14 -->
<g id="Node000014" class="node">
<title>Node14</title>
<g id="a_Node000014"><a xlink:title=" ">
<polygon fill="#e0e0e0" stroke="#999999" points="539.59,-200 446.34,-200 446.34,-180 539.59,-180 539.59,-200"/>
<text xml:space="preserve" text-anchor="middle" x="492.97" y="-186.5" font-family="Helvetica,sans-Serif" font-size="10.00">mx25um51245g.h</text>
</a>
</g>
</g>
<!-- Node1&#45;&gt;Node14 -->
<g id="edge17_Node000001_Node000014" class="edge">
<title>Node1&#45;&gt;Node14</title>
<g id="a_edge17_Node000001_Node000014"><a xlink:title=" ">
<path fill="none" stroke="#63b8ff" d="M256.95,-240.21C296.91,-231.88 380.28,-214.49 436.45,-202.78"/>
<polygon fill="#63b8ff" stroke="#63b8ff" points="437.09,-206.22 446.17,-200.76 435.66,-199.37 437.09,-206.22"/>
</a>
</g>
</g>
<!-- Node3 -->
<g id="Node000003" class="node">
<title>Node3</title>
<g id="a_Node000003"><a xlink:title=" ">
<polygon fill="#e0e0e0" stroke="#999999" points="331.09,-20 240.84,-20 240.84,0 331.09,0 331.09,-20"/>
<text xml:space="preserve" text-anchor="middle" x="285.97" y="-6.5" font-family="Helvetica,sans-Serif" font-size="10.00">stm32n6xx_hal.h</text>
</a>
</g>
</g>
<!-- Node2&#45;&gt;Node3 -->
<g id="edge2_Node000002_Node000003" class="edge">
<title>Node2&#45;&gt;Node3</title>
<g id="a_edge2_Node000002_Node000003"><a xlink:title=" ">
<path fill="none" stroke="#63b8ff" d="M93.94,-123.63C129.71,-102.65 216.5,-51.74 260.09,-26.18"/>
<polygon fill="#63b8ff" stroke="#63b8ff" points="261.78,-29.25 268.63,-21.17 258.23,-23.21 261.78,-29.25"/>
</a>
</g>
</g>
<!-- Node9&#45;&gt;Node3 -->
<g id="edge9_Node000009_Node000003" class="edge">
<title>Node9&#45;&gt;Node3</title>
<g id="a_edge9_Node000009_Node000003"><a xlink:title=" ">
<path fill="none" stroke="#63b8ff" d="M352.92,-179.63C341.94,-162.23 318.57,-123.46 304.97,-88 297.8,-69.34 292.65,-47.08 289.54,-31.3"/>
<polygon fill="#63b8ff" stroke="#63b8ff" points="293.03,-30.91 287.75,-21.72 286.14,-32.19 293.03,-30.91"/>
</a>
</g>
</g>
<!-- Node9&#45;&gt;Node7 -->
<g id="edge15_Node000009_Node000007" class="edge">
<title>Node9&#45;&gt;Node7</title>
<g id="a_edge15_Node000009_Node000007"><a xlink:title=" ">
<path fill="none" stroke="#63b8ff" d="M337.19,-179.59C317.6,-171.13 288.54,-158.58 266.24,-148.94"/>
<polygon fill="#63b8ff" stroke="#63b8ff" points="267.87,-145.83 257.3,-145.08 265.09,-152.26 267.87,-145.83"/>
</a>
</g>
</g>
<!-- Node9&#45;&gt;Node10 -->
<g id="edge10_Node000009_Node000010" class="edge">
<title>Node9&#45;&gt;Node10</title>
<g id="a_edge10_Node000009_Node000010"><a xlink:title=" ">
<path fill="none" stroke="#63b8ff" d="M369.24,-179.59C377.53,-172.01 389.41,-161.13 399.37,-152.02"/>
<polygon fill="#63b8ff" stroke="#63b8ff" points="401.68,-154.65 406.69,-145.32 396.95,-149.49 401.68,-154.65"/>
</a>
</g>
</g>
<!-- Node11 -->
<g id="Node000011" class="node">
<title>Node11</title>
<g id="a_Node000011"><a xlink:href="stm32n6xx__nucleo__conf_8h.html" target="_top" xlink:title="STM32N6XX nucleo board configuration file.">
<polygon fill="white" stroke="#666666" points="443.97,-82 313.97,-82 313.97,-62 443.97,-62 443.97,-82"/>
<text xml:space="preserve" text-anchor="middle" x="378.97" y="-68.5" font-family="Helvetica,sans-Serif" font-size="10.00">stm32n6xx_nucleo_conf.h</text>
</a>
</g>
</g>
<!-- Node10&#45;&gt;Node11 -->
<g id="edge11_Node000010_Node000011" class="edge">
<title>Node10&#45;&gt;Node11</title>
<g id="a_edge11_Node000010_Node000011"><a xlink:title=" ">
<path fill="none" stroke="#63b8ff" d="M411.87,-123.62C406.35,-115.12 398.03,-102.33 391.15,-91.74"/>
<polygon fill="#63b8ff" stroke="#63b8ff" points="394.1,-89.86 385.71,-83.38 388.23,-93.67 394.1,-89.86"/>
</a>
</g>
</g>
<!-- Node12 -->
<g id="Node000012" class="node">
<title>Node12</title>
<g id="a_Node000012"><a xlink:href="stm32n6xx__nucleo__errno_8h.html" target="_top" xlink:title="Error code definitions.">
<polygon fill="white" stroke="#666666" points="595.47,-82 462.47,-82 462.47,-62 595.47,-62 595.47,-82"/>
<text xml:space="preserve" text-anchor="middle" x="528.97" y="-68.5" font-family="Helvetica,sans-Serif" font-size="10.00">stm32n6xx_nucleo_errno.h</text>
</a>
</g>
</g>
<!-- Node10&#45;&gt;Node12 -->
<g id="edge13_Node000010_Node000012" class="edge">
<title>Node10&#45;&gt;Node12</title>
<g id="a_edge13_Node000010_Node000012"><a xlink:title=" ">
<path fill="none" stroke="#63b8ff" d="M435.31,-123.62C453.07,-114.03 480.93,-98.97 501.65,-87.77"/>
<polygon fill="#63b8ff" stroke="#63b8ff" points="503.28,-90.86 510.41,-83.03 499.95,-84.71 503.28,-90.86"/>
</a>
</g>
</g>
<!-- Node13 -->
<g id="Node000013" class="node">
<title>Node13</title>
<g id="a_Node000013"><a xlink:title=" ">
<polygon fill="#e0e0e0" stroke="#999999" points="766.22,-88 613.72,-88 613.72,-56 766.22,-56 766.22,-88"/>
<text xml:space="preserve" text-anchor="start" x="621.72" y="-74.5" font-family="Helvetica,sans-Serif" font-size="10.00">../Components/mx25um51245g</text>
<text xml:space="preserve" text-anchor="middle" x="689.97" y="-62.5" font-family="Helvetica,sans-Serif" font-size="10.00">/mx25um51245g.h</text>
</a>
</g>
</g>
<!-- Node10&#45;&gt;Node13 -->
<g id="edge14_Node000010_Node000013" class="edge">
<title>Node10&#45;&gt;Node13</title>
<g id="a_edge14_Node000010_Node000013"><a xlink:title=" ">
<path fill="none" stroke="#63b8ff" d="M460.77,-123.56C500.32,-114.83 560.15,-101.64 608.76,-90.91"/>
<polygon fill="#63b8ff" stroke="#63b8ff" points="609.41,-94.35 618.42,-88.78 607.9,-87.52 609.41,-94.35"/>
</a>
</g>
</g>
<!-- Node11&#45;&gt;Node3 -->
<g id="edge12_Node000011_Node000003" class="edge">
<title>Node11&#45;&gt;Node3</title>
<g id="a_edge12_Node000011_Node000003"><a xlink:title=" ">
<path fill="none" stroke="#63b8ff" d="M364.43,-61.62C349.83,-52.2 327.07,-37.52 309.82,-26.39"/>
<polygon fill="#63b8ff" stroke="#63b8ff" points="311.97,-23.61 301.67,-21.13 308.17,-29.49 311.97,-23.61"/>
</a>
</g>
</g>
</g>
</svg>
