<?xml version="1.0" encoding="UTF-8" standalone="no"?>
<!DOCTYPE svg PUBLIC "-//W3C//DTD SVG 1.1//EN"
 "http://www.w3.org/Graphics/SVG/1.1/DTD/svg11.dtd">
<!-- Generated by graphviz version 14.0.2 (20251019.1705)
 -->
<!-- Title: Error_Handler Pages: 1 -->
<svg width="349pt" height="370pt"
 viewBox="0.00 0.00 349.00 370.00" xmlns="http://www.w3.org/2000/svg" xmlns:xlink="http://www.w3.org/1999/xlink">
<g id="graph0" class="graph" transform="scale(1 1) rotate(0) translate(4 366)">
<title>Error_Handler</title>
<!-- Node1 -->
<g id="Node000001" class="node">
<title>Node1</title>
<g id="a_Node000001"><a xlink:title="This function is executed in case of error occurrence.">
<polygon fill="#999999" stroke="#666666" points="341.25,-191 265.25,-191 265.25,-171 341.25,-171 341.25,-191"/>
<text xml:space="preserve" text-anchor="middle" x="303.25" y="-177.5" font-family="Helvetica,sans-Serif" font-size="10.00">Error_Handler</text>
</a>
</g>
</g>
<!-- Node2 -->
<g id="Node000002" class="node">
<title>Node2</title>
<g id="a_Node000002"><a xlink:href="stm32n6xx__hal__msp_8c.html#a0e553b32211877322f949b14801bbfa7" target="_top" xlink:title="UART MSP Initialization This function configures the hardware resources used in this example.">
<polygon fill="white" stroke="#666666" points="203.75,-362 98.5,-362 98.5,-342 203.75,-342 203.75,-362"/>
<text xml:space="preserve" text-anchor="middle" x="151.12" y="-348.5" font-family="Helvetica,sans-Serif" font-size="10.00">HAL_UART_MspInit</text>
</a>
</g>
</g>
<!-- Node1&#45;&gt;Node2 -->
<g id="edge1_Node000001_Node000002" class="edge">
<title>Node1&#45;&gt;Node2</title>
<g id="a_edge1_Node000001_Node000002"><a xlink:title=" ">
<path fill="none" stroke="#63b8ff" d="M298.04,-202.49C290.38,-235.68 270.95,-299.12 229.25,-333 221.97,-338.91 213.12,-343.03 204.04,-345.88"/>
<polygon fill="#63b8ff" stroke="#63b8ff" points="301.43,-203.37 300.1,-192.85 294.59,-201.9 301.43,-203.37"/>
</a>
</g>
</g>
<!-- Node3 -->
<g id="Node000003" class="node">
<title>Node3</title>
<g id="a_Node000003"><a xlink:href="stm32n6xx__hal__msp_8c.html#aef94fc58c61919b662ea2e42ccb6e262" target="_top" xlink:title="XSPI MSP Initialization This function configures the hardware resources used in this example.">
<polygon fill="white" stroke="#666666" points="201.88,-324 100.38,-324 100.38,-304 201.88,-304 201.88,-324"/>
<text xml:space="preserve" text-anchor="middle" x="151.12" y="-310.5" font-family="Helvetica,sans-Serif" font-size="10.00">HAL_XSPI_MspInit</text>
</a>
</g>
</g>
<!-- Node1&#45;&gt;Node3 -->
<g id="edge2_Node000001_Node000003" class="edge">
<title>Node1&#45;&gt;Node3</title>
<g id="a_edge2_Node000001_Node000003"><a xlink:title=" ">
<path fill="none" stroke="#63b8ff" d="M293.59,-201.77C282.31,-226.34 260.29,-266.83 229.25,-290 221.27,-295.96 211.79,-300.45 202.24,-303.84"/>
<polygon fill="#63b8ff" stroke="#63b8ff" points="296.71,-203.37 297.53,-192.81 290.3,-200.56 296.71,-203.37"/>
</a>
</g>
</g>
<!-- Node4 -->
<g id="Node000004" class="node">
<title>Node4</title>
<g id="a_Node000004"><a xlink:href="main_8c.html#a840291bc02cba5474a4cb46a9b9566fe" target="_top" xlink:title="Hauptprogramm&#45;Einstiegspunkt.">
<polygon fill="white" stroke="#666666" points="37,-172 0,-172 0,-152 37,-152 37,-172"/>
<text xml:space="preserve" text-anchor="middle" x="18.5" y="-158.5" font-family="Helvetica,sans-Serif" font-size="10.00">main</text>
</a>
</g>
</g>
<!-- Node1&#45;&gt;Node4 -->
<g id="edge3_Node000001_Node000004" class="edge">
<title>Node1&#45;&gt;Node4</title>
<g id="a_edge3_Node000001_Node000004"><a xlink:title=" ">
<path fill="none" stroke="#63b8ff" d="M290.01,-200.94C277.39,-219.41 255.82,-245.68 229.25,-257 165.36,-284.22 132.95,-292.04 73,-257 41.13,-238.37 26.77,-193 21.74,-172.44"/>
<polygon fill="#63b8ff" stroke="#63b8ff" points="292.89,-202.94 295.41,-192.65 287.02,-199.13 292.89,-202.94"/>
</a>
</g>
</g>
<!-- Node5 -->
<g id="Node000005" class="node">
<title>Node5</title>
<g id="a_Node000005"><a xlink:href="main_8c.html#a62f4b77e20bccafe98a183771749c20c" target="_top" xlink:title="USART1 Initialization Function.">
<polygon fill="white" stroke="#666666" points="214.25,-248 88,-248 88,-228 214.25,-228 214.25,-248"/>
<text xml:space="preserve" text-anchor="middle" x="151.12" y="-234.5" font-family="Helvetica,sans-Serif" font-size="10.00">MX_USART1_UART_Init</text>
</a>
</g>
</g>
<!-- Node1&#45;&gt;Node5 -->
<g id="edge4_Node000001_Node000005" class="edge">
<title>Node1&#45;&gt;Node5</title>
<g id="a_edge4_Node000001_Node000005"><a xlink:title=" ">
<path fill="none" stroke="#63b8ff" d="M275.09,-197.12C261.64,-204.57 244.97,-213.07 229.25,-219 220.61,-222.26 211.2,-225.12 202.03,-227.56"/>
<polygon fill="#63b8ff" stroke="#63b8ff" points="276.81,-200.16 283.78,-192.18 273.35,-194.08 276.81,-200.16"/>
</a>
</g>
</g>
<!-- Node6 -->
<g id="Node000006" class="node">
<title>Node6</title>
<g id="a_Node000006"><a xlink:href="main_8c.html#a60261eba3fc793ee811755a2287e7630" target="_top" xlink:title="Initialisiert XSPI2 (Octal DTR MemoryMapped Mode).">
<polygon fill="white" stroke="#666666" points="192.88,-210 109.38,-210 109.38,-190 192.88,-190 192.88,-210"/>
<text xml:space="preserve" text-anchor="middle" x="151.12" y="-196.5" font-family="Helvetica,sans-Serif" font-size="10.00">MX_XSPI2_Init</text>
</a>
</g>
</g>
<!-- Node1&#45;&gt;Node6 -->
<g id="edge6_Node000001_Node000006" class="edge">
<title>Node1&#45;&gt;Node6</title>
<g id="a_edge6_Node000001_Node000006"><a xlink:title=" ">
<path fill="none" stroke="#63b8ff" d="M253.39,-187.18C233.99,-189.64 211.93,-192.43 193.36,-194.78"/>
<polygon fill="#63b8ff" stroke="#63b8ff" points="253.77,-190.66 263.25,-185.94 252.89,-183.72 253.77,-190.66"/>
</a>
</g>
</g>
<!-- Node7 -->
<g id="Node000007" class="node">
<title>Node7</title>
<g id="a_Node000007"><a xlink:href="main_8c.html#a70af21c671abfcc773614a9a4f63d920" target="_top" xlink:title="Initialisiert den Systemtakt (PLL, Busse, IC&#45;Domain).">
<polygon fill="white" stroke="#666666" points="205.62,-172 96.62,-172 96.62,-152 205.62,-152 205.62,-172"/>
<text xml:space="preserve" text-anchor="middle" x="151.12" y="-158.5" font-family="Helvetica,sans-Serif" font-size="10.00">SystemClock_Config</text>
</a>
</g>
</g>
<!-- Node1&#45;&gt;Node7 -->
<g id="edge8_Node000001_Node000007" class="edge">
<title>Node1&#45;&gt;Node7</title>
<g id="a_edge8_Node000001_Node000007"><a xlink:title=" ">
<path fill="none" stroke="#63b8ff" d="M253.48,-174.83C238.26,-172.9 221.39,-170.77 205.84,-168.8"/>
<polygon fill="#63b8ff" stroke="#63b8ff" points="252.89,-178.28 263.25,-176.06 253.77,-171.34 252.89,-178.28"/>
</a>
</g>
</g>
<!-- Node8 -->
<g id="Node000008" class="node">
<title>Node8</title>
<g id="a_Node000008"><a xlink:href="main_8c.html#a146935b63d2990b0f6569670f1bd1688" target="_top" xlink:title=" ">
<polygon fill="white" stroke="#666666" points="200,-134 102.25,-134 102.25,-114 200,-114 200,-134"/>
<text xml:space="preserve" text-anchor="middle" x="151.12" y="-120.5" font-family="Helvetica,sans-Serif" font-size="10.00">thermal_vsync_init</text>
</a>
</g>
</g>
<!-- Node1&#45;&gt;Node8 -->
<g id="edge10_Node000001_Node000008" class="edge">
<title>Node1&#45;&gt;Node8</title>
<g id="a_edge10_Node000001_Node000008"><a xlink:title=" ">
<path fill="none" stroke="#63b8ff" d="M275.09,-164.88C261.64,-157.43 244.97,-148.93 229.25,-143 220.09,-139.54 210.08,-136.54 200.39,-134.01"/>
<polygon fill="#63b8ff" stroke="#63b8ff" points="273.35,-167.92 283.78,-169.82 276.81,-161.84 273.35,-167.92"/>
</a>
</g>
</g>
<!-- Node9 -->
<g id="Node000009" class="node">
<title>Node9</title>
<g id="a_Node000009"><a xlink:href="main_8c.html#ac7bc33868f36b01a0e1129391f38f8c0" target="_top" xlink:title=" ">
<polygon fill="white" stroke="#666666" points="203.38,-96 98.88,-96 98.88,-76 203.38,-76 203.38,-96"/>
<text xml:space="preserve" text-anchor="middle" x="151.12" y="-82.5" font-family="Helvetica,sans-Serif" font-size="10.00">thermal_vsync_start</text>
</a>
</g>
</g>
<!-- Node1&#45;&gt;Node9 -->
<g id="edge12_Node000001_Node000009" class="edge">
<title>Node1&#45;&gt;Node9</title>
<g id="a_edge12_Node000001_Node000009"><a xlink:title=" ">
<path fill="none" stroke="#63b8ff" d="M288.51,-161.35C275.29,-143.93 253.75,-119.15 229.25,-105 221.37,-100.45 212.42,-96.98 203.49,-94.34"/>
<polygon fill="#63b8ff" stroke="#63b8ff" points="285.66,-163.38 294.39,-169.39 291.31,-159.25 285.66,-163.38"/>
</a>
</g>
</g>
<!-- Node10 -->
<g id="Node000010" class="node">
<title>Node10</title>
<g id="a_Node000010"><a xlink:href="xspi__nor_8c.html#aecd84e9f4d3be12e230d05cb6aba364c" target="_top" xlink:title="Initialize XSPI2 NOR Flash in Octal DTR Mode.">
<polygon fill="white" stroke="#666666" points="202.25,-58 100,-58 100,-38 202.25,-38 202.25,-58"/>
<text xml:space="preserve" text-anchor="middle" x="151.12" y="-44.5" font-family="Helvetica,sans-Serif" font-size="10.00">XSPI_NOR_Init_All</text>
</a>
</g>
</g>
<!-- Node1&#45;&gt;Node10 -->
<g id="edge14_Node000001_Node000010" class="edge">
<title>Node1&#45;&gt;Node10</title>
<g id="a_edge14_Node000001_Node000010"><a xlink:title=" ">
<path fill="none" stroke="#63b8ff" d="M294.55,-160.09C283.92,-134.19 262.23,-90.61 229.25,-67 221.4,-61.38 212.08,-57.41 202.67,-54.62"/>
<polygon fill="#63b8ff" stroke="#63b8ff" points="291.21,-161.16 298.11,-169.2 297.73,-158.61 291.21,-161.16"/>
</a>
</g>
</g>
<!-- Node11 -->
<g id="Node000011" class="node">
<title>Node11</title>
<g id="a_Node000011"><a xlink:href="main_8c.html#a95e55441d0d167805773df306e629006" target="_top" xlink:title="This function configure the memory in Octal DTR mode.">
<polygon fill="white" stroke="#666666" points="229.25,-20 73,-20 73,0 229.25,0 229.25,-20"/>
<text xml:space="preserve" text-anchor="middle" x="151.12" y="-6.5" font-family="Helvetica,sans-Serif" font-size="10.00">XSPI_NOR_OctalDTRModeCfg</text>
</a>
</g>
</g>
<!-- Node1&#45;&gt;Node11 -->
<g id="edge15_Node000001_Node000011" class="edge">
<title>Node1&#45;&gt;Node11</title>
<g id="a_edge15_Node000001_Node000011"><a xlink:title=" ">
<path fill="none" stroke="#63b8ff" d="M298.04,-159.51C290.38,-126.32 270.95,-62.88 229.25,-29 224.97,-25.52 220.14,-22.67 215.05,-20.32"/>
<polygon fill="#63b8ff" stroke="#63b8ff" points="294.59,-160.1 300.1,-169.15 301.43,-158.63 294.59,-160.1"/>
</a>
</g>
</g>
<!-- Node5&#45;&gt;Node4 -->
<g id="edge5_Node000005_Node000004" class="edge">
<title>Node5&#45;&gt;Node4</title>
<g id="a_edge5_Node000005_Node000004"><a xlink:title=" ">
<path fill="none" stroke="#63b8ff" d="M81.25,-223.27C78.41,-221.97 75.64,-220.55 73,-219 52.62,-207.08 35.23,-185.03 26.18,-172.13"/>
<polygon fill="#63b8ff" stroke="#63b8ff" points="79.85,-226.48 90.43,-226.95 82.45,-219.98 79.85,-226.48"/>
</a>
</g>
</g>
<!-- Node6&#45;&gt;Node4 -->
<g id="edge7_Node000006_Node000004" class="edge">
<title>Node6&#45;&gt;Node4</title>
<g id="a_edge7_Node000006_Node000004"><a xlink:title=" ">
<path fill="none" stroke="#63b8ff" d="M98.15,-187.95C89.71,-185.77 81.08,-183.42 73,-181 60.92,-177.38 47.54,-172.63 37.19,-168.78"/>
<polygon fill="#63b8ff" stroke="#63b8ff" points="97.07,-191.29 107.62,-190.33 98.78,-184.5 97.07,-191.29"/>
</a>
</g>
</g>
<!-- Node7&#45;&gt;Node4 -->
<g id="edge9_Node000007_Node000004" class="edge">
<title>Node7&#45;&gt;Node4</title>
<g id="a_edge9_Node000007_Node000004"><a xlink:title=" ">
<path fill="none" stroke="#63b8ff" d="M84.77,-162C67.23,-162 49.7,-162 37.23,-162"/>
<polygon fill="#63b8ff" stroke="#63b8ff" points="84.73,-165.5 94.73,-162 84.73,-158.5 84.73,-165.5"/>
</a>
</g>
</g>
<!-- Node8&#45;&gt;Node4 -->
<g id="edge11_Node000008_Node000004" class="edge">
<title>Node8&#45;&gt;Node4</title>
<g id="a_edge11_Node000008_Node000004"><a xlink:title=" ">
<path fill="none" stroke="#63b8ff" d="M93.73,-137.2C86.72,-139.05 79.67,-141 73,-143 60.92,-146.62 47.54,-151.37 37.19,-155.22"/>
<polygon fill="#63b8ff" stroke="#63b8ff" points="94.37,-140.65 103.19,-134.78 92.63,-133.87 94.37,-140.65"/>
</a>
</g>
</g>
<!-- Node9&#45;&gt;Node4 -->
<g id="edge13_Node000009_Node000004" class="edge">
<title>Node9&#45;&gt;Node4</title>
<g id="a_edge13_Node000009_Node000004"><a xlink:title=" ">
<path fill="none" stroke="#63b8ff" d="M87.91,-97.93C82.71,-99.93 77.66,-102.27 73,-105 52.62,-116.92 35.23,-138.97 26.18,-151.87"/>
<polygon fill="#63b8ff" stroke="#63b8ff" points="88.93,-101.28 97.28,-94.75 86.69,-94.65 88.93,-101.28"/>
</a>
</g>
</g>
<!-- Node11&#45;&gt;Node4 -->
<g id="edge16_Node000011_Node000004" class="edge">
<title>Node11&#45;&gt;Node4</title>
<g id="a_edge16_Node000011_Node000004"><a xlink:title=" ">
<path fill="none" stroke="#63b8ff" d="M76.46,-26.24C75.27,-27.12 74.11,-28.03 73,-29 34.85,-62.12 23.56,-126.34 20.52,-151.52"/>
<polygon fill="#63b8ff" stroke="#63b8ff" points="78.13,-29.32 84.9,-21.17 74.53,-23.32 78.13,-29.32"/>
</a>
</g>
</g>
</g>
</svg>
