<?xml version="1.0" encoding="UTF-8" standalone="no"?>
<!DOCTYPE svg PUBLIC "-//W3C//DTD SVG 1.1//EN"
 "http://www.w3.org/Graphics/SVG/1.1/DTD/svg11.dtd">
<!-- Generated by graphviz version 14.0.2 (20251019.1705)
 -->
<!-- Title: main Pages: 1 -->
<svg width="398pt" height="786pt"
 viewBox="0.00 0.00 398.00 786.00" xmlns="http://www.w3.org/2000/svg" xmlns:xlink="http://www.w3.org/1999/xlink">
<g id="graph0" class="graph" transform="scale(1 1) rotate(0) translate(4 782)">
<title>main</title>
<!-- Node1 -->
<g id="Node000001" class="node">
<title>Node1</title>
<g id="a_Node000001"><a xlink:title="Hauptprogramm&#45;Einstiegspunkt.">
<polygon fill="#999999" stroke="#666666" points="37,-405 0,-405 0,-385 37,-385 37,-405"/>
<text xml:space="preserve" text-anchor="middle" x="18.5" y="-391.5" font-family="Helvetica,sans-Serif" font-size="10.00">main</text>
</a>
</g>
</g>
<!-- Node2 -->
<g id="Node000002" class="node">
<title>Node2</title>
<g id="a_Node000002"><a xlink:href="main_8c.html#a109c9136dd8ff3e1bb95c9f2ab5de884" target="_top" xlink:title="Korrigiert fehlerhafte Pixel (einfache Variante).">
<polygon fill="white" stroke="#666666" points="200,-778 102.25,-778 102.25,-746 200,-746 200,-778"/>
<text xml:space="preserve" text-anchor="start" x="110.25" y="-764.5" font-family="Helvetica,sans-Serif" font-size="10.00">correct_bad_pixels</text>
<text xml:space="preserve" text-anchor="middle" x="151.12" y="-752.5" font-family="Helvetica,sans-Serif" font-size="10.00">_simple</text>
</a>
</g>
</g>
<!-- Node1&#45;&gt;Node2 -->
<g id="edge1_Node000001_Node000002" class="edge">
<title>Node1&#45;&gt;Node2</title>
<g id="a_edge1_Node000001_Node000002"><a xlink:title=" ">
<path fill="none" stroke="#63b8ff" d="M19.7,-405.17C20.91,-456.34 28.73,-685.11 73,-737 78.03,-742.9 84.47,-747.42 91.48,-750.88"/>
<polygon fill="#63b8ff" stroke="#63b8ff" points="90.07,-754.08 100.65,-754.65 92.73,-747.61 90.07,-754.08"/>
</a>
</g>
</g>
<!-- Node3 -->
<g id="Node000003" class="node">
<title>Node3</title>
<g id="a_Node000003"><a xlink:href="main_8c.html#af4b7e8a72db498ee767f48bca7fcfcf3" target="_top" xlink:title=" ">
<polygon fill="white" stroke="#666666" points="212.75,-728 89.5,-728 89.5,-708 212.75,-708 212.75,-728"/>
<text xml:space="preserve" text-anchor="middle" x="151.12" y="-714.5" font-family="Helvetica,sans-Serif" font-size="10.00">DWT_CycleCounter_Init</text>
</a>
</g>
</g>
<!-- Node1&#45;&gt;Node3 -->
<g id="edge2_Node000001_Node000003" class="edge">
<title>Node1&#45;&gt;Node3</title>
<g id="a_edge2_Node000001_Node000003"><a xlink:title=" ">
<path fill="none" stroke="#63b8ff" d="M19.85,-405.36C21.7,-453.5 31.83,-654.96 73,-699 74.98,-701.12 77.15,-703.01 79.47,-704.71"/>
<polygon fill="#63b8ff" stroke="#63b8ff" points="77.37,-707.53 87.76,-709.57 80.9,-701.49 77.37,-707.53"/>
</a>
</g>
</g>
<!-- Node4 -->
<g id="Node000004" class="node">
<title>Node4</title>
<g id="a_Node000004"><a xlink:href="main_8c.html#a1730ffe1e560465665eb47d9264826f9" target="_top" xlink:title="This function is executed in case of error occurrence.">
<polygon fill="white" stroke="#666666" points="365.62,-134 289.62,-134 289.62,-114 365.62,-114 365.62,-134"/>
<text xml:space="preserve" text-anchor="middle" x="327.62" y="-120.5" font-family="Helvetica,sans-Serif" font-size="10.00">Error_Handler</text>
</a>
</g>
</g>
<!-- Node1&#45;&gt;Node4 -->
<g id="edge3_Node000001_Node000004" class="edge">
<title>Node1&#45;&gt;Node4</title>
<g id="a_edge3_Node000001_Node000004"><a xlink:title=" ">
<path fill="none" stroke="#63b8ff" d="M19.72,-384.58C20.99,-337.07 28.83,-141.77 73,-105 136.37,-52.25 242.22,-86.56 294.88,-108.99"/>
<polygon fill="#63b8ff" stroke="#63b8ff" points="293.32,-112.13 303.88,-112.95 296.14,-105.72 293.32,-112.13"/>
</a>
</g>
</g>
<!-- Node5 -->
<g id="Node000005" class="node">
<title>Node5</title>
<g id="a_Node000005"><a xlink:href="main_8c.html#abbb9cd5d6c8b13356d801322b2b3a5df" target="_top" xlink:title=" ">
<polygon fill="white" stroke="#666666" points="185.38,-652 116.88,-652 116.88,-632 185.38,-632 185.38,-652"/>
<text xml:space="preserve" text-anchor="middle" x="151.12" y="-638.5" font-family="Helvetica,sans-Serif" font-size="10.00">gain_to_q15</text>
</a>
</g>
</g>
<!-- Node1&#45;&gt;Node5 -->
<g id="edge4_Node000001_Node000005" class="edge">
<title>Node1&#45;&gt;Node5</title>
<g id="a_edge4_Node000001_Node000005"><a xlink:title=" ">
<path fill="none" stroke="#63b8ff" d="M20.51,-405.37C24.64,-445.67 41.55,-591.2 73,-623 81.6,-631.69 93.49,-636.64 105.37,-639.4"/>
<polygon fill="#63b8ff" stroke="#63b8ff" points="104.69,-642.84 115.15,-641.16 105.92,-635.95 104.69,-642.84"/>
</a>
</g>
</g>
<!-- Node6 -->
<g id="Node000006" class="node">
<title>Node6</title>
<g id="a_Node000006"><a xlink:href="main_8c.html#a7f78882baee3fc59805caf946080e87a" target="_top" xlink:title=" ">
<polygon fill="white" stroke="#666666" points="192.12,-614 110.12,-614 110.12,-594 192.12,-594 192.12,-614"/>
<text xml:space="preserve" text-anchor="middle" x="151.12" y="-600.5" font-family="Helvetica,sans-Serif" font-size="10.00">init_gain_frame</text>
</a>
</g>
</g>
<!-- Node1&#45;&gt;Node6 -->
<g id="edge5_Node000001_Node000006" class="edge">
<title>Node1&#45;&gt;Node6</title>
<g id="a_edge5_Node000001_Node000006"><a xlink:title=" ">
<path fill="none" stroke="#63b8ff" d="M19.07,-405.43C18.36,-437.33 20.79,-534.48 73,-585 80.05,-591.82 89.14,-596.32 98.59,-599.26"/>
<polygon fill="#63b8ff" stroke="#63b8ff" points="97.73,-602.65 108.28,-601.67 99.43,-595.86 97.73,-602.65"/>
</a>
</g>
</g>
<!-- Node7 -->
<g id="Node000007" class="node">
<title>Node7</title>
<g id="a_Node000007"><a xlink:href="main_8c.html#a871eca9b13486157307efb50271ab52a" target="_top" xlink:title=" ">
<polygon fill="white" stroke="#666666" points="190.25,-690 112,-690 112,-670 190.25,-670 190.25,-690"/>
<text xml:space="preserve" text-anchor="middle" x="151.12" y="-676.5" font-family="Helvetica,sans-Serif" font-size="10.00">init_planck_lut</text>
</a>
</g>
</g>
<!-- Node1&#45;&gt;Node7 -->
<g id="edge6_Node000001_Node000007" class="edge">
<title>Node1&#45;&gt;Node7</title>
<g id="a_edge6_Node000001_Node000007"><a xlink:title=" ">
<path fill="none" stroke="#63b8ff" d="M20.13,-405.23C23.04,-449.38 36.67,-623.07 73,-661 80.36,-668.68 90.28,-673.46 100.55,-676.38"/>
<polygon fill="#63b8ff" stroke="#63b8ff" points="99.73,-679.79 110.26,-678.55 101.26,-672.95 99.73,-679.79"/>
</a>
</g>
</g>
<!-- Node9 -->
<g id="Node000009" class="node">
<title>Node9</title>
<g id="a_Node000009"><a xlink:href="main_8c.html#ac02210515137b859e7acf747efc220e2" target="_top" xlink:title="Prüft, ob eine Kalibrierung aktiv ist.">
<polygon fill="white" stroke="#666666" points="187.62,-538 114.62,-538 114.62,-518 187.62,-518 187.62,-538"/>
<text xml:space="preserve" text-anchor="middle" x="151.12" y="-524.5" font-family="Helvetica,sans-Serif" font-size="10.00">is_calibrating</text>
</a>
</g>
</g>
<!-- Node1&#45;&gt;Node9 -->
<g id="edge8_Node000001_Node000009" class="edge">
<title>Node1&#45;&gt;Node9</title>
<g id="a_edge8_Node000001_Node000009"><a xlink:title=" ">
<path fill="none" stroke="#63b8ff" d="M21.27,-405.34C25.69,-427.83 39.36,-481.41 73,-509 81.55,-516.01 92.3,-520.49 103.05,-523.34"/>
<polygon fill="#63b8ff" stroke="#63b8ff" points="102.15,-526.73 112.67,-525.44 103.64,-519.89 102.15,-526.73"/>
</a>
</g>
</g>
<!-- Node10 -->
<g id="Node000010" class="node">
<title>Node10</title>
<g id="a_Node000010"><a xlink:href="main_8c.html#a7c547974e57013d24e39911f53aaf9c5" target="_top" xlink:title=" ">
<polygon fill="white" stroke="#666666" points="203.38,-576 98.88,-576 98.88,-556 203.38,-556 203.38,-576"/>
<text xml:space="preserve" text-anchor="middle" x="151.12" y="-562.5" font-family="Helvetica,sans-Serif" font-size="10.00">load_bad_pixel_map</text>
</a>
</g>
</g>
<!-- Node1&#45;&gt;Node10 -->
<g id="edge9_Node000001_Node000010" class="edge">
<title>Node1&#45;&gt;Node10</title>
<g id="a_edge9_Node000001_Node000010"><a xlink:title=" ">
<path fill="none" stroke="#63b8ff" d="M19.92,-405.3C21.6,-432.72 30.12,-508.08 73,-547 77.36,-550.95 82.4,-554.12 87.79,-556.64"/>
<polygon fill="#63b8ff" stroke="#63b8ff" points="86.46,-559.88 97.05,-560.21 88.98,-553.35 86.46,-559.88"/>
</a>
</g>
</g>
<!-- Node12 -->
<g id="Node000012" class="node">
<title>Node12</title>
<g id="a_Node000012"><a xlink:href="main_8c.html#ae89fdd15729ad41a66911190fcbab23a" target="_top" xlink:title="Initialisiert GPIOs (LEDs, Debugpins).">
<polygon fill="white" stroke="#666666" points="191,-462 111.25,-462 111.25,-442 191,-442 191,-462"/>
<text xml:space="preserve" text-anchor="middle" x="151.12" y="-448.5" font-family="Helvetica,sans-Serif" font-size="10.00">MX_GPIO_Init</text>
</a>
</g>
</g>
<!-- Node1&#45;&gt;Node12 -->
<g id="edge11_Node000001_Node000012" class="edge">
<title>Node1&#45;&gt;Node12</title>
<g id="a_edge11_Node000001_Node000012"><a xlink:title=" ">
<path fill="none" stroke="#63b8ff" d="M31.43,-405.49C41.77,-414.06 57.46,-425.88 73,-433 81.47,-436.88 90.84,-440.03 100.04,-442.58"/>
<polygon fill="#63b8ff" stroke="#63b8ff" points="99.09,-445.95 109.65,-445.01 100.81,-439.16 99.09,-445.95"/>
</a>
</g>
</g>
<!-- Node13 -->
<g id="Node000013" class="node">
<title>Node13</title>
<g id="a_Node000013"><a xlink:href="main_8c.html#a62f4b77e20bccafe98a183771749c20c" target="_top" xlink:title="USART1 Initialization Function.">
<polygon fill="white" stroke="#666666" points="214.25,-500 88,-500 88,-480 214.25,-480 214.25,-500"/>
<text xml:space="preserve" text-anchor="middle" x="151.12" y="-486.5" font-family="Helvetica,sans-Serif" font-size="10.00">MX_USART1_UART_Init</text>
</a>
</g>
</g>
<!-- Node1&#45;&gt;Node13 -->
<g id="edge12_Node000001_Node000013" class="edge">
<title>Node1&#45;&gt;Node13</title>
<g id="a_edge12_Node000001_Node000013"><a xlink:title=" ">
<path fill="none" stroke="#63b8ff" d="M23.88,-405.41C31.39,-421.97 48.35,-454.16 73,-471 74.96,-472.34 77,-473.58 79.11,-474.74"/>
<polygon fill="#63b8ff" stroke="#63b8ff" points="77.45,-477.82 87.99,-478.89 80.41,-471.48 77.45,-477.82"/>
</a>
</g>
</g>
<!-- Node14 -->
<g id="Node000014" class="node">
<title>Node14</title>
<g id="a_Node000014"><a xlink:href="main_8c.html#a60261eba3fc793ee811755a2287e7630" target="_top" xlink:title="Initialisiert XSPI2 (Octal DTR MemoryMapped Mode).">
<polygon fill="white" stroke="#666666" points="192.88,-424 109.38,-424 109.38,-404 192.88,-404 192.88,-424"/>
<text xml:space="preserve" text-anchor="middle" x="151.12" y="-410.5" font-family="Helvetica,sans-Serif" font-size="10.00">MX_XSPI2_Init</text>
</a>
</g>
</g>
<!-- Node1&#45;&gt;Node14 -->
<g id="edge14_Node000001_Node000014" class="edge">
<title>Node1&#45;&gt;Node14</title>
<g id="a_edge14_Node000001_Node000014"><a xlink:title=" ">
<path fill="none" stroke="#63b8ff" d="M37.39,-397.6C52.97,-399.87 76.35,-403.27 97.79,-406.39"/>
<polygon fill="#63b8ff" stroke="#63b8ff" points="97.21,-409.84 107.61,-407.82 98.22,-402.91 97.21,-409.84"/>
</a>
</g>
</g>
<!-- Node15 -->
<g id="Node000015" class="node">
<title>Node15</title>
<g id="a_Node000015"><a xlink:href="main_8c.html#a5f51df972f2a5681c3808f7dafb83c22" target="_top" xlink:title="Process one frame during calibration (call from main loop or ISR).">
<polygon fill="white" stroke="#666666" points="201.12,-348 101.12,-348 101.12,-316 201.12,-316 201.12,-348"/>
<text xml:space="preserve" text-anchor="start" x="109.12" y="-334.5" font-family="Helvetica,sans-Serif" font-size="10.00">process_calibration</text>
<text xml:space="preserve" text-anchor="middle" x="151.12" y="-322.5" font-family="Helvetica,sans-Serif" font-size="10.00">_frame</text>
</a>
</g>
</g>
<!-- Node1&#45;&gt;Node15 -->
<g id="edge16_Node000001_Node000015" class="edge">
<title>Node1&#45;&gt;Node15</title>
<g id="a_edge16_Node000001_Node000015"><a xlink:title=" ">
<path fill="none" stroke="#63b8ff" d="M31.57,-384.8C41.99,-376.4 57.73,-364.67 73,-357 78.42,-354.28 84.21,-351.76 90.08,-349.46"/>
<polygon fill="#63b8ff" stroke="#63b8ff" points="91.09,-352.82 99.26,-346.08 88.67,-346.25 91.09,-352.82"/>
</a>
</g>
</g>
<!-- Node16 -->
<g id="Node000016" class="node">
<title>Node16</title>
<g id="a_Node000016"><a xlink:href="main_8c.html#ac8362fb9670f98716b80330485d25d27" target="_top" xlink:title="Verarbeitet eine Zeile der Thermal&#45;Daten (Helium&#45;optimiert).">
<polygon fill="white" stroke="#666666" points="205.25,-298 97,-298 97,-266 205.25,-266 205.25,-298"/>
<text xml:space="preserve" text-anchor="start" x="105" y="-284.5" font-family="Helvetica,sans-Serif" font-size="10.00">process_thermal_line</text>
<text xml:space="preserve" text-anchor="middle" x="151.12" y="-272.5" font-family="Helvetica,sans-Serif" font-size="10.00">_fastest</text>
</a>
</g>
</g>
<!-- Node1&#45;&gt;Node16 -->
<g id="edge17_Node000001_Node000016" class="edge">
<title>Node1&#45;&gt;Node16</title>
<g id="a_edge17_Node000001_Node000016"><a xlink:title=" ">
<path fill="none" stroke="#63b8ff" d="M23.02,-384.67C29.79,-366.34 46.35,-328.07 73,-307 77.02,-303.82 81.46,-301.04 86.12,-298.61"/>
<polygon fill="#63b8ff" stroke="#63b8ff" points="87.56,-301.8 95.2,-294.45 84.65,-295.43 87.56,-301.8"/>
</a>
</g>
</g>
<!-- Node17 -->
<g id="Node000017" class="node">
<title>Node17</title>
<g id="a_Node000017"><a xlink:href="main_8c.html#aa95571e88c26de98a53961bd13c73754" target="_top" xlink:title=" ">
<polygon fill="white" stroke="#666666" points="191.38,-248 110.88,-248 110.88,-228 191.38,-228 191.38,-248"/>
<text xml:space="preserve" text-anchor="middle" x="151.12" y="-234.5" font-family="Helvetica,sans-Serif" font-size="10.00">q15_from_float</text>
</a>
</g>
</g>
<!-- Node1&#45;&gt;Node17 -->
<g id="edge18_Node000001_Node000017" class="edge">
<title>Node1&#45;&gt;Node17</title>
<g id="a_edge18_Node000001_Node000017"><a xlink:title=" ">
<path fill="none" stroke="#63b8ff" d="M20.35,-384.52C23.03,-358.69 33.63,-291.61 73,-257 80.52,-250.38 89.99,-245.99 99.69,-243.1"/>
<polygon fill="#63b8ff" stroke="#63b8ff" points="100.29,-246.55 109.18,-240.78 98.63,-239.75 100.29,-246.55"/>
</a>
</g>
</g>
<!-- Node18 -->
<g id="Node000018" class="node">
<title>Node18</title>
<g id="a_Node000018"><a xlink:href="main_8c.html#aa0daaee8ed015f1164a725642a50d00d" target="_top" xlink:title=" ">
<polygon fill="white" stroke="#666666" points="203.75,-210 98.5,-210 98.5,-190 203.75,-190 203.75,-210"/>
<text xml:space="preserve" text-anchor="middle" x="151.12" y="-196.5" font-family="Helvetica,sans-Serif" font-size="10.00">q15_mul_scalar_u16</text>
</a>
</g>
</g>
<!-- Node1&#45;&gt;Node18 -->
<g id="edge19_Node000001_Node000018" class="edge">
<title>Node1&#45;&gt;Node18</title>
<g id="a_edge19_Node000001_Node000018"><a xlink:title=" ">
<path fill="none" stroke="#63b8ff" d="M19.34,-384.89C19.46,-354.86 24.09,-265.36 73,-219 77.27,-214.95 82.26,-211.73 87.61,-209.16"/>
<polygon fill="#63b8ff" stroke="#63b8ff" points="88.8,-212.45 96.83,-205.55 86.24,-205.94 88.8,-212.45"/>
</a>
</g>
</g>
<!-- Node19 -->
<g id="Node000019" class="node">
<title>Node19</title>
<g id="a_Node000019"><a xlink:href="main_8c.html#a6d3e848fcd8ec8fde52a81c73703efa4" target="_top" xlink:title="Startet eine neue Dunkelbild&#45;Kalibrierung.">
<polygon fill="white" stroke="#666666" points="220.62,-172 81.62,-172 81.62,-152 220.62,-152 220.62,-172"/>
<text xml:space="preserve" text-anchor="middle" x="151.12" y="-158.5" font-family="Helvetica,sans-Serif" font-size="10.00">start_dark_frame_calibration</text>
</a>
</g>
</g>
<!-- Node1&#45;&gt;Node19 -->
<g id="edge20_Node000001_Node000019" class="edge">
<title>Node1&#45;&gt;Node19</title>
<g id="a_edge20_Node000001_Node000019"><a xlink:title=" ">
<path fill="none" stroke="#63b8ff" d="M20.67,-384.74C25.26,-346.17 43.3,-210.6 73,-181 73.75,-180.25 74.52,-179.54 75.31,-178.85"/>
<polygon fill="#63b8ff" stroke="#63b8ff" points="77.11,-181.86 83.33,-173.28 73.12,-176.11 77.11,-181.86"/>
</a>
</g>
</g>
<!-- Node20 -->
<g id="Node000020" class="node">
<title>Node20</title>
<g id="a_Node000020"><a xlink:href="main_8c.html#a70af21c671abfcc773614a9a4f63d920" target="_top" xlink:title="Initialisiert den Systemtakt (PLL, Busse, IC&#45;Domain).">
<polygon fill="white" stroke="#666666" points="205.62,-386 96.62,-386 96.62,-366 205.62,-366 205.62,-386"/>
<text xml:space="preserve" text-anchor="middle" x="151.12" y="-372.5" font-family="Helvetica,sans-Serif" font-size="10.00">SystemClock_Config</text>
</a>
</g>
</g>
<!-- Node1&#45;&gt;Node20 -->
<g id="edge21_Node000001_Node000020" class="edge">
<title>Node1&#45;&gt;Node20</title>
<g id="a_edge21_Node000001_Node000020"><a xlink:title=" ">
<path fill="none" stroke="#63b8ff" d="M37.39,-392.4C49.94,-390.57 67.57,-388.01 85.16,-385.45"/>
<polygon fill="#63b8ff" stroke="#63b8ff" points="85.48,-388.94 94.87,-384.04 84.47,-382.01 85.48,-388.94"/>
</a>
</g>
</g>
<!-- Node21 -->
<g id="Node000021" class="node">
<title>Node21</title>
<g id="a_Node000021"><a xlink:href="main_8c.html#a146935b63d2990b0f6569670f1bd1688" target="_top" xlink:title=" ">
<polygon fill="white" stroke="#666666" points="200,-134 102.25,-134 102.25,-114 200,-114 200,-134"/>
<text xml:space="preserve" text-anchor="middle" x="151.12" y="-120.5" font-family="Helvetica,sans-Serif" font-size="10.00">thermal_vsync_init</text>
</a>
</g>
</g>
<!-- Node1&#45;&gt;Node21 -->
<g id="edge23_Node000001_Node000021" class="edge">
<title>Node1&#45;&gt;Node21</title>
<g id="a_edge23_Node000001_Node000021"><a xlink:title=" ">
<path fill="none" stroke="#63b8ff" d="M20.25,-384.73C23.59,-341.98 38.47,-178.67 73,-143 78.04,-137.8 84.25,-133.93 90.95,-131.07"/>
<polygon fill="#63b8ff" stroke="#63b8ff" points="92.02,-134.4 100.34,-127.85 89.74,-127.78 92.02,-134.4"/>
</a>
</g>
</g>
<!-- Node22 -->
<g id="Node000022" class="node">
<title>Node22</title>
<g id="a_Node000022"><a xlink:href="main_8c.html#ac7bc33868f36b01a0e1129391f38f8c0" target="_top" xlink:title=" ">
<polygon fill="white" stroke="#666666" points="203.38,-58 98.88,-58 98.88,-38 203.38,-38 203.38,-58"/>
<text xml:space="preserve" text-anchor="middle" x="151.12" y="-44.5" font-family="Helvetica,sans-Serif" font-size="10.00">thermal_vsync_start</text>
</a>
</g>
</g>
<!-- Node1&#45;&gt;Node22 -->
<g id="edge25_Node000001_Node000022" class="edge">
<title>Node1&#45;&gt;Node22</title>
<g id="a_edge25_Node000001_Node000022"><a xlink:title=" ">
<path fill="none" stroke="#63b8ff" d="M19.79,-384.73C21.42,-335.08 30.81,-120.43 73,-72 77.31,-67.06 82.62,-63.12 88.41,-59.98"/>
<polygon fill="#63b8ff" stroke="#63b8ff" points="89.48,-63.34 97.16,-56.05 86.61,-56.95 89.48,-63.34"/>
</a>
</g>
</g>
<!-- Node23 -->
<g id="Node000023" class="node">
<title>Node23</title>
<g id="a_Node000023"><a xlink:href="main_8c.html#a95e55441d0d167805773df306e629006" target="_top" xlink:title="This function configure the memory in Octal DTR mode.">
<polygon fill="white" stroke="#666666" points="229.25,-20 73,-20 73,0 229.25,0 229.25,-20"/>
<text xml:space="preserve" text-anchor="middle" x="151.12" y="-6.5" font-family="Helvetica,sans-Serif" font-size="10.00">XSPI_NOR_OctalDTRModeCfg</text>
</a>
</g>
</g>
<!-- Node1&#45;&gt;Node23 -->
<g id="edge27_Node000001_Node000023" class="edge">
<title>Node1&#45;&gt;Node23</title>
<g id="a_edge27_Node000001_Node000023"><a xlink:title=" ">
<path fill="none" stroke="#63b8ff" d="M19.51,-384.77C19.8,-331.17 23.79,-83.2 73,-29 73.48,-28.47 73.97,-27.96 74.47,-27.46"/>
<polygon fill="#63b8ff" stroke="#63b8ff" points="76.53,-30.29 82.28,-21.39 72.24,-24.76 76.53,-30.29"/>
</a>
</g>
</g>
<!-- Node8 -->
<g id="Node000008" class="node">
<title>Node8</title>
<g id="a_Node000008"><a xlink:href="main_8c.html#a498108f0ea7e3b919761280ac7dfdb0e" target="_top" xlink:title="Generiert eine lineare Temperatur&#45;LUT.">
<polygon fill="white" stroke="#666666" points="390,-690 265.25,-690 265.25,-670 390,-670 390,-690"/>
<text xml:space="preserve" text-anchor="middle" x="327.62" y="-676.5" font-family="Helvetica,sans-Serif" font-size="10.00">generate_linear_temp_lut</text>
</a>
</g>
</g>
<!-- Node7&#45;&gt;Node8 -->
<g id="edge7_Node000007_Node000008" class="edge">
<title>Node7&#45;&gt;Node8</title>
<g id="a_edge7_Node000007_Node000008"><a xlink:title=" ">
<path fill="none" stroke="#63b8ff" d="M190.42,-680C208.87,-680 231.65,-680 253.26,-680"/>
<polygon fill="#63b8ff" stroke="#63b8ff" points="253.25,-683.5 263.25,-680 253.25,-676.5 253.25,-683.5"/>
</a>
</g>
</g>
<!-- Node11 -->
<g id="Node000011" class="node">
<title>Node11</title>
<g id="a_Node000011"><a xlink:href="main_8c.html#a6821f0d3d62201280c453b50bbcb9ea2" target="_top" xlink:title=" ">
<polygon fill="white" stroke="#666666" points="388.88,-576 266.38,-576 266.38,-556 388.88,-556 388.88,-576"/>
<text xml:space="preserve" text-anchor="middle" x="327.62" y="-562.5" font-family="Helvetica,sans-Serif" font-size="10.00">build_bad_pixel_patches</text>
</a>
</g>
</g>
<!-- Node10&#45;&gt;Node11 -->
<g id="edge10_Node000010_Node000011" class="edge">
<title>Node10&#45;&gt;Node11</title>
<g id="a_edge10_Node000010_Node000011"><a xlink:title=" ">
<path fill="none" stroke="#63b8ff" d="M203.54,-566C219.62,-566 237.67,-566 254.88,-566"/>
<polygon fill="#63b8ff" stroke="#63b8ff" points="254.53,-569.5 264.53,-566 254.53,-562.5 254.53,-569.5"/>
</a>
</g>
</g>
<!-- Node13&#45;&gt;Node4 -->
<g id="edge13_Node000013_Node000004" class="edge">
<title>Node13&#45;&gt;Node4</title>
<g id="a_edge13_Node000013_Node000004"><a xlink:title=" ">
<path fill="none" stroke="#63b8ff" d="M214.61,-481C219.99,-478.4 224.99,-475.13 229.25,-471 323.25,-379.97 328.65,-206.1 327.48,-145.49"/>
<polygon fill="#63b8ff" stroke="#63b8ff" points="330.99,-145.75 327.2,-135.85 323.99,-145.95 330.99,-145.75"/>
</a>
</g>
</g>
<!-- Node14&#45;&gt;Node4 -->
<g id="edge15_Node000014_Node000004" class="edge">
<title>Node14&#45;&gt;Node4</title>
<g id="a_edge15_Node000014_Node000004"><a xlink:title=" ">
<path fill="none" stroke="#63b8ff" d="M193.32,-411.4C206.11,-408.75 219.42,-403.86 229.25,-395 304.38,-327.26 321.58,-197.29 325.49,-145.79"/>
<polygon fill="#63b8ff" stroke="#63b8ff" points="328.97,-146.19 326.12,-135.99 321.98,-145.74 328.97,-146.19"/>
</a>
</g>
</g>
<!-- Node20&#45;&gt;Node4 -->
<g id="edge22_Node000020_Node000004" class="edge">
<title>Node20&#45;&gt;Node4</title>
<g id="a_edge22_Node000020_Node000004"><a xlink:title=" ">
<path fill="none" stroke="#63b8ff" d="M205.89,-369.66C214.37,-366.8 222.55,-362.74 229.25,-357 295.3,-300.43 317.45,-191.65 324.08,-145.52"/>
<polygon fill="#63b8ff" stroke="#63b8ff" points="327.53,-146.14 325.37,-135.77 320.59,-145.22 327.53,-146.14"/>
</a>
</g>
</g>
<!-- Node21&#45;&gt;Node4 -->
<g id="edge24_Node000021_Node000004" class="edge">
<title>Node21&#45;&gt;Node4</title>
<g id="a_edge24_Node000021_Node000004"><a xlink:title=" ">
<path fill="none" stroke="#63b8ff" d="M200.27,-124C224.37,-124 253.49,-124 277.7,-124"/>
<polygon fill="#63b8ff" stroke="#63b8ff" points="277.63,-127.5 287.63,-124 277.63,-120.5 277.63,-127.5"/>
</a>
</g>
</g>
<!-- Node22&#45;&gt;Node4 -->
<g id="edge26_Node000022_Node000004" class="edge">
<title>Node22&#45;&gt;Node4</title>
<g id="a_edge26_Node000022_Node000004"><a xlink:title=" ">
<path fill="none" stroke="#63b8ff" d="M190.69,-58.44C203.17,-62.23 216.96,-66.86 229.25,-72 253.87,-82.29 280.51,-96.77 299.69,-107.84"/>
<polygon fill="#63b8ff" stroke="#63b8ff" points="297.81,-110.79 308.21,-112.82 301.35,-104.75 297.81,-110.79"/>
</a>
</g>
</g>
<!-- Node23&#45;&gt;Node4 -->
<g id="edge28_Node000023_Node000004" class="edge">
<title>Node23&#45;&gt;Node4</title>
<g id="a_edge28_Node000023_Node000004"><a xlink:title=" ">
<path fill="none" stroke="#63b8ff" d="M209.46,-20.47C216.34,-22.77 223.1,-25.58 229.25,-29 263.8,-48.2 294.79,-82.9 312.12,-104.63"/>
<polygon fill="#63b8ff" stroke="#63b8ff" points="309.25,-106.65 318.15,-112.4 314.78,-102.35 309.25,-106.65"/>
</a>
</g>
</g>
</g>
</svg>
