<?xml version="1.0" encoding="UTF-8" standalone="no"?>
<!DOCTYPE svg PUBLIC "-//W3C//DTD SVG 1.1//EN"
 "http://www.w3.org/Graphics/SVG/1.1/DTD/svg11.dtd">
<!-- Generated by graphviz version 14.0.2 (20251019.1705)
 -->
<!-- Title: q15_mul_scalar_u16 Pages: 1 -->
<svg width="243pt" height="104pt"
 viewBox="0.00 0.00 243.00 104.00" xmlns="http://www.w3.org/2000/svg" xmlns:xlink="http://www.w3.org/1999/xlink">
<g id="graph0" class="graph" transform="scale(1 1) rotate(0) translate(4 100)">
<title>q15_mul_scalar_u16</title>
<!-- Node1 -->
<g id="Node000001" class="node">
<title>Node1</title>
<g id="a_Node000001"><a xlink:title=" ">
<polygon fill="#999999" stroke="#666666" points="235.25,-58 130,-58 130,-38 235.25,-38 235.25,-58"/>
<text xml:space="preserve" text-anchor="middle" x="182.62" y="-44.5" font-family="Helvetica,sans-Serif" font-size="10.00">q15_mul_scalar_u16</text>
</a>
</g>
</g>
<!-- Node2 -->
<g id="Node000002" class="node">
<title>Node2</title>
<g id="a_Node000002"><a xlink:href="main_8c.html#a42cea8c1ce96d5498f59866bbe6d379a" target="_top" xlink:title=" ">
<polygon fill="white" stroke="#666666" points="86.88,-96 7.13,-96 7.13,-76 86.88,-76 86.88,-96"/>
<text xml:space="preserve" text-anchor="middle" x="47" y="-82.5" font-family="Helvetica,sans-Serif" font-size="10.00">build_gain_line</text>
</a>
</g>
</g>
<!-- Node1&#45;&gt;Node2 -->
<g id="edge1_Node000001_Node000002" class="edge">
<title>Node1&#45;&gt;Node2</title>
<g id="a_edge1_Node000001_Node000002"><a xlink:title=" ">
<path fill="none" stroke="#63b8ff" d="M133.88,-61.58C117.71,-66.18 99.92,-71.23 84.75,-75.55"/>
<polygon fill="#63b8ff" stroke="#63b8ff" points="134.64,-65 143.3,-58.9 132.73,-58.27 134.64,-65"/>
</a>
</g>
</g>
<!-- Node3 -->
<g id="Node000003" class="node">
<title>Node3</title>
<g id="a_Node000003"><a xlink:href="main_8c.html#a840291bc02cba5474a4cb46a9b9566fe" target="_top" xlink:title="Hauptprogramm&#45;Einstiegspunkt.">
<polygon fill="white" stroke="#666666" points="65.5,-58 28.5,-58 28.5,-38 65.5,-38 65.5,-58"/>
<text xml:space="preserve" text-anchor="middle" x="47" y="-44.5" font-family="Helvetica,sans-Serif" font-size="10.00">main</text>
</a>
</g>
</g>
<!-- Node1&#45;&gt;Node3 -->
<g id="edge2_Node000001_Node000003" class="edge">
<title>Node1&#45;&gt;Node3</title>
<g id="a_edge2_Node000001_Node000003"><a xlink:title=" ">
<path fill="none" stroke="#63b8ff" d="M118.33,-48C99.06,-48 79.4,-48 65.78,-48"/>
<polygon fill="#63b8ff" stroke="#63b8ff" points="118.07,-51.5 128.07,-48 118.07,-44.5 118.07,-51.5"/>
</a>
</g>
</g>
<!-- Node4 -->
<g id="Node000004" class="node">
<title>Node4</title>
<g id="a_Node000004"><a xlink:href="main_8c.html#a36c0d655eb74b846739c9630d220c26c" target="_top" xlink:title=" ">
<polygon fill="white" stroke="#666666" points="94,-20 0,-20 0,0 94,0 94,-20"/>
<text xml:space="preserve" text-anchor="middle" x="47" y="-6.5" font-family="Helvetica,sans-Serif" font-size="10.00">q15_mul_u16_line</text>
</a>
</g>
</g>
<!-- Node1&#45;&gt;Node4 -->
<g id="edge3_Node000001_Node000004" class="edge">
<title>Node1&#45;&gt;Node4</title>
<g id="a_edge3_Node000001_Node000004"><a xlink:title=" ">
<path fill="none" stroke="#63b8ff" d="M133.88,-34.42C117.71,-29.82 99.92,-24.77 84.75,-20.45"/>
<polygon fill="#63b8ff" stroke="#63b8ff" points="132.73,-37.73 143.3,-37.1 134.64,-31 132.73,-37.73"/>
</a>
</g>
</g>
</g>
</svg>
