<?xml version="1.0" encoding="UTF-8" standalone="no"?>
<!DOCTYPE svg PUBLIC "-//W3C//DTD SVG 1.1//EN"
 "http://www.w3.org/Graphics/SVG/1.1/DTD/svg11.dtd">
<!-- Generated by graphviz version 14.0.2 (20251019.1705)
 -->
<!-- Title: stm32n6xx_nucleo_xspi.h Pages: 1 -->
<svg width="460pt" height="152pt"
 viewBox="0.00 0.00 460.00 152.00" xmlns="http://www.w3.org/2000/svg" xmlns:xlink="http://www.w3.org/1999/xlink">
<g id="graph0" class="graph" transform="scale(1 1) rotate(0) translate(4 148)">
<title>stm32n6xx_nucleo_xspi.h</title>
<!-- Node1 -->
<g id="Node000001" class="node">
<title>Node1</title>
<g id="a_Node000001"><a xlink:title="This file contains the common defines and functions prototypes for the stm32n6xx_nucleo_xspi....">
<polygon fill="#999999" stroke="#666666" points="279.62,-144 150.38,-144 150.38,-124 279.62,-124 279.62,-144"/>
<text xml:space="preserve" text-anchor="middle" x="215" y="-130.5" font-family="Helvetica,sans-Serif" font-size="10.00">stm32n6xx_nucleo_xspi.h</text>
</a>
</g>
</g>
<!-- Node2 -->
<g id="Node000002" class="node">
<title>Node2</title>
<g id="a_Node000002"><a xlink:href="stm32n6xx__nucleo__conf_8h.html" target="_top" xlink:title="STM32N6XX nucleo board configuration file.">
<polygon fill="white" stroke="#666666" points="130,-82 0,-82 0,-62 130,-62 130,-82"/>
<text xml:space="preserve" text-anchor="middle" x="65" y="-68.5" font-family="Helvetica,sans-Serif" font-size="10.00">stm32n6xx_nucleo_conf.h</text>
</a>
</g>
</g>
<!-- Node1&#45;&gt;Node2 -->
<g id="edge1_Node000001_Node000002" class="edge">
<title>Node1&#45;&gt;Node2</title>
<g id="a_edge1_Node000001_Node000002"><a xlink:title=" ">
<path fill="none" stroke="#63b8ff" d="M191.56,-123.62C166.68,-113.67 127.14,-97.85 98.87,-86.55"/>
<polygon fill="#63b8ff" stroke="#63b8ff" points="100.26,-83.34 89.68,-82.87 97.66,-89.83 100.26,-83.34"/>
</a>
</g>
</g>
<!-- Node4 -->
<g id="Node000004" class="node">
<title>Node4</title>
<g id="a_Node000004"><a xlink:href="stm32n6xx__nucleo__errno_8h.html" target="_top" xlink:title="Error code definitions.">
<polygon fill="white" stroke="#666666" points="281.5,-82 148.5,-82 148.5,-62 281.5,-62 281.5,-82"/>
<text xml:space="preserve" text-anchor="middle" x="215" y="-68.5" font-family="Helvetica,sans-Serif" font-size="10.00">stm32n6xx_nucleo_errno.h</text>
</a>
</g>
</g>
<!-- Node1&#45;&gt;Node4 -->
<g id="edge3_Node000001_Node000004" class="edge">
<title>Node1&#45;&gt;Node4</title>
<g id="a_edge3_Node000001_Node000004"><a xlink:title=" ">
<path fill="none" stroke="#63b8ff" d="M215,-123.62C215,-115.56 215,-103.65 215,-93.41"/>
<polygon fill="#63b8ff" stroke="#63b8ff" points="218.5,-93.63 215,-83.63 211.5,-93.63 218.5,-93.63"/>
</a>
</g>
</g>
<!-- Node5 -->
<g id="Node000005" class="node">
<title>Node5</title>
<g id="a_Node000005"><a xlink:title=" ">
<polygon fill="#e0e0e0" stroke="#999999" points="452.25,-88 299.75,-88 299.75,-56 452.25,-56 452.25,-88"/>
<text xml:space="preserve" text-anchor="start" x="307.75" y="-74.5" font-family="Helvetica,sans-Serif" font-size="10.00">../Components/mx25um51245g</text>
<text xml:space="preserve" text-anchor="middle" x="376" y="-62.5" font-family="Helvetica,sans-Serif" font-size="10.00">/mx25um51245g.h</text>
</a>
</g>
</g>
<!-- Node1&#45;&gt;Node5 -->
<g id="edge4_Node000001_Node000005" class="edge">
<title>Node1&#45;&gt;Node5</title>
<g id="a_edge4_Node000001_Node000005"><a xlink:title=" ">
<path fill="none" stroke="#63b8ff" d="M240.16,-123.62C262.51,-115.3 295.89,-102.86 323.97,-92.39"/>
<polygon fill="#63b8ff" stroke="#63b8ff" points="324.87,-95.79 333.02,-89.02 322.42,-89.23 324.87,-95.79"/>
</a>
</g>
</g>
<!-- Node3 -->
<g id="Node000003" class="node">
<title>Node3</title>
<g id="a_Node000003"><a xlink:title=" ">
<polygon fill="#e0e0e0" stroke="#999999" points="110.12,-20 19.88,-20 19.88,0 110.12,0 110.12,-20"/>
<text xml:space="preserve" text-anchor="middle" x="65" y="-6.5" font-family="Helvetica,sans-Serif" font-size="10.00">stm32n6xx_hal.h</text>
</a>
</g>
</g>
<!-- Node2&#45;&gt;Node3 -->
<g id="edge2_Node000002_Node000003" class="edge">
<title>Node2&#45;&gt;Node3</title>
<g id="a_edge2_Node000002_Node000003"><a xlink:title=" ">
<path fill="none" stroke="#63b8ff" d="M65,-61.62C65,-53.56 65,-41.65 65,-31.41"/>
<polygon fill="#63b8ff" stroke="#63b8ff" points="68.5,-31.63 65,-21.63 61.5,-31.63 68.5,-31.63"/>
</a>
</g>
</g>
</g>
</svg>
