<?xml version="1.0" encoding="UTF-8" standalone="no"?>
<!DOCTYPE svg PUBLIC "-//W3C//DTD SVG 1.1//EN"
 "http://www.w3.org/Graphics/SVG/1.1/DTD/svg11.dtd">
<!-- Generated by graphviz version 14.0.2 (20251019.1705)
 -->
<!-- Title: stm32n6xx_nucleo_xspi.h Pages: 1 -->
<svg width="229pt" height="140pt"
 viewBox="0.00 0.00 229.00 140.00" xmlns="http://www.w3.org/2000/svg" xmlns:xlink="http://www.w3.org/1999/xlink">
<g id="graph0" class="graph" transform="scale(1 1) rotate(0) translate(4 136)">
<title>stm32n6xx_nucleo_xspi.h</title>
<!-- Node1 -->
<g id="Node000001" class="node">
<title>Node1</title>
<g id="a_Node000001"><a xlink:title="This file contains the common defines and functions prototypes for the stm32n6xx_nucleo_xspi....">
<polygon fill="#999999" stroke="#666666" points="141.79,-132 12.54,-132 12.54,-112 141.79,-112 141.79,-132"/>
<text xml:space="preserve" text-anchor="middle" x="77.16" y="-118.5" font-family="Helvetica,sans-Serif" font-size="10.00">stm32n6xx_nucleo_xspi.h</text>
</a>
</g>
</g>
<!-- Node2 -->
<g id="Node000002" class="node">
<title>Node2</title>
<g id="a_Node000002"><a xlink:href="main_8c.html" target="_top" xlink:title="Entry&#45;Point und Initialisierung für STM32N6 NUCLEO&#45;Projekt.">
<polygon fill="white" stroke="#666666" points="74.79,-20 29.54,-20 29.54,0 74.79,0 74.79,-20"/>
<text xml:space="preserve" text-anchor="middle" x="52.16" y="-6.5" font-family="Helvetica,sans-Serif" font-size="10.00">main.c</text>
</a>
</g>
</g>
<!-- Node1&#45;&gt;Node2 -->
<g id="edge1_Node000001_Node000002" class="edge">
<title>Node1&#45;&gt;Node2</title>
<g id="a_edge1_Node000001_Node000002"><a xlink:title=" ">
<path fill="none" stroke="#63b8ff" d="M38.13,-106.74C24.58,-99.69 10.85,-89.68 3.16,-76 -8.82,-54.69 17.77,-32.5 36.27,-20.35"/>
<polygon fill="#63b8ff" stroke="#63b8ff" points="36.46,-109.82 47,-110.93 39.45,-103.49 36.46,-109.82"/>
</a>
</g>
</g>
<!-- Node3 -->
<g id="Node000003" class="node">
<title>Node3</title>
<g id="a_Node000003"><a xlink:href="stm32n6xx__nucleo__xspi_8c.html" target="_top" xlink:title=" ">
<polygon fill="white" stroke="#666666" points="141.79,-76 12.54,-76 12.54,-56 141.79,-56 141.79,-76"/>
<text xml:space="preserve" text-anchor="middle" x="77.16" y="-62.5" font-family="Helvetica,sans-Serif" font-size="10.00">stm32n6xx_nucleo_xspi.c</text>
</a>
</g>
</g>
<!-- Node1&#45;&gt;Node3 -->
<g id="edge2_Node000001_Node000003" class="edge">
<title>Node1&#45;&gt;Node3</title>
<g id="a_edge2_Node000001_Node000003"><a xlink:title=" ">
<path fill="none" stroke="#63b8ff" d="M77.16,-100.13C77.16,-91.9 77.16,-82.85 77.16,-76.3"/>
<polygon fill="#63b8ff" stroke="#63b8ff" points="73.66,-100.08 77.16,-110.08 80.66,-100.08 73.66,-100.08"/>
</a>
</g>
</g>
<!-- Node4 -->
<g id="Node000004" class="node">
<title>Node4</title>
<g id="a_Node000004"><a xlink:href="xspi__nor_8h.html" target="_top" xlink:title=" ">
<polygon fill="white" stroke="#666666" points="220.66,-76 159.66,-76 159.66,-56 220.66,-56 220.66,-76"/>
<text xml:space="preserve" text-anchor="middle" x="190.16" y="-62.5" font-family="Helvetica,sans-Serif" font-size="10.00">xspi_nor.h</text>
</a>
</g>
</g>
<!-- Node1&#45;&gt;Node4 -->
<g id="edge3_Node000001_Node000004" class="edge">
<title>Node1&#45;&gt;Node4</title>
<g id="a_edge3_Node000001_Node000004"><a xlink:title=" ">
<path fill="none" stroke="#63b8ff" d="M106.99,-106.75C127,-97.18 152.8,-84.85 170.32,-76.48"/>
<polygon fill="#63b8ff" stroke="#63b8ff" points="105.72,-103.47 98.21,-110.94 108.74,-109.79 105.72,-103.47"/>
</a>
</g>
</g>
<!-- Node4&#45;&gt;Node2 -->
<g id="edge4_Node000004_Node000002" class="edge">
<title>Node4&#45;&gt;Node2</title>
<g id="a_edge4_Node000004_Node000002"><a xlink:title=" ">
<path fill="none" stroke="#63b8ff" d="M155.54,-51.45C130.34,-41.59 96.93,-28.52 75.01,-19.94"/>
<polygon fill="#63b8ff" stroke="#63b8ff" points="154.12,-54.66 164.71,-55.04 156.68,-48.14 154.12,-54.66"/>
</a>
</g>
</g>
<!-- Node5 -->
<g id="Node000005" class="node">
<title>Node5</title>
<g id="a_Node000005"><a xlink:href="xspi__nor_8c.html" target="_top" xlink:title=" ">
<polygon fill="white" stroke="#666666" points="220.66,-20 159.66,-20 159.66,0 220.66,0 220.66,-20"/>
<text xml:space="preserve" text-anchor="middle" x="190.16" y="-6.5" font-family="Helvetica,sans-Serif" font-size="10.00">xspi_nor.c</text>
</a>
</g>
</g>
<!-- Node4&#45;&gt;Node5 -->
<g id="edge5_Node000004_Node000005" class="edge">
<title>Node4&#45;&gt;Node5</title>
<g id="a_edge5_Node000004_Node000005"><a xlink:title=" ">
<path fill="none" stroke="#63b8ff" d="M190.16,-44.13C190.16,-35.9 190.16,-26.85 190.16,-20.3"/>
<polygon fill="#63b8ff" stroke="#63b8ff" points="186.66,-44.08 190.16,-54.08 193.66,-44.08 186.66,-44.08"/>
</a>
</g>
</g>
</g>
</svg>
