<?xml version="1.0" encoding="UTF-8" standalone="no"?>
<!DOCTYPE svg PUBLIC "-//W3C//DTD SVG 1.1//EN"
 "http://www.w3.org/Graphics/SVG/1.1/DTD/svg11.dtd">
<!-- Generated by graphviz version 14.0.2 (20251019.1705)
 -->
<!-- Title: stm32n6xx_nucleo.h Pages: 1 -->
<svg width="290pt" height="140pt"
 viewBox="0.00 0.00 290.00 140.00" xmlns="http://www.w3.org/2000/svg" xmlns:xlink="http://www.w3.org/1999/xlink">
<g id="graph0" class="graph" transform="scale(1 1) rotate(0) translate(4 136)">
<title>stm32n6xx_nucleo.h</title>
<!-- Node1 -->
<g id="Node000001" class="node">
<title>Node1</title>
<g id="a_Node000001"><a xlink:title="This file contains definitions for STM32N6XX&#45;Nucleo Kit: LEDs push&#45;buttons COM ports hardware resourc...">
<polygon fill="#999999" stroke="#666666" points="193,-132 87,-132 87,-112 193,-112 193,-132"/>
<text xml:space="preserve" text-anchor="middle" x="140" y="-118.5" font-family="Helvetica,sans-Serif" font-size="10.00">stm32n6xx_nucleo.h</text>
</a>
</g>
</g>
<!-- Node2 -->
<g id="Node000002" class="node">
<title>Node2</title>
<g id="a_Node000002"><a xlink:href="stm32n6xx__nucleo__conf_8h.html" target="_top" xlink:title="STM32N6XX nucleo board configuration file.">
<polygon fill="white" stroke="#666666" points="130,-76 0,-76 0,-56 130,-56 130,-76"/>
<text xml:space="preserve" text-anchor="middle" x="65" y="-62.5" font-family="Helvetica,sans-Serif" font-size="10.00">stm32n6xx_nucleo_conf.h</text>
</a>
</g>
</g>
<!-- Node1&#45;&gt;Node2 -->
<g id="edge1_Node000001_Node000002" class="edge">
<title>Node1&#45;&gt;Node2</title>
<g id="a_edge1_Node000001_Node000002"><a xlink:title=" ">
<path fill="none" stroke="#63b8ff" d="M126.94,-111.59C116.03,-103.74 100.25,-92.38 87.34,-83.09"/>
<polygon fill="#63b8ff" stroke="#63b8ff" points="89.55,-80.37 79.39,-77.36 85.46,-86.05 89.55,-80.37"/>
</a>
</g>
</g>
<!-- Node4 -->
<g id="Node000004" class="node">
<title>Node4</title>
<g id="a_Node000004"><a xlink:href="stm32n6xx__nucleo__errno_8h.html" target="_top" xlink:title="Error code definitions.">
<polygon fill="white" stroke="#666666" points="281.5,-76 148.5,-76 148.5,-56 281.5,-56 281.5,-76"/>
<text xml:space="preserve" text-anchor="middle" x="215" y="-62.5" font-family="Helvetica,sans-Serif" font-size="10.00">stm32n6xx_nucleo_errno.h</text>
</a>
</g>
</g>
<!-- Node1&#45;&gt;Node4 -->
<g id="edge3_Node000001_Node000004" class="edge">
<title>Node1&#45;&gt;Node4</title>
<g id="a_edge3_Node000001_Node000004"><a xlink:title=" ">
<path fill="none" stroke="#63b8ff" d="M153.06,-111.59C163.97,-103.74 179.75,-92.38 192.66,-83.09"/>
<polygon fill="#63b8ff" stroke="#63b8ff" points="194.54,-86.05 200.61,-77.36 190.45,-80.37 194.54,-86.05"/>
</a>
</g>
</g>
<!-- Node3 -->
<g id="Node000003" class="node">
<title>Node3</title>
<g id="a_Node000003"><a xlink:title=" ">
<polygon fill="#e0e0e0" stroke="#999999" points="110.12,-20 19.88,-20 19.88,0 110.12,0 110.12,-20"/>
<text xml:space="preserve" text-anchor="middle" x="65" y="-6.5" font-family="Helvetica,sans-Serif" font-size="10.00">stm32n6xx_hal.h</text>
</a>
</g>
</g>
<!-- Node2&#45;&gt;Node3 -->
<g id="edge2_Node000002_Node000003" class="edge">
<title>Node2&#45;&gt;Node3</title>
<g id="a_edge2_Node000002_Node000003"><a xlink:title=" ">
<path fill="none" stroke="#63b8ff" d="M65,-55.59C65,-49.01 65,-39.96 65,-31.73"/>
<polygon fill="#63b8ff" stroke="#63b8ff" points="68.5,-31.81 65,-21.81 61.5,-31.81 68.5,-31.81"/>
</a>
</g>
</g>
</g>
</svg>
