<?xml version="1.0" encoding="UTF-8" standalone="no"?>
<!DOCTYPE svg PUBLIC "-//W3C//DTD SVG 1.1//EN"
 "http://www.w3.org/Graphics/SVG/1.1/DTD/svg11.dtd">
<!-- Generated by graphviz version 14.0.2 (20251019.1705)
 -->
<!-- Title: stm32n6xx_hal_conf.h Pages: 1 -->
<svg width="1168pt" height="84pt"
 viewBox="0.00 0.00 1168.00 84.00" xmlns="http://www.w3.org/2000/svg" xmlns:xlink="http://www.w3.org/1999/xlink">
<g id="graph0" class="graph" transform="scale(1 1) rotate(0) translate(4 80)">
<title>stm32n6xx_hal_conf.h</title>
<!-- Node1 -->
<g id="Node000001" class="node">
<title>Node1</title>
<g id="a_Node000001"><a xlink:title="HAL configuration file.">
<polygon fill="#999999" stroke="#666666" points="643.62,-76 529.38,-76 529.38,-56 643.62,-56 643.62,-76"/>
<text xml:space="preserve" text-anchor="middle" x="586.5" y="-62.5" font-family="Helvetica,sans-Serif" font-size="10.00">stm32n6xx_hal_conf.h</text>
</a>
</g>
</g>
<!-- Node2 -->
<g id="Node000002" class="node">
<title>Node2</title>
<g id="a_Node000002"><a xlink:title=" ">
<polygon fill="#e0e0e0" stroke="#999999" points="109,-20 0,-20 0,0 109,0 109,-20"/>
<text xml:space="preserve" text-anchor="middle" x="54.5" y="-6.5" font-family="Helvetica,sans-Serif" font-size="10.00">stm32n6xx_hal_rcc.h</text>
</a>
</g>
</g>
<!-- Node1&#45;&gt;Node2 -->
<g id="edge1_Node000001_Node000002" class="edge">
<title>Node1&#45;&gt;Node2</title>
<g id="a_edge1_Node000001_Node000002"><a xlink:title=" ">
<path fill="none" stroke="#63b8ff" d="M529.01,-60.35C442.56,-53.16 273.68,-38.38 120.46,-20.31"/>
<polygon fill="#63b8ff" stroke="#63b8ff" points="121.3,-16.89 110.96,-19.18 120.48,-23.84 121.3,-16.89"/>
</a>
</g>
</g>
<!-- Node3 -->
<g id="Node000003" class="node">
<title>Node3</title>
<g id="a_Node000003"><a xlink:title=" ">
<polygon fill="#e0e0e0" stroke="#999999" points="240.25,-20 126.75,-20 126.75,0 240.25,0 240.25,-20"/>
<text xml:space="preserve" text-anchor="middle" x="183.5" y="-6.5" font-family="Helvetica,sans-Serif" font-size="10.00">stm32n6xx_hal_gpio.h</text>
</a>
</g>
</g>
<!-- Node1&#45;&gt;Node3 -->
<g id="edge2_Node000001_Node000003" class="edge">
<title>Node1&#45;&gt;Node3</title>
<g id="a_edge2_Node000001_Node000003"><a xlink:title=" ">
<path fill="none" stroke="#63b8ff" d="M528.95,-57.36C464.21,-48.77 355.6,-34.3 252.03,-20.34"/>
<polygon fill="#63b8ff" stroke="#63b8ff" points="252.61,-16.89 242.24,-19.02 251.68,-23.82 252.61,-16.89"/>
</a>
</g>
</g>
<!-- Node4 -->
<g id="Node000004" class="node">
<title>Node4</title>
<g id="a_Node000004"><a xlink:title=" ">
<polygon fill="#e0e0e0" stroke="#999999" points="372.62,-20 258.38,-20 258.38,0 372.62,0 372.62,-20"/>
<text xml:space="preserve" text-anchor="middle" x="315.5" y="-6.5" font-family="Helvetica,sans-Serif" font-size="10.00">stm32n6xx_hal_dma.h</text>
</a>
</g>
</g>
<!-- Node1&#45;&gt;Node4 -->
<g id="edge3_Node000001_Node000004" class="edge">
<title>Node1&#45;&gt;Node4</title>
<g id="a_edge3_Node000001_Node000004"><a xlink:title=" ">
<path fill="none" stroke="#63b8ff" d="M538.99,-55.53C493.07,-46.38 423.42,-32.5 374.1,-22.68"/>
<polygon fill="#63b8ff" stroke="#63b8ff" points="374.94,-19.27 364.44,-20.75 373.57,-26.14 374.94,-19.27"/>
</a>
</g>
</g>
<!-- Node5 -->
<g id="Node000005" class="node">
<title>Node5</title>
<g id="a_Node000005"><a xlink:title=" ">
<polygon fill="#e0e0e0" stroke="#999999" points="512.75,-20 390.25,-20 390.25,0 512.75,0 512.75,-20"/>
<text xml:space="preserve" text-anchor="middle" x="451.5" y="-6.5" font-family="Helvetica,sans-Serif" font-size="10.00">stm32n6xx_hal_cortex.h</text>
</a>
</g>
</g>
<!-- Node1&#45;&gt;Node5 -->
<g id="edge4_Node000001_Node000005" class="edge">
<title>Node1&#45;&gt;Node5</title>
<g id="a_edge4_Node000001_Node000005"><a xlink:title=" ">
<path fill="none" stroke="#63b8ff" d="M562.98,-55.59C541.63,-47.05 509.87,-34.35 485.7,-24.68"/>
<polygon fill="#63b8ff" stroke="#63b8ff" points="487.19,-21.51 476.6,-21.04 484.59,-28.01 487.19,-21.51"/>
</a>
</g>
</g>
<!-- Node6 -->
<g id="Node000006" class="node">
<title>Node6</title>
<g id="a_Node000006"><a xlink:title=" ">
<polygon fill="#e0e0e0" stroke="#999999" points="642.12,-20 530.88,-20 530.88,0 642.12,0 642.12,-20"/>
<text xml:space="preserve" text-anchor="middle" x="586.5" y="-6.5" font-family="Helvetica,sans-Serif" font-size="10.00">stm32n6xx_hal_exti.h</text>
</a>
</g>
</g>
<!-- Node1&#45;&gt;Node6 -->
<g id="edge5_Node000001_Node000006" class="edge">
<title>Node1&#45;&gt;Node6</title>
<g id="a_edge5_Node000001_Node000006"><a xlink:title=" ">
<path fill="none" stroke="#63b8ff" d="M586.5,-55.59C586.5,-49.01 586.5,-39.96 586.5,-31.73"/>
<polygon fill="#63b8ff" stroke="#63b8ff" points="590,-31.81 586.5,-21.81 583,-31.81 590,-31.81"/>
</a>
</g>
</g>
<!-- Node7 -->
<g id="Node000007" class="node">
<title>Node7</title>
<g id="a_Node000007"><a xlink:title=" ">
<polygon fill="#e0e0e0" stroke="#999999" points="771.12,-20 659.88,-20 659.88,0 771.12,0 771.12,-20"/>
<text xml:space="preserve" text-anchor="middle" x="715.5" y="-6.5" font-family="Helvetica,sans-Serif" font-size="10.00">stm32n6xx_hal_pwr.h</text>
</a>
</g>
</g>
<!-- Node1&#45;&gt;Node7 -->
<g id="edge6_Node000001_Node000007" class="edge">
<title>Node1&#45;&gt;Node7</title>
<g id="a_edge6_Node000001_Node000007"><a xlink:title=" ">
<path fill="none" stroke="#63b8ff" d="M608.97,-55.59C629.29,-47.09 659.45,-34.46 682.51,-24.81"/>
<polygon fill="#63b8ff" stroke="#63b8ff" points="683.59,-28.15 691.46,-21.06 680.88,-21.7 683.59,-28.15"/>
</a>
</g>
</g>
<!-- Node8 -->
<g id="Node000008" class="node">
<title>Node8</title>
<g id="a_Node000008"><a xlink:title=" ">
<polygon fill="#e0e0e0" stroke="#999999" points="898,-20 789,-20 789,0 898,0 898,-20"/>
<text xml:space="preserve" text-anchor="middle" x="843.5" y="-6.5" font-family="Helvetica,sans-Serif" font-size="10.00">stm32n6xx_hal_tim.h</text>
</a>
</g>
</g>
<!-- Node1&#45;&gt;Node8 -->
<g id="edge7_Node000001_Node000008" class="edge">
<title>Node1&#45;&gt;Node8</title>
<g id="a_edge7_Node000001_Node000008"><a xlink:title=" ">
<path fill="none" stroke="#63b8ff" d="M631.56,-55.53C674.92,-46.42 740.6,-32.62 787.34,-22.8"/>
<polygon fill="#63b8ff" stroke="#63b8ff" points="787.94,-26.25 797.01,-20.77 786.5,-19.4 787.94,-26.25"/>
</a>
</g>
</g>
<!-- Node9 -->
<g id="Node000009" class="node">
<title>Node9</title>
<g id="a_Node000009"><a xlink:title=" ">
<polygon fill="#e0e0e0" stroke="#999999" points="1028.5,-20 916.5,-20 916.5,0 1028.5,0 1028.5,-20"/>
<text xml:space="preserve" text-anchor="middle" x="972.5" y="-6.5" font-family="Helvetica,sans-Serif" font-size="10.00">stm32n6xx_hal_uart.h</text>
</a>
</g>
</g>
<!-- Node1&#45;&gt;Node9 -->
<g id="edge8_Node000001_Node000009" class="edge">
<title>Node1&#45;&gt;Node9</title>
<g id="a_edge8_Node000001_Node000009"><a xlink:title=" ">
<path fill="none" stroke="#63b8ff" d="M643.87,-56.97C713.59,-47.22 831.05,-30.79 905.03,-20.44"/>
<polygon fill="#63b8ff" stroke="#63b8ff" points="905.15,-23.96 914.57,-19.1 904.18,-17.02 905.15,-23.96"/>
</a>
</g>
</g>
<!-- Node10 -->
<g id="Node000010" class="node">
<title>Node10</title>
<g id="a_Node000010"><a xlink:title=" ">
<polygon fill="#e0e0e0" stroke="#999999" points="1160.25,-20 1046.75,-20 1046.75,0 1160.25,0 1160.25,-20"/>
<text xml:space="preserve" text-anchor="middle" x="1103.5" y="-6.5" font-family="Helvetica,sans-Serif" font-size="10.00">stm32n6xx_hal_xspi.h</text>
</a>
</g>
</g>
<!-- Node1&#45;&gt;Node10 -->
<g id="edge9_Node000001_Node000010" class="edge">
<title>Node1&#45;&gt;Node10</title>
<g id="a_edge9_Node000001_Node000010"><a xlink:title=" ">
<path fill="none" stroke="#63b8ff" d="M643.88,-59.94C727.54,-52.42 888.17,-37.43 1035.26,-20.23"/>
<polygon fill="#63b8ff" stroke="#63b8ff" points="1035.25,-23.75 1044.78,-19.11 1034.44,-16.8 1035.25,-23.75"/>
</a>
</g>
</g>
</g>
</svg>
