<?xml version="1.0" encoding="UTF-8" standalone="no"?>
<!DOCTYPE svg PUBLIC "-//W3C//DTD SVG 1.1//EN"
 "http://www.w3.org/Graphics/SVG/1.1/DTD/svg11.dtd">
<!-- Generated by graphviz version 14.0.2 (20251019.1705)
 -->
<!-- Title: stm32n6xx_nucleo_conf.h Pages: 1 -->
<svg width="379pt" height="196pt"
 viewBox="0.00 0.00 379.00 196.00" xmlns="http://www.w3.org/2000/svg" xmlns:xlink="http://www.w3.org/1999/xlink">
<g id="graph0" class="graph" transform="scale(1 1) rotate(0) translate(4 192)">
<title>stm32n6xx_nucleo_conf.h</title>
<!-- Node1 -->
<g id="Node000001" class="node">
<title>Node1</title>
<g id="a_Node000001"><a xlink:title="STM32N6XX nucleo board configuration file.">
<polygon fill="#999999" stroke="#666666" points="205,-188 75,-188 75,-168 205,-168 205,-188"/>
<text xml:space="preserve" text-anchor="middle" x="140" y="-174.5" font-family="Helvetica,sans-Serif" font-size="10.00">stm32n6xx_nucleo_conf.h</text>
</a>
</g>
</g>
<!-- Node2 -->
<g id="Node000002" class="node">
<title>Node2</title>
<g id="a_Node000002"><a xlink:href="stm32n6xx__nucleo_8h.html" target="_top" xlink:title="This file contains definitions for STM32N6XX&#45;Nucleo Kit: LEDs push&#45;buttons COM ports hardware resourc...">
<polygon fill="white" stroke="#666666" points="125,-132 19,-132 19,-112 125,-112 125,-132"/>
<text xml:space="preserve" text-anchor="middle" x="72" y="-118.5" font-family="Helvetica,sans-Serif" font-size="10.00">stm32n6xx_nucleo.h</text>
</a>
</g>
</g>
<!-- Node1&#45;&gt;Node2 -->
<g id="edge1_Node000001_Node000002" class="edge">
<title>Node1&#45;&gt;Node2</title>
<g id="a_edge1_Node000001_Node000002"><a xlink:title=" ">
<path fill="none" stroke="#63b8ff" d="M119.45,-160.68C107.75,-151.39 93.52,-140.09 83.71,-132.3"/>
<polygon fill="#63b8ff" stroke="#63b8ff" points="116.96,-163.17 126.97,-166.65 121.32,-157.69 116.96,-163.17"/>
</a>
</g>
</g>
<!-- Node4 -->
<g id="Node000004" class="node">
<title>Node4</title>
<g id="a_Node000004"><a xlink:href="stm32n6xx__nucleo__xspi_8h.html" target="_top" xlink:title="This file contains the common defines and functions prototypes for the stm32n6xx_nucleo_xspi....">
<polygon fill="white" stroke="#666666" points="281.62,-132 152.38,-132 152.38,-112 281.62,-112 281.62,-132"/>
<text xml:space="preserve" text-anchor="middle" x="217" y="-118.5" font-family="Helvetica,sans-Serif" font-size="10.00">stm32n6xx_nucleo_xspi.h</text>
</a>
</g>
</g>
<!-- Node1&#45;&gt;Node4 -->
<g id="edge3_Node000001_Node000004" class="edge">
<title>Node1&#45;&gt;Node4</title>
<g id="a_edge3_Node000001_Node000004"><a xlink:title=" ">
<path fill="none" stroke="#63b8ff" d="M162.82,-161C176.05,-151.72 192.26,-140.35 203.48,-132.48"/>
<polygon fill="#63b8ff" stroke="#63b8ff" points="160.83,-158.12 154.65,-166.72 164.85,-163.85 160.83,-158.12"/>
</a>
</g>
</g>
<!-- Node3 -->
<g id="Node000003" class="node">
<title>Node3</title>
<g id="a_Node000003"><a xlink:href="stm32n6xx__nucleo_8c.html" target="_top" xlink:title="This file provides a set of firmware functions to manage: LEDs push&#45;buttons COM ports available on ST...">
<polygon fill="white" stroke="#666666" points="106,-76 0,-76 0,-56 106,-56 106,-76"/>
<text xml:space="preserve" text-anchor="middle" x="53" y="-62.5" font-family="Helvetica,sans-Serif" font-size="10.00">stm32n6xx_nucleo.c</text>
</a>
</g>
</g>
<!-- Node2&#45;&gt;Node3 -->
<g id="edge2_Node000002_Node000003" class="edge">
<title>Node2&#45;&gt;Node3</title>
<g id="a_edge2_Node000002_Node000003"><a xlink:title=" ">
<path fill="none" stroke="#63b8ff" d="M64.96,-101C61.99,-92.54 58.66,-83.08 56.27,-76.3"/>
<polygon fill="#63b8ff" stroke="#63b8ff" points="61.57,-101.89 68.19,-110.17 68.17,-99.57 61.57,-101.89"/>
</a>
</g>
</g>
<!-- Node5 -->
<g id="Node000005" class="node">
<title>Node5</title>
<g id="a_Node000005"><a xlink:href="main_8c.html" target="_top" xlink:title="Entry&#45;Point und Initialisierung für STM32N6 NUCLEO&#45;Projekt.">
<polygon fill="white" stroke="#666666" points="224.62,-20 179.38,-20 179.38,0 224.62,0 224.62,-20"/>
<text xml:space="preserve" text-anchor="middle" x="202" y="-6.5" font-family="Helvetica,sans-Serif" font-size="10.00">main.c</text>
</a>
</g>
</g>
<!-- Node4&#45;&gt;Node5 -->
<g id="edge4_Node000004_Node000005" class="edge">
<title>Node4&#45;&gt;Node5</title>
<g id="a_edge4_Node000004_Node000005"><a xlink:title=" ">
<path fill="none" stroke="#63b8ff" d="M184.01,-106.13C171.99,-98.88 159.7,-88.9 153,-76 141.8,-54.43 167.77,-32.5 186.02,-20.43"/>
<polygon fill="#63b8ff" stroke="#63b8ff" points="182.15,-109.1 192.6,-110.85 185.52,-102.96 182.15,-109.1"/>
</a>
</g>
</g>
<!-- Node6 -->
<g id="Node000006" class="node">
<title>Node6</title>
<g id="a_Node000006"><a xlink:href="stm32n6xx__nucleo__xspi_8c.html" target="_top" xlink:title=" ">
<polygon fill="white" stroke="#666666" points="291.62,-76 162.38,-76 162.38,-56 291.62,-56 291.62,-76"/>
<text xml:space="preserve" text-anchor="middle" x="227" y="-62.5" font-family="Helvetica,sans-Serif" font-size="10.00">stm32n6xx_nucleo_xspi.c</text>
</a>
</g>
</g>
<!-- Node4&#45;&gt;Node6 -->
<g id="edge5_Node000004_Node000006" class="edge">
<title>Node4&#45;&gt;Node6</title>
<g id="a_edge5_Node000004_Node000006"><a xlink:title=" ">
<path fill="none" stroke="#63b8ff" d="M220.81,-100.43C222.35,-92.11 224.05,-82.93 225.28,-76.3"/>
<polygon fill="#63b8ff" stroke="#63b8ff" points="217.4,-99.64 219.02,-110.11 224.28,-100.91 217.4,-99.64"/>
</a>
</g>
</g>
<!-- Node7 -->
<g id="Node000007" class="node">
<title>Node7</title>
<g id="a_Node000007"><a xlink:href="xspi__nor_8h.html" target="_top" xlink:title=" ">
<polygon fill="white" stroke="#666666" points="370.5,-76 309.5,-76 309.5,-56 370.5,-56 370.5,-76"/>
<text xml:space="preserve" text-anchor="middle" x="340" y="-62.5" font-family="Helvetica,sans-Serif" font-size="10.00">xspi_nor.h</text>
</a>
</g>
</g>
<!-- Node4&#45;&gt;Node7 -->
<g id="edge6_Node000004_Node000007" class="edge">
<title>Node4&#45;&gt;Node7</title>
<g id="a_edge6_Node000004_Node000007"><a xlink:title=" ">
<path fill="none" stroke="#63b8ff" d="M248.87,-107.01C270.73,-97.41 299.16,-84.93 318.41,-76.48"/>
<polygon fill="#63b8ff" stroke="#63b8ff" points="247.56,-103.76 239.81,-110.99 250.37,-110.17 247.56,-103.76"/>
</a>
</g>
</g>
<!-- Node7&#45;&gt;Node5 -->
<g id="edge7_Node000007_Node000005" class="edge">
<title>Node7&#45;&gt;Node5</title>
<g id="a_edge7_Node000007_Node000005"><a xlink:title=" ">
<path fill="none" stroke="#63b8ff" d="M305.38,-51.45C280.18,-41.59 246.77,-28.52 224.85,-19.94"/>
<polygon fill="#63b8ff" stroke="#63b8ff" points="303.96,-54.66 314.55,-55.04 306.52,-48.14 303.96,-54.66"/>
</a>
</g>
</g>
<!-- Node8 -->
<g id="Node000008" class="node">
<title>Node8</title>
<g id="a_Node000008"><a xlink:href="xspi__nor_8c.html" target="_top" xlink:title=" ">
<polygon fill="white" stroke="#666666" points="370.5,-20 309.5,-20 309.5,0 370.5,0 370.5,-20"/>
<text xml:space="preserve" text-anchor="middle" x="340" y="-6.5" font-family="Helvetica,sans-Serif" font-size="10.00">xspi_nor.c</text>
</a>
</g>
</g>
<!-- Node7&#45;&gt;Node8 -->
<g id="edge8_Node000007_Node000008" class="edge">
<title>Node7&#45;&gt;Node8</title>
<g id="a_edge8_Node000007_Node000008"><a xlink:title=" ">
<path fill="none" stroke="#63b8ff" d="M340,-44.13C340,-35.9 340,-26.85 340,-20.3"/>
<polygon fill="#63b8ff" stroke="#63b8ff" points="336.5,-44.08 340,-54.08 343.5,-44.08 336.5,-44.08"/>
</a>
</g>
</g>
</g>
</svg>
