<?xml version="1.0" encoding="UTF-8" standalone="no"?>
<!DOCTYPE svg PUBLIC "-//W3C//DTD SVG 1.1//EN"
 "http://www.w3.org/Graphics/SVG/1.1/DTD/svg11.dtd">
<!-- Generated by graphviz version 14.0.2 (20251019.1705)
 -->
<!-- Title: XSPI_NOR_ConfigFlash Pages: 1 -->
<svg width="499pt" height="104pt"
 viewBox="0.00 0.00 499.00 104.00" xmlns="http://www.w3.org/2000/svg" xmlns:xlink="http://www.w3.org/1999/xlink">
<g id="graph0" class="graph" transform="scale(1 1) rotate(0) translate(4 100)">
<title>XSPI_NOR_ConfigFlash</title>
<!-- Node1 -->
<g id="Node000001" class="node">
<title>Node1</title>
<g id="a_Node000001"><a xlink:title="Configure flash interface mode.">
<polygon fill="#999999" stroke="#666666" points="124.75,-58 0,-58 0,-38 124.75,-38 124.75,-58"/>
<text xml:space="preserve" text-anchor="middle" x="62.38" y="-44.5" font-family="Helvetica,sans-Serif" font-size="10.00">XSPI_NOR_ConfigFlash</text>
</a>
</g>
</g>
<!-- Node2 -->
<g id="Node000002" class="node">
<title>Node2</title>
<g id="a_Node000002"><a xlink:href="group___s_t_m32_n6_x_x___n_u_c_l_e_o___x_s_p_i___n_o_r___exported___functions.html#gaa6d40510e8570fda0b07fbe258890414" target="_top" xlink:title="Set Flash to desired Interface mode. And this instance becomes current instance. If current instance ...">
<polygon fill="white" stroke="#666666" points="311,-58 160.75,-58 160.75,-38 311,-38 311,-58"/>
<text xml:space="preserve" text-anchor="middle" x="235.88" y="-44.5" font-family="Helvetica,sans-Serif" font-size="10.00">BSP_XSPI_NOR_ConfigFlash</text>
</a>
</g>
</g>
<!-- Node1&#45;&gt;Node2 -->
<g id="edge1_Node000001_Node000002" class="edge">
<title>Node1&#45;&gt;Node2</title>
<g id="a_edge1_Node000001_Node000002"><a xlink:title=" ">
<path fill="none" stroke="#63b8ff" d="M124.81,-48C132.65,-48 140.78,-48 148.92,-48"/>
<polygon fill="#63b8ff" stroke="#63b8ff" points="148.88,-51.5 158.88,-48 148.88,-44.5 148.88,-51.5"/>
</a>
</g>
</g>
<!-- Node3 -->
<g id="Node000003" class="node">
<title>Node3</title>
<g id="a_Node000003"><a xlink:href="group___s_t_m32_n6_x_x___n_u_c_l_e_o___x_s_p_i___n_o_r___private___functions.html#ga6c2174b3588e28db4a2f34bb26582603" target="_top" xlink:title="This function enables the octal DTR mode of the memory.">
<polygon fill="white" stroke="#666666" points="491.25,-96 347,-96 347,-76 491.25,-76 491.25,-96"/>
<text xml:space="preserve" text-anchor="middle" x="419.12" y="-82.5" font-family="Helvetica,sans-Serif" font-size="10.00">XSPI_NOR_EnterDOPIMode</text>
</a>
</g>
</g>
<!-- Node2&#45;&gt;Node3 -->
<g id="edge2_Node000002_Node000003" class="edge">
<title>Node2&#45;&gt;Node3</title>
<g id="a_edge2_Node000002_Node000003"><a xlink:title=" ">
<path fill="none" stroke="#63b8ff" d="M286.88,-58.48C308.67,-63.05 334.42,-68.45 357.3,-73.25"/>
<polygon fill="#63b8ff" stroke="#63b8ff" points="356.29,-76.61 366.8,-75.24 357.73,-69.76 356.29,-76.61"/>
</a>
</g>
</g>
<!-- Node4 -->
<g id="Node000004" class="node">
<title>Node4</title>
<g id="a_Node000004"><a xlink:href="group___s_t_m32_n6_x_x___n_u_c_l_e_o___x_s_p_i___n_o_r___private___functions.html#ga4d2f380862fd1667eca4d8cabd7681ec" target="_top" xlink:title="This function enables the octal STR mode of the memory.">
<polygon fill="white" stroke="#666666" points="490.88,-58 347.38,-58 347.38,-38 490.88,-38 490.88,-58"/>
<text xml:space="preserve" text-anchor="middle" x="419.12" y="-44.5" font-family="Helvetica,sans-Serif" font-size="10.00">XSPI_NOR_EnterSOPIMode</text>
</a>
</g>
</g>
<!-- Node2&#45;&gt;Node4 -->
<g id="edge3_Node000002_Node000004" class="edge">
<title>Node2&#45;&gt;Node4</title>
<g id="a_edge3_Node000002_Node000004"><a xlink:title=" ">
<path fill="none" stroke="#63b8ff" d="M311.38,-48C319.41,-48 327.62,-48 335.73,-48"/>
<polygon fill="#63b8ff" stroke="#63b8ff" points="335.61,-51.5 345.61,-48 335.6,-44.5 335.61,-51.5"/>
</a>
</g>
</g>
<!-- Node5 -->
<g id="Node000005" class="node">
<title>Node5</title>
<g id="a_Node000005"><a xlink:href="group___s_t_m32_n6_x_x___n_u_c_l_e_o___x_s_p_i___n_o_r___private___functions.html#ga71270f202f993c42c59c9d419ac20bf9" target="_top" xlink:title="This function disables the octal DTR or STR mode of the memory.">
<polygon fill="white" stroke="#666666" points="484.5,-20 353.75,-20 353.75,0 484.5,0 484.5,-20"/>
<text xml:space="preserve" text-anchor="middle" x="419.12" y="-6.5" font-family="Helvetica,sans-Serif" font-size="10.00">XSPI_NOR_ExitOPIMode</text>
</a>
</g>
</g>
<!-- Node2&#45;&gt;Node5 -->
<g id="edge4_Node000002_Node000005" class="edge">
<title>Node2&#45;&gt;Node5</title>
<g id="a_edge4_Node000002_Node000005"><a xlink:title=" ">
<path fill="none" stroke="#63b8ff" d="M286.88,-37.52C308.67,-32.95 334.42,-27.55 357.3,-22.75"/>
<polygon fill="#63b8ff" stroke="#63b8ff" points="357.73,-26.24 366.8,-20.76 356.29,-19.39 357.73,-26.24"/>
</a>
</g>
</g>
</g>
</svg>
