<?xml version="1.0" encoding="UTF-8" standalone="no"?>
<!DOCTYPE svg PUBLIC "-//W3C//DTD SVG 1.1//EN"
 "http://www.w3.org/Graphics/SVG/1.1/DTD/svg11.dtd">
<!-- Generated by graphviz version 14.0.2 (20251019.1705)
 -->
<!-- Title: XSPI_NOR_Init_All Pages: 1 -->
<svg width="624pt" height="180pt"
 viewBox="0.00 0.00 624.00 180.00" xmlns="http://www.w3.org/2000/svg" xmlns:xlink="http://www.w3.org/1999/xlink">
<g id="graph0" class="graph" transform="scale(1 1) rotate(0) translate(4 176)">
<title>XSPI_NOR_Init_All</title>
<!-- Node1 -->
<g id="Node000001" class="node">
<title>Node1</title>
<g id="a_Node000001"><a xlink:title="Initialize XSPI2 NOR Flash in Octal DTR Mode.">
<polygon fill="#999999" stroke="#666666" points="102.25,-58 0,-58 0,-38 102.25,-38 102.25,-58"/>
<text xml:space="preserve" text-anchor="middle" x="51.12" y="-44.5" font-family="Helvetica,sans-Serif" font-size="10.00">XSPI_NOR_Init_All</text>
</a>
</g>
</g>
<!-- Node2 -->
<g id="Node000002" class="node">
<title>Node2</title>
<g id="a_Node000002"><a xlink:href="group___s_t_m32_n6_x_x___n_u_c_l_e_o___x_s_p_i___n_o_r___exported___functions.html#ga1d85a26b27f6fc0610894c158845cff0" target="_top" xlink:title="Initializes the XSPI interface.">
<polygon fill="white" stroke="#666666" points="249.5,-77 138.25,-77 138.25,-57 249.5,-57 249.5,-77"/>
<text xml:space="preserve" text-anchor="middle" x="193.88" y="-63.5" font-family="Helvetica,sans-Serif" font-size="10.00">BSP_XSPI_NOR_Init</text>
</a>
</g>
</g>
<!-- Node1&#45;&gt;Node2 -->
<g id="edge1_Node000001_Node000002" class="edge">
<title>Node1&#45;&gt;Node2</title>
<g id="a_edge1_Node000001_Node000002"><a xlink:title=" ">
<path fill="none" stroke="#63b8ff" d="M102.54,-54.81C110.37,-55.86 118.56,-56.97 126.67,-58.06"/>
<polygon fill="#63b8ff" stroke="#63b8ff" points="126.17,-61.53 136.54,-59.4 127.1,-54.59 126.17,-61.53"/>
</a>
</g>
</g>
<!-- Node10 -->
<g id="Node000010" class="node">
<title>Node10</title>
<g id="a_Node000010"><a xlink:href="main_8c.html#a1730ffe1e560465665eb47d9264826f9" target="_top" xlink:title="This function is executed in case of error occurrence.">
<polygon fill="white" stroke="#666666" points="231.88,-39 155.88,-39 155.88,-19 231.88,-19 231.88,-39"/>
<text xml:space="preserve" text-anchor="middle" x="193.88" y="-25.5" font-family="Helvetica,sans-Serif" font-size="10.00">Error_Handler</text>
</a>
</g>
</g>
<!-- Node1&#45;&gt;Node10 -->
<g id="edge9_Node000001_Node000010" class="edge">
<title>Node1&#45;&gt;Node10</title>
<g id="a_edge9_Node000001_Node000010"><a xlink:title=" ">
<path fill="none" stroke="#63b8ff" d="M102.54,-41.19C116.22,-39.35 131,-37.35 144.56,-35.52"/>
<polygon fill="#63b8ff" stroke="#63b8ff" points="144.68,-39.04 154.12,-34.23 143.74,-32.1 144.68,-39.04"/>
</a>
</g>
</g>
<!-- Node3 -->
<g id="Node000003" class="node">
<title>Node3</title>
<g id="a_Node000003"><a xlink:href="group___s_t_m32_n6_x_x___n_u_c_l_e_o___x_s_p_i___n_o_r___exported___functions.html#gaa6d40510e8570fda0b07fbe258890414" target="_top" xlink:title="Set Flash to desired Interface mode. And this instance becomes current instance. If current instance ...">
<polygon fill="white" stroke="#666666" points="435.75,-134 285.5,-134 285.5,-114 435.75,-114 435.75,-134"/>
<text xml:space="preserve" text-anchor="middle" x="360.62" y="-120.5" font-family="Helvetica,sans-Serif" font-size="10.00">BSP_XSPI_NOR_ConfigFlash</text>
</a>
</g>
</g>
<!-- Node2&#45;&gt;Node3 -->
<g id="edge2_Node000002_Node000003" class="edge">
<title>Node2&#45;&gt;Node3</title>
<g id="a_edge2_Node000002_Node000003"><a xlink:title=" ">
<path fill="none" stroke="#63b8ff" d="M217.24,-77.46C235.37,-85.67 261.73,-97.02 285.5,-105 291.32,-106.96 297.46,-108.83 303.61,-110.58"/>
<polygon fill="#63b8ff" stroke="#63b8ff" points="302.6,-113.93 313.17,-113.19 304.45,-107.18 302.6,-113.93"/>
</a>
</g>
</g>
<!-- Node7 -->
<g id="Node000007" class="node">
<title>Node7</title>
<g id="a_Node000007"><a xlink:href="group___s_t_m32_n6_x_x___n_u_c_l_e_o___x_s_p_i___n_o_r___exported___functions.html#gabd50a1c84f55a305c169a7dba2e6e87b" target="_top" xlink:title="Initializes the XSPI interface.">
<polygon fill="white" stroke="#666666" points="413.62,-96 307.62,-96 307.62,-76 413.62,-76 413.62,-96"/>
<text xml:space="preserve" text-anchor="middle" x="360.62" y="-82.5" font-family="Helvetica,sans-Serif" font-size="10.00">MX_XSPI_NOR_Init</text>
</a>
</g>
</g>
<!-- Node2&#45;&gt;Node7 -->
<g id="edge6_Node000002_Node000007" class="edge">
<title>Node2&#45;&gt;Node7</title>
<g id="a_edge6_Node000002_Node000007"><a xlink:title=" ">
<path fill="none" stroke="#63b8ff" d="M249.73,-73.33C264.5,-75.03 280.61,-76.89 295.82,-78.64"/>
<polygon fill="#63b8ff" stroke="#63b8ff" points="295.4,-82.12 305.74,-79.79 296.2,-75.16 295.4,-82.12"/>
</a>
</g>
</g>
<!-- Node8 -->
<g id="Node000008" class="node">
<title>Node8</title>
<g id="a_Node000008"><a xlink:href="group___s_t_m32_n6_x_x___n_u_c_l_e_o___x_s_p_i___n_o_r___private___functions.html#gad2124a6b677d50eca815068c1a12005a" target="_top" xlink:title="Initializes the XSPI MSP.">
<polygon fill="white" stroke="#666666" points="412.88,-58 308.38,-58 308.38,-38 412.88,-38 412.88,-58"/>
<text xml:space="preserve" text-anchor="middle" x="360.62" y="-44.5" font-family="Helvetica,sans-Serif" font-size="10.00">XSPI_NOR_MspInit</text>
</a>
</g>
</g>
<!-- Node2&#45;&gt;Node8 -->
<g id="edge7_Node000002_Node000008" class="edge">
<title>Node2&#45;&gt;Node8</title>
<g id="a_edge7_Node000002_Node000008"><a xlink:title=" ">
<path fill="none" stroke="#63b8ff" d="M249.73,-60.67C264.87,-58.93 281.42,-57.02 296.96,-55.23"/>
<polygon fill="#63b8ff" stroke="#63b8ff" points="297.03,-58.74 306.57,-54.12 296.23,-51.79 297.03,-58.74"/>
</a>
</g>
</g>
<!-- Node9 -->
<g id="Node000009" class="node">
<title>Node9</title>
<g id="a_Node000009"><a xlink:href="group___s_t_m32_n6_x_x___n_u_c_l_e_o___x_s_p_i___n_o_r___private___functions.html#ga2079d91f22628240bc0bab452ec92078" target="_top" xlink:title="This function reset the XSPI memory.">
<polygon fill="white" stroke="#666666" points="427.5,-20 293.75,-20 293.75,0 427.5,0 427.5,-20"/>
<text xml:space="preserve" text-anchor="middle" x="360.62" y="-6.5" font-family="Helvetica,sans-Serif" font-size="10.00">XSPI_NOR_ResetMemory</text>
</a>
</g>
</g>
<!-- Node2&#45;&gt;Node9 -->
<g id="edge8_Node000002_Node000009" class="edge">
<title>Node2&#45;&gt;Node9</title>
<g id="a_edge8_Node000002_Node000009"><a xlink:title=" ">
<path fill="none" stroke="#63b8ff" d="M227.54,-56.54C234.84,-53.95 242.5,-51.04 249.5,-48 266.09,-40.79 268.62,-35.51 285.5,-29 290.5,-27.07 295.77,-25.27 301.1,-23.62"/>
<polygon fill="#63b8ff" stroke="#63b8ff" points="301.97,-27.01 310.59,-20.85 300.01,-20.29 301.97,-27.01"/>
</a>
</g>
</g>
<!-- Node4 -->
<g id="Node000004" class="node">
<title>Node4</title>
<g id="a_Node000004"><a xlink:href="group___s_t_m32_n6_x_x___n_u_c_l_e_o___x_s_p_i___n_o_r___private___functions.html#ga6c2174b3588e28db4a2f34bb26582603" target="_top" xlink:title="This function enables the octal DTR mode of the memory.">
<polygon fill="white" stroke="#666666" points="616,-172 471.75,-172 471.75,-152 616,-152 616,-172"/>
<text xml:space="preserve" text-anchor="middle" x="543.88" y="-158.5" font-family="Helvetica,sans-Serif" font-size="10.00">XSPI_NOR_EnterDOPIMode</text>
</a>
</g>
</g>
<!-- Node3&#45;&gt;Node4 -->
<g id="edge3_Node000003_Node000004" class="edge">
<title>Node3&#45;&gt;Node4</title>
<g id="a_edge3_Node000003_Node000004"><a xlink:title=" ">
<path fill="none" stroke="#63b8ff" d="M411.63,-134.48C433.42,-139.05 459.17,-144.45 482.05,-149.25"/>
<polygon fill="#63b8ff" stroke="#63b8ff" points="481.04,-152.61 491.55,-151.24 482.48,-145.76 481.04,-152.61"/>
</a>
</g>
</g>
<!-- Node5 -->
<g id="Node000005" class="node">
<title>Node5</title>
<g id="a_Node000005"><a xlink:href="group___s_t_m32_n6_x_x___n_u_c_l_e_o___x_s_p_i___n_o_r___private___functions.html#ga4d2f380862fd1667eca4d8cabd7681ec" target="_top" xlink:title="This function enables the octal STR mode of the memory.">
<polygon fill="white" stroke="#666666" points="615.62,-134 472.12,-134 472.12,-114 615.62,-114 615.62,-134"/>
<text xml:space="preserve" text-anchor="middle" x="543.88" y="-120.5" font-family="Helvetica,sans-Serif" font-size="10.00">XSPI_NOR_EnterSOPIMode</text>
</a>
</g>
</g>
<!-- Node3&#45;&gt;Node5 -->
<g id="edge4_Node000003_Node000005" class="edge">
<title>Node3&#45;&gt;Node5</title>
<g id="a_edge4_Node000003_Node000005"><a xlink:title=" ">
<path fill="none" stroke="#63b8ff" d="M436.13,-124C444.16,-124 452.37,-124 460.48,-124"/>
<polygon fill="#63b8ff" stroke="#63b8ff" points="460.36,-127.5 470.36,-124 460.35,-120.5 460.36,-127.5"/>
</a>
</g>
</g>
<!-- Node6 -->
<g id="Node000006" class="node">
<title>Node6</title>
<g id="a_Node000006"><a xlink:href="group___s_t_m32_n6_x_x___n_u_c_l_e_o___x_s_p_i___n_o_r___private___functions.html#ga71270f202f993c42c59c9d419ac20bf9" target="_top" xlink:title="This function disables the octal DTR or STR mode of the memory.">
<polygon fill="white" stroke="#666666" points="609.25,-96 478.5,-96 478.5,-76 609.25,-76 609.25,-96"/>
<text xml:space="preserve" text-anchor="middle" x="543.88" y="-82.5" font-family="Helvetica,sans-Serif" font-size="10.00">XSPI_NOR_ExitOPIMode</text>
</a>
</g>
</g>
<!-- Node3&#45;&gt;Node6 -->
<g id="edge5_Node000003_Node000006" class="edge">
<title>Node3&#45;&gt;Node6</title>
<g id="a_edge5_Node000003_Node000006"><a xlink:title=" ">
<path fill="none" stroke="#63b8ff" d="M411.63,-113.52C433.42,-108.95 459.17,-103.55 482.05,-98.75"/>
<polygon fill="#63b8ff" stroke="#63b8ff" points="482.48,-102.24 491.55,-96.76 481.04,-95.39 482.48,-102.24"/>
</a>
</g>
</g>
</g>
</svg>
