<?xml version="1.0" encoding="UTF-8" standalone="no"?>
<!DOCTYPE svg PUBLIC "-//W3C//DTD SVG 1.1//EN"
 "http://www.w3.org/Graphics/SVG/1.1/DTD/svg11.dtd">
<!-- Generated by graphviz version 14.0.2 (20251019.1705)
 -->
<!-- Title: xspi_nor.h Pages: 1 -->
<svg width="487pt" height="208pt"
 viewBox="0.00 0.00 487.00 208.00" xmlns="http://www.w3.org/2000/svg" xmlns:xlink="http://www.w3.org/1999/xlink">
<g id="graph0" class="graph" transform="scale(1 1) rotate(0) translate(4 204)">
<title>xspi_nor.h</title>
<!-- Node1 -->
<g id="Node000001" class="node">
<title>Node1</title>
<g id="a_Node000001"><a xlink:title=" ">
<polygon fill="#999999" stroke="#666666" points="197.62,-200 136.62,-200 136.62,-180 197.62,-180 197.62,-200"/>
<text xml:space="preserve" text-anchor="middle" x="167.12" y="-186.5" font-family="Helvetica,sans-Serif" font-size="10.00">xspi_nor.h</text>
</a>
</g>
</g>
<!-- Node2 -->
<g id="Node000002" class="node">
<title>Node2</title>
<g id="a_Node000002"><a xlink:title=" ">
<polygon fill="#e0e0e0" stroke="#999999" points="90.25,-20 0,-20 0,0 90.25,0 90.25,-20"/>
<text xml:space="preserve" text-anchor="middle" x="45.12" y="-6.5" font-family="Helvetica,sans-Serif" font-size="10.00">stm32n6xx_hal.h</text>
</a>
</g>
</g>
<!-- Node1&#45;&gt;Node2 -->
<g id="edge1_Node000001_Node000002" class="edge">
<title>Node1&#45;&gt;Node2</title>
<g id="a_edge1_Node000001_Node000002"><a xlink:title=" ">
<path fill="none" stroke="#63b8ff" d="M138.56,-179.51C102.57,-165.8 42.49,-136.61 18.12,-88 8.54,-68.89 19.65,-45.54 30.37,-29.6"/>
<polygon fill="#63b8ff" stroke="#63b8ff" points="33.19,-31.68 36.26,-21.54 27.53,-27.56 33.19,-31.68"/>
</a>
</g>
</g>
<!-- Node3 -->
<g id="Node000003" class="node">
<title>Node3</title>
<g id="a_Node000003"><a xlink:href="stm32n6xx__nucleo__xspi_8h.html" target="_top" xlink:title="This file contains the common defines and functions prototypes for the stm32n6xx_nucleo_xspi....">
<polygon fill="white" stroke="#666666" points="231.75,-144 102.5,-144 102.5,-124 231.75,-124 231.75,-144"/>
<text xml:space="preserve" text-anchor="middle" x="167.12" y="-130.5" font-family="Helvetica,sans-Serif" font-size="10.00">stm32n6xx_nucleo_xspi.h</text>
</a>
</g>
</g>
<!-- Node1&#45;&gt;Node3 -->
<g id="edge2_Node000001_Node000003" class="edge">
<title>Node1&#45;&gt;Node3</title>
<g id="a_edge2_Node000001_Node000003"><a xlink:title=" ">
<path fill="none" stroke="#63b8ff" d="M167.12,-179.59C167.12,-173.01 167.12,-163.96 167.12,-155.73"/>
<polygon fill="#63b8ff" stroke="#63b8ff" points="170.63,-155.81 167.13,-145.81 163.63,-155.81 170.63,-155.81"/>
</a>
</g>
</g>
<!-- Node7 -->
<g id="Node000007" class="node">
<title>Node7</title>
<g id="a_Node000007"><a xlink:title=" ">
<polygon fill="#e0e0e0" stroke="#999999" points="298.25,-144 250,-144 250,-124 298.25,-124 298.25,-144"/>
<text xml:space="preserve" text-anchor="middle" x="274.12" y="-130.5" font-family="Helvetica,sans-Serif" font-size="10.00">stdint.h</text>
</a>
</g>
</g>
<!-- Node1&#45;&gt;Node7 -->
<g id="edge7_Node000001_Node000007" class="edge">
<title>Node1&#45;&gt;Node7</title>
<g id="a_edge7_Node000001_Node000007"><a xlink:title=" ">
<path fill="none" stroke="#63b8ff" d="M185.76,-179.59C202.16,-171.32 226.28,-159.14 245.19,-149.6"/>
<polygon fill="#63b8ff" stroke="#63b8ff" points="246.64,-152.79 253.99,-145.16 243.49,-146.54 246.64,-152.79"/>
</a>
</g>
</g>
<!-- Node4 -->
<g id="Node000004" class="node">
<title>Node4</title>
<g id="a_Node000004"><a xlink:href="stm32n6xx__nucleo__conf_8h.html" target="_top" xlink:title="STM32N6XX nucleo board configuration file.">
<polygon fill="white" stroke="#666666" points="157.12,-82 27.12,-82 27.12,-62 157.12,-62 157.12,-82"/>
<text xml:space="preserve" text-anchor="middle" x="92.12" y="-68.5" font-family="Helvetica,sans-Serif" font-size="10.00">stm32n6xx_nucleo_conf.h</text>
</a>
</g>
</g>
<!-- Node3&#45;&gt;Node4 -->
<g id="edge3_Node000003_Node000004" class="edge">
<title>Node3&#45;&gt;Node4</title>
<g id="a_edge3_Node000003_Node000004"><a xlink:title=" ">
<path fill="none" stroke="#63b8ff" d="M155.41,-123.62C143.89,-114.41 126.09,-100.17 112.3,-89.14"/>
<polygon fill="#63b8ff" stroke="#63b8ff" points="114.69,-86.57 104.7,-83.06 110.32,-92.04 114.69,-86.57"/>
</a>
</g>
</g>
<!-- Node5 -->
<g id="Node000005" class="node">
<title>Node5</title>
<g id="a_Node000005"><a xlink:href="stm32n6xx__nucleo__errno_8h.html" target="_top" xlink:title="Error code definitions.">
<polygon fill="white" stroke="#666666" points="308.62,-82 175.62,-82 175.62,-62 308.62,-62 308.62,-82"/>
<text xml:space="preserve" text-anchor="middle" x="242.12" y="-68.5" font-family="Helvetica,sans-Serif" font-size="10.00">stm32n6xx_nucleo_errno.h</text>
</a>
</g>
</g>
<!-- Node3&#45;&gt;Node5 -->
<g id="edge5_Node000003_Node000005" class="edge">
<title>Node3&#45;&gt;Node5</title>
<g id="a_edge5_Node000003_Node000005"><a xlink:title=" ">
<path fill="none" stroke="#63b8ff" d="M178.84,-123.62C190.36,-114.41 208.16,-100.17 221.95,-89.14"/>
<polygon fill="#63b8ff" stroke="#63b8ff" points="223.93,-92.04 229.55,-83.06 219.56,-86.57 223.93,-92.04"/>
</a>
</g>
</g>
<!-- Node6 -->
<g id="Node000006" class="node">
<title>Node6</title>
<g id="a_Node000006"><a xlink:title=" ">
<polygon fill="#e0e0e0" stroke="#999999" points="479.38,-88 326.88,-88 326.88,-56 479.38,-56 479.38,-88"/>
<text xml:space="preserve" text-anchor="start" x="334.88" y="-74.5" font-family="Helvetica,sans-Serif" font-size="10.00">../Components/mx25um51245g</text>
<text xml:space="preserve" text-anchor="middle" x="403.12" y="-62.5" font-family="Helvetica,sans-Serif" font-size="10.00">/mx25um51245g.h</text>
</a>
</g>
</g>
<!-- Node3&#45;&gt;Node6 -->
<g id="edge6_Node000003_Node000006" class="edge">
<title>Node3&#45;&gt;Node6</title>
<g id="a_edge6_Node000003_Node000006"><a xlink:title=" ">
<path fill="none" stroke="#63b8ff" d="M204.26,-123.56C238.22,-114.93 289.4,-101.91 331.33,-91.25"/>
<polygon fill="#63b8ff" stroke="#63b8ff" points="332.04,-94.68 340.86,-88.83 330.31,-87.9 332.04,-94.68"/>
</a>
</g>
</g>
<!-- Node4&#45;&gt;Node2 -->
<g id="edge4_Node000004_Node000002" class="edge">
<title>Node4&#45;&gt;Node2</title>
<g id="a_edge4_Node000004_Node000002"><a xlink:title=" ">
<path fill="none" stroke="#63b8ff" d="M84.78,-61.62C77.98,-52.94 67.68,-39.8 59.29,-29.08"/>
<polygon fill="#63b8ff" stroke="#63b8ff" points="62.12,-27.02 53.2,-21.3 56.61,-31.33 62.12,-27.02"/>
</a>
</g>
</g>
</g>
</svg>
