<?xml version="1.0" encoding="UTF-8" standalone="no"?>
<!DOCTYPE svg PUBLIC "-//W3C//DTD SVG 1.1//EN"
 "http://www.w3.org/Graphics/SVG/1.1/DTD/svg11.dtd">
<!-- Generated by graphviz version 14.0.2 (20251019.1705)
 -->
<!-- Title: xspi_nor.h Pages: 1 -->
<svg width="132pt" height="84pt"
 viewBox="0.00 0.00 132.00 84.00" xmlns="http://www.w3.org/2000/svg" xmlns:xlink="http://www.w3.org/1999/xlink">
<g id="graph0" class="graph" transform="scale(1 1) rotate(0) translate(4 80)">
<title>xspi_nor.h</title>
<!-- Node1 -->
<g id="Node000001" class="node">
<title>Node1</title>
<g id="a_Node000001"><a xlink:title=" ">
<polygon fill="#999999" stroke="#666666" points="88.12,-76 27.13,-76 27.13,-56 88.12,-56 88.12,-76"/>
<text xml:space="preserve" text-anchor="middle" x="57.62" y="-62.5" font-family="Helvetica,sans-Serif" font-size="10.00">xspi_nor.h</text>
</a>
</g>
</g>
<!-- Node2 -->
<g id="Node000002" class="node">
<title>Node2</title>
<g id="a_Node000002"><a xlink:href="main_8c.html" target="_top" xlink:title="Entry&#45;Point und Initialisierung für STM32N6 NUCLEO&#45;Projekt.">
<polygon fill="white" stroke="#666666" points="45.25,-20 0,-20 0,0 45.25,0 45.25,-20"/>
<text xml:space="preserve" text-anchor="middle" x="22.62" y="-6.5" font-family="Helvetica,sans-Serif" font-size="10.00">main.c</text>
</a>
</g>
</g>
<!-- Node1&#45;&gt;Node2 -->
<g id="edge1_Node000001_Node000002" class="edge">
<title>Node1&#45;&gt;Node2</title>
<g id="a_edge1_Node000001_Node000002"><a xlink:title=" ">
<path fill="none" stroke="#63b8ff" d="M45.41,-46.15C39.74,-37.4 33.25,-27.39 28.65,-20.3"/>
<polygon fill="#63b8ff" stroke="#63b8ff" points="42.33,-47.84 50.71,-54.32 48.2,-44.03 42.33,-47.84"/>
</a>
</g>
</g>
<!-- Node3 -->
<g id="Node000003" class="node">
<title>Node3</title>
<g id="a_Node000003"><a xlink:href="xspi__nor_8c.html" target="_top" xlink:title=" ">
<polygon fill="white" stroke="#666666" points="124.12,-20 63.12,-20 63.12,0 124.12,0 124.12,-20"/>
<text xml:space="preserve" text-anchor="middle" x="93.62" y="-6.5" font-family="Helvetica,sans-Serif" font-size="10.00">xspi_nor.c</text>
</a>
</g>
</g>
<!-- Node1&#45;&gt;Node3 -->
<g id="edge2_Node000001_Node000003" class="edge">
<title>Node1&#45;&gt;Node3</title>
<g id="a_edge2_Node000001_Node000003"><a xlink:title=" ">
<path fill="none" stroke="#63b8ff" d="M70.19,-46.15C76.02,-37.4 82.7,-27.39 87.43,-20.3"/>
<polygon fill="#63b8ff" stroke="#63b8ff" points="67.37,-44.07 64.74,-54.33 73.19,-47.96 67.37,-44.07"/>
</a>
</g>
</g>
</g>
</svg>
